<?xml version="1.0" encoding="UTF-8" standalone="no"?>
<!DOCTYPE svg PUBLIC "-//W3C//DTD SVG 1.1//EN"
 "http://www.w3.org/Graphics/SVG/1.1/DTD/svg11.dtd">
<!-- Generated by graphviz version 2.43.0 (0)
 -->
<!-- Title: %3 Pages: 1 -->
<svg width="1663pt" height="238pt"
 viewBox="0.00 0.00 1663.00 237.74" xmlns="http://www.w3.org/2000/svg" xmlns:xlink="http://www.w3.org/1999/xlink">
<g id="graph0" class="graph" transform="scale(1 1) rotate(0) translate(36 201.74)">
<title>%3</title>
<polygon fill="dimgray" stroke="transparent" points="-36,36 -36,-201.74 1627,-201.74 1627,36 -36,36"/>
<text text-anchor="middle" x="795.5" y="-150.54" font-family="Helvetica,sans-Serif" font-size="14.00">Sweep&#39;s Plan &amp; Progress</text>
<!-- start -->
<g id="node1" class="node">
<title>start</title>
</g>
<!-- a2f23124&#45;c57c&#45;4c05&#45;8682&#45;42180ee8c85d -->
<g id="node3" class="node">
<title>a2f23124&#45;c57c&#45;4c05&#45;8682&#45;42180ee8c85d</title>
<ellipse fill="#ee0000" stroke="black" cx="233" cy="-99.87" rx="120.42" ry="26.74"/>
<text text-anchor="middle" x="233" y="-103.67" font-family="Helvetica,sans-Serif" font-size="14.00">✗ Modify</text>
<text text-anchor="middle" x="233" y="-88.67" font-family="Helvetica,sans-Serif" font-size="14.00">gui_data/constants.py</text>
</g>
<!-- start&#45;&gt;a2f23124&#45;c57c&#45;4c05&#45;8682&#45;42180ee8c85d -->
<g id="edge8" class="edge">
<title>start&#45;&gt;a2f23124&#45;c57c&#45;4c05&#45;8682&#45;42180ee8c85d</title>
<path fill="none" stroke="black" d="M61.77,-99.87C65.4,-99.87 81.61,-99.87 102.71,-99.87"/>
<polygon fill="black" stroke="black" points="102.72,-103.37 112.72,-99.87 102.72,-96.37 102.72,-103.37"/>
<text text-anchor="middle" x="87.15" y="-106.67" font-family="Helvetica,sans-Serif" font-size="14.00">Start</text>
</g>
<!-- end -->
<g id="node2" class="node">
<title>end</title>
</g>
<!-- d07eb326&#45;5213&#45;4bc2&#45;9815&#45;f9e796b2325b -->
<g id="node4" class="node">
<title>d07eb326&#45;5213&#45;4bc2&#45;9815&#45;f9e796b2325b</title>
<ellipse fill="#ee0000" stroke="black" cx="560" cy="-99.87" rx="118.17" ry="26.74"/>
<text text-anchor="middle" x="560" y="-103.67" font-family="Helvetica,sans-Serif" font-size="14.00">✗ Modify</text>
<text text-anchor="middle" x="560" y="-88.67" font-family="Helvetica,sans-Serif" font-size="14.00">demucs/htdemucs.py</text>
</g>
<!-- a2f23124&#45;c57c&#45;4c05&#45;8682&#45;42180ee8c85d&#45;&gt;d07eb326&#45;5213&#45;4bc2&#45;9815&#45;f9e796b2325b -->
<g id="edge2" class="edge">
<title>a2f23124&#45;c57c&#45;4c05&#45;8682&#45;42180ee8c85d&#45;&gt;d07eb326&#45;5213&#45;4bc2&#45;9815&#45;f9e796b2325b</title>
<path fill="none" stroke="black" d="M353.39,-99.87C379.51,-99.87 405.63,-99.87 431.75,-99.87"/>
<polygon fill="black" stroke="black" points="431.76,-103.37 441.76,-99.87 431.76,-96.37 431.76,-103.37"/>
</g>
<!-- 8f203417&#45;c922&#45;4576&#45;89c5&#45;eb0311b6b1b9 -->
<g id="node7" class="node">
<title>8f203417&#45;c922&#45;4576&#45;89c5&#45;eb0311b6b1b9</title>
<polygon fill="#ee0000" stroke="black" points="362,-36 0,-36 0,0 362,0 362,-36"/>
<text text-anchor="middle" x="181" y="-14.3" font-family="Helvetica,sans-Serif" font-size="14.00">✗ Run GitHub Actions for `gui_data/constants.py`</text>
</g>
<!-- a2f23124&#45;c57c&#45;4c05&#45;8682&#45;42180ee8c85d&#45;&gt;8f203417&#45;c922&#45;4576&#45;89c5&#45;eb0311b6b1b9 -->
<g id="edge1" class="edge">
<title>a2f23124&#45;c57c&#45;4c05&#45;8682&#45;42180ee8c85d&#45;&gt;8f203417&#45;c922&#45;4576&#45;89c5&#45;eb0311b6b1b9</title>
<path fill="none" stroke="black" stroke-dasharray="5,2" d="M216.26,-73.16C210.38,-64.13 203.78,-53.98 197.89,-44.94"/>
<polygon fill="black" stroke="black" points="200.68,-42.81 192.29,-36.34 194.81,-46.63 200.68,-42.81"/>
</g>
<!-- 426af5a8&#45;61a2&#45;4c8f&#45;8852&#45;076d4226b885 -->
<g id="node5" class="node">
<title>426af5a8&#45;61a2&#45;4c8f&#45;8852&#45;076d4226b885</title>
<ellipse fill="#ee0000" stroke="black" cx="987" cy="-99.87" rx="188.18" ry="26.74"/>
<text text-anchor="middle" x="987" y="-103.67" font-family="Helvetica,sans-Serif" font-size="14.00">✗ Modify</text>
<text text-anchor="middle" x="987" y="-88.67" font-family="Helvetica,sans-Serif" font-size="14.00">gui_data/tkinterdnd2/TkinterDnD.py</text>
</g>
<!-- d07eb326&#45;5213&#45;4bc2&#45;9815&#45;f9e796b2325b&#45;&gt;426af5a8&#45;61a2&#45;4c8f&#45;8852&#45;076d4226b885 -->
<g id="edge4" class="edge">
<title>d07eb326&#45;5213&#45;4bc2&#45;9815&#45;f9e796b2325b&#45;&gt;426af5a8&#45;61a2&#45;4c8f&#45;8852&#45;076d4226b885</title>
<path fill="none" stroke="black" d="M678.43,-99.87C715.06,-99.87 751.69,-99.87 788.33,-99.87"/>
<polygon fill="black" stroke="black" points="788.66,-103.37 798.66,-99.87 788.66,-96.37 788.66,-103.37"/>
</g>
<!-- a39e0498&#45;0be5&#45;4d49&#45;b89b&#45;012da45b9710 -->
<g id="node8" class="node">
<title>a39e0498&#45;0be5&#45;4d49&#45;b89b&#45;012da45b9710</title>
<polygon fill="#ee0000" stroke="black" points="739.5,-36 380.5,-36 380.5,0 739.5,0 739.5,-36"/>
<text text-anchor="middle" x="560" y="-14.3" font-family="Helvetica,sans-Serif" font-size="14.00">✗ Run GitHub Actions for `demucs/htdemucs.py`</text>
</g>
<!-- d07eb326&#45;5213&#45;4bc2&#45;9815&#45;f9e796b2325b&#45;&gt;a39e0498&#45;0be5&#45;4d49&#45;b89b&#45;012da45b9710 -->
<g id="edge3" class="edge">
<title>d07eb326&#45;5213&#45;4bc2&#45;9815&#45;f9e796b2325b&#45;&gt;a39e0498&#45;0be5&#45;4d49&#45;b89b&#45;012da45b9710</title>
<path fill="none" stroke="black" stroke-dasharray="5,2" d="M560,-72.72C560,-64.27 560,-54.89 560,-46.36"/>
<polygon fill="black" stroke="black" points="563.5,-46.15 560,-36.15 556.5,-46.15 563.5,-46.15"/>
</g>
<!-- d6bada5a&#45;5df4&#45;4420&#45;8bc9&#45;65b25c07d912 -->
<g id="node6" class="node">
<title>d6bada5a&#45;5df4&#45;4420&#45;8bc9&#45;65b25c07d912</title>
<ellipse fill="#ee0000" stroke="black" cx="1369" cy="-99.87" rx="113.69" ry="26.74"/>
<text text-anchor="middle" x="1369" y="-103.67" font-family="Helvetica,sans-Serif" font-size="14.00">✗ Modify</text>
<text text-anchor="middle" x="1369" y="-88.67" font-family="Helvetica,sans-Serif" font-size="14.00">demucs/hdemucs.py</text>
</g>
<!-- 426af5a8&#45;61a2&#45;4c8f&#45;8852&#45;076d4226b885&#45;&gt;d6bada5a&#45;5df4&#45;4420&#45;8bc9&#45;65b25c07d912 -->
<g id="edge6" class="edge">
<title>426af5a8&#45;61a2&#45;4c8f&#45;8852&#45;076d4226b885&#45;&gt;d6bada5a&#45;5df4&#45;4420&#45;8bc9&#45;65b25c07d912</title>
<path fill="none" stroke="black" d="M1175.39,-99.87C1198.45,-99.87 1221.5,-99.87 1244.56,-99.87"/>
<polygon fill="black" stroke="black" points="1244.8,-103.37 1254.8,-99.87 1244.8,-96.37 1244.8,-103.37"/>
</g>
<!-- cd472f62&#45;e0ef&#45;48da&#45;a33a&#45;b7cb95810fe7 -->
<g id="node9" class="node">
<title>cd472f62&#45;e0ef&#45;48da&#45;a33a&#45;b7cb95810fe7</title>
<polygon fill="#ee0000" stroke="black" points="1216.5,-36 757.5,-36 757.5,0 1216.5,0 1216.5,-36"/>
<text text-anchor="middle" x="987" y="-14.3" font-family="Helvetica,sans-Serif" font-size="14.00">✗ Run GitHub Actions for `gui_data/tkinterdnd2/TkinterDnD.py`</text>
</g>
<!-- 426af5a8&#45;61a2&#45;4c8f&#45;8852&#45;076d4226b885&#45;&gt;cd472f62&#45;e0ef&#45;48da&#45;a33a&#45;b7cb95810fe7 -->
<g id="edge5" class="edge">
<title>426af5a8&#45;61a2&#45;4c8f&#45;8852&#45;076d4226b885&#45;&gt;cd472f62&#45;e0ef&#45;48da&#45;a33a&#45;b7cb95810fe7</title>
<path fill="none" stroke="black" stroke-dasharray="5,2" d="M987,-72.72C987,-64.27 987,-54.89 987,-46.36"/>
<polygon fill="black" stroke="black" points="990.5,-46.15 987,-36.15 983.5,-46.15 990.5,-46.15"/>
</g>
<!-- d6bada5a&#45;5df4&#45;4420&#45;8bc9&#45;65b25c07d912&#45;&gt;end -->
<g id="edge9" class="edge">
<title>d6bada5a&#45;5df4&#45;4420&#45;8bc9&#45;65b25c07d912&#45;&gt;end</title>
<path fill="none" stroke="black" d="M1483.25,-99.87C1502.59,-99.87 1519.79,-99.87 1530.28,-99.87"/>
<polygon fill="black" stroke="black" points="1530.33,-103.37 1540.33,-99.87 1530.33,-96.37 1530.33,-103.37"/>
<text text-anchor="middle" x="1511.67" y="-106.67" font-family="Helvetica,sans-Serif" font-size="14.00">Finish</text>
</g>
<!-- 66abe1c1&#45;f765&#45;435a&#45;8009&#45;094f13b19c32 -->
<g id="node10" class="node">
<title>66abe1c1&#45;f765&#45;435a&#45;8009&#45;094f13b19c32</title>
<polygon fill="yellow" stroke="black" points="1591,-36 1235,-36 1235,0 1591,0 1591,-36"/>
<text text-anchor="middle" x="1413" y="-14.3" font-family="Helvetica,sans-Serif" font-size="14.00">⋯ Run GitHub Actions for `demucs/hdemucs.py`</text>
</g>
<!-- d6bada5a&#45;5df4&#45;4420&#45;8bc9&#45;65b25c07d912&#45;&gt;66abe1c1&#45;f765&#45;435a&#45;8009&#45;094f13b19c32 -->
<g id="edge7" class="edge">
<title>d6bada5a&#45;5df4&#45;4420&#45;8bc9&#45;65b25c07d912&#45;&gt;66abe1c1&#45;f765&#45;435a&#45;8009&#45;094f13b19c32</title>
<path fill="none" stroke="black" stroke-dasharray="5,2" d="M1383.16,-73.16C1388.09,-64.22 1393.61,-54.2 1398.56,-45.22"/>
<polygon fill="black" stroke="black" points="1401.69,-46.78 1403.45,-36.34 1395.56,-43.41 1401.69,-46.78"/>
</g>
</g>
</svg>
