<?xml version="1.0" encoding="UTF-8" standalone="no"?>
<!DOCTYPE svg PUBLIC "-//W3C//DTD SVG 1.1//EN"
 "http://www.w3.org/Graphics/SVG/1.1/DTD/svg11.dtd">
<!-- Generated by graphviz version 2.43.0 (0)
 -->
<!-- Title: %3 Pages: 1 -->
<svg width="1108pt" height="165pt"
 viewBox="0.00 0.00 1108.00 164.74" xmlns="http://www.w3.org/2000/svg" xmlns:xlink="http://www.w3.org/1999/xlink">
<g id="graph0" class="graph" transform="scale(1 1) rotate(0) translate(36 128.74)">
<title>%3</title>
<polygon fill="dimgray" stroke="transparent" points="-36,36 -36,-128.74 1072,-128.74 1072,36 -36,36"/>
<text text-anchor="middle" x="518" y="-77.54" font-family="Helvetica,sans-Serif" font-size="14.00">Sweep&#39;s Plan &amp; Progress</text>
<!-- start -->
<g id="node1" class="node">
<title>start</title>
</g>
<!-- d21c3582&#45;4e5b&#45;4a96&#45;8904&#45;6b84f32fc660 -->
<g id="node3" class="node">
<title>d21c3582&#45;4e5b&#45;4a96&#45;8904&#45;6b84f32fc660</title>
<ellipse fill="#0ee832" stroke="black" cx="268.5" cy="-26.87" rx="216.25" ry="26.74"/>
<text text-anchor="middle" x="268.5" y="-30.67" font-family="Helvetica,sans-Serif" font-size="14.00">✓ Create</text>
<text text-anchor="middle" x="268.5" y="-15.67" font-family="Helvetica,sans-Serif" font-size="14.00">gui_data/wxpython_dnd/wxPythonDnD.py</text>
</g>
<!-- start&#45;&gt;d21c3582&#45;4e5b&#45;4a96&#45;8904&#45;6b84f32fc660 -->
<g id="edge3" class="edge">
<title>start&#45;&gt;d21c3582&#45;4e5b&#45;4a96&#45;8904&#45;6b84f32fc660</title>
<path fill="none" stroke="black" d="M1.27,-26.87C4.8,-26.87 20.22,-26.87 42.02,-26.87"/>
<polygon fill="black" stroke="black" points="42.09,-30.37 52.09,-26.87 42.09,-23.37 42.09,-30.37"/>
<text text-anchor="middle" x="26.56" y="-33.67" font-family="Helvetica,sans-Serif" font-size="14.00">Start</text>
</g>
<!-- end -->
<g id="node2" class="node">
<title>end</title>
</g>
<!-- 0ff82d1f&#45;29a6&#45;4dd0&#45;9415&#45;635e5c947f4d -->
<g id="node4" class="node">
<title>0ff82d1f&#45;29a6&#45;4dd0&#45;9415&#45;635e5c947f4d</title>
<ellipse fill="#0ee832" stroke="black" cx="674.5" cy="-26.87" rx="154.3" ry="26.74"/>
<text text-anchor="middle" x="674.5" y="-30.67" font-family="Helvetica,sans-Serif" font-size="14.00">✓ Create</text>
<text text-anchor="middle" x="674.5" y="-15.67" font-family="Helvetica,sans-Serif" font-size="14.00">gui_data/wxpython_styles.py</text>
</g>
<!-- d21c3582&#45;4e5b&#45;4a96&#45;8904&#45;6b84f32fc660&#45;&gt;0ff82d1f&#45;29a6&#45;4dd0&#45;9415&#45;635e5c947f4d -->
<g id="edge1" class="edge">
<title>d21c3582&#45;4e5b&#45;4a96&#45;8904&#45;6b84f32fc660&#45;&gt;0ff82d1f&#45;29a6&#45;4dd0&#45;9415&#45;635e5c947f4d</title>
<path fill="none" stroke="black" d="M484.98,-26.87C493.31,-26.87 501.65,-26.87 509.98,-26.87"/>
<polygon fill="black" stroke="black" points="510.15,-30.37 520.15,-26.87 510.15,-23.37 510.15,-30.37"/>
</g>
<!-- eccc924e&#45;97a8&#45;4620&#45;a995&#45;7bc4981c55c3 -->
<g id="node5" class="node">
<title>eccc924e&#45;97a8&#45;4620&#45;a995&#45;7bc4981c55c3</title>
<ellipse fill="yellow" stroke="black" cx="920.5" cy="-26.87" rx="56.64" ry="26.74"/>
<text text-anchor="middle" x="920.5" y="-30.67" font-family="Helvetica,sans-Serif" font-size="14.00">⋯ Create</text>
<text text-anchor="middle" x="920.5" y="-15.67" font-family="Helvetica,sans-Serif" font-size="14.00">uvr.py</text>
</g>
<!-- 0ff82d1f&#45;29a6&#45;4dd0&#45;9415&#45;635e5c947f4d&#45;&gt;eccc924e&#45;97a8&#45;4620&#45;a995&#45;7bc4981c55c3 -->
<g id="edge2" class="edge">
<title>0ff82d1f&#45;29a6&#45;4dd0&#45;9415&#45;635e5c947f4d&#45;&gt;eccc924e&#45;97a8&#45;4620&#45;a995&#45;7bc4981c55c3</title>
<path fill="none" stroke="black" d="M828.73,-26.87C837.06,-26.87 845.38,-26.87 853.71,-26.87"/>
<polygon fill="black" stroke="black" points="853.86,-30.37 863.86,-26.87 853.86,-23.37 853.86,-30.37"/>
</g>
<!-- eccc924e&#45;97a8&#45;4620&#45;a995&#45;7bc4981c55c3&#45;&gt;end -->
<g id="edge4" class="edge">
<title>eccc924e&#45;97a8&#45;4620&#45;a995&#45;7bc4981c55c3&#45;&gt;end</title>
<path fill="none" stroke="black" d="M977.33,-26.87C995.38,-26.87 1013.52,-26.87 1024.63,-26.87"/>
<polygon fill="black" stroke="black" points="1024.75,-30.37 1034.75,-26.87 1024.75,-23.37 1024.75,-30.37"/>
<text text-anchor="middle" x="1006.03" y="-33.67" font-family="Helvetica,sans-Serif" font-size="14.00">Finish</text>
</g>
</g>
</svg>
