<?xml version="1.0" encoding="UTF-8" standalone="no"?>
<!DOCTYPE svg PUBLIC "-//W3C//DTD SVG 1.1//EN"
 "http://www.w3.org/Graphics/SVG/1.1/DTD/svg11.dtd">
<!-- Generated by graphviz version 2.43.0 (0)
 -->
<!-- Title: %3 Pages: 1 -->
<svg width="1661pt" height="238pt"
 viewBox="0.00 0.00 1661.00 237.74" xmlns="http://www.w3.org/2000/svg" xmlns:xlink="http://www.w3.org/1999/xlink">
<g id="graph0" class="graph" transform="scale(1 1) rotate(0) translate(36 201.74)">
<title>%3</title>
<polygon fill="dimgray" stroke="transparent" points="-36,36 -36,-201.74 1625,-201.74 1625,36 -36,36"/>
<text text-anchor="middle" x="794.5" y="-150.54" font-family="Helvetica,sans-Serif" font-size="14.00">Sweep&#39;s Plan &amp; Progress</text>
<!-- start -->
<g id="node1" class="node">
<title>start</title>
</g>
<!-- f7ce1f60&#45;aa2e&#45;483e&#45;9c03&#45;4d2908e1760a -->
<g id="node3" class="node">
<title>f7ce1f60&#45;aa2e&#45;483e&#45;9c03&#45;4d2908e1760a</title>
<ellipse fill="#ee0000" stroke="black" cx="235" cy="-99.87" rx="118.17" ry="26.74"/>
<text text-anchor="middle" x="235" y="-103.67" font-family="Helvetica,sans-Serif" font-size="14.00">✗ Modify</text>
<text text-anchor="middle" x="235" y="-88.67" font-family="Helvetica,sans-Serif" font-size="14.00">demucs/htdemucs.py</text>
</g>
<!-- start&#45;&gt;f7ce1f60&#45;aa2e&#45;483e&#45;9c03&#45;4d2908e1760a -->
<g id="edge8" class="edge">
<title>start&#45;&gt;f7ce1f60&#45;aa2e&#45;483e&#45;9c03&#45;4d2908e1760a</title>
<path fill="none" stroke="black" d="M65.76,-99.87C69.36,-99.87 85.41,-99.87 106.3,-99.87"/>
<polygon fill="black" stroke="black" points="106.56,-103.37 116.56,-99.87 106.56,-96.37 106.56,-103.37"/>
<text text-anchor="middle" x="91.21" y="-106.67" font-family="Helvetica,sans-Serif" font-size="14.00">Start</text>
</g>
<!-- end -->
<g id="node2" class="node">
<title>end</title>
</g>
<!-- 681e51c5&#45;3175&#45;47aa&#45;9ef3&#45;6f5cb708404d -->
<g id="node4" class="node">
<title>681e51c5&#45;3175&#45;47aa&#45;9ef3&#45;6f5cb708404d</title>
<ellipse fill="white" stroke="black" cx="557" cy="-99.87" rx="113.69" ry="26.74"/>
<text text-anchor="middle" x="557" y="-103.67" font-family="Helvetica,sans-Serif" font-size="14.00">▶ Modify</text>
<text text-anchor="middle" x="557" y="-88.67" font-family="Helvetica,sans-Serif" font-size="14.00">demucs/hdemucs.py</text>
</g>
<!-- f7ce1f60&#45;aa2e&#45;483e&#45;9c03&#45;4d2908e1760a&#45;&gt;681e51c5&#45;3175&#45;47aa&#45;9ef3&#45;6f5cb708404d -->
<g id="edge2" class="edge">
<title>f7ce1f60&#45;aa2e&#45;483e&#45;9c03&#45;4d2908e1760a&#45;&gt;681e51c5&#45;3175&#45;47aa&#45;9ef3&#45;6f5cb708404d</title>
<path fill="none" stroke="black" d="M353.23,-99.87C379.7,-99.87 406.17,-99.87 432.64,-99.87"/>
<polygon fill="black" stroke="black" points="432.78,-103.37 442.78,-99.87 432.78,-96.37 432.78,-103.37"/>
</g>
<!-- 72cb9701&#45;238d&#45;4d06&#45;9766&#45;014c5edc8c92 -->
<g id="node7" class="node">
<title>72cb9701&#45;238d&#45;4d06&#45;9766&#45;014c5edc8c92</title>
<polygon fill="yellow" stroke="black" points="362,-36 0,-36 0,0 362,0 362,-36"/>
<text text-anchor="middle" x="181" y="-14.3" font-family="Helvetica,sans-Serif" font-size="14.00">⋯ Run GitHub Actions for `demucs/htdemucs.py`</text>
</g>
<!-- f7ce1f60&#45;aa2e&#45;483e&#45;9c03&#45;4d2908e1760a&#45;&gt;72cb9701&#45;238d&#45;4d06&#45;9766&#45;014c5edc8c92 -->
<g id="edge1" class="edge">
<title>f7ce1f60&#45;aa2e&#45;483e&#45;9c03&#45;4d2908e1760a&#45;&gt;72cb9701&#45;238d&#45;4d06&#45;9766&#45;014c5edc8c92</title>
<path fill="none" stroke="black" stroke-dasharray="5,2" d="M217.62,-73.16C211.45,-64.04 204.51,-53.77 198.34,-44.65"/>
<polygon fill="black" stroke="black" points="201.22,-42.66 192.72,-36.34 195.42,-46.58 201.22,-42.66"/>
</g>
<!-- 1503fe1b&#45;0d75&#45;416e&#45;9083&#45;15f7ec4b0e3d -->
<g id="node5" class="node">
<title>1503fe1b&#45;0d75&#45;416e&#45;9083&#45;15f7ec4b0e3d</title>
<ellipse fill="white" stroke="black" cx="932" cy="-99.87" rx="120.42" ry="26.74"/>
<text text-anchor="middle" x="932" y="-103.67" font-family="Helvetica,sans-Serif" font-size="14.00">▶ Modify</text>
<text text-anchor="middle" x="932" y="-88.67" font-family="Helvetica,sans-Serif" font-size="14.00">gui_data/constants.py</text>
</g>
<!-- 681e51c5&#45;3175&#45;47aa&#45;9ef3&#45;6f5cb708404d&#45;&gt;1503fe1b&#45;0d75&#45;416e&#45;9083&#45;15f7ec4b0e3d -->
<g id="edge4" class="edge">
<title>681e51c5&#45;3175&#45;47aa&#45;9ef3&#45;6f5cb708404d&#45;&gt;1503fe1b&#45;0d75&#45;416e&#45;9083&#45;15f7ec4b0e3d</title>
<path fill="none" stroke="black" d="M670.89,-99.87C714.42,-99.87 757.95,-99.87 801.47,-99.87"/>
<polygon fill="black" stroke="black" points="801.65,-103.37 811.65,-99.87 801.65,-96.37 801.65,-103.37"/>
</g>
<!-- 555e5adf&#45;1f7a&#45;4663&#45;9ed6&#45;ffae17706084 -->
<g id="node8" class="node">
<title>555e5adf&#45;1f7a&#45;4663&#45;9ed6&#45;ffae17706084</title>
<polygon fill="white" stroke="black" points="733.5,-36 380.5,-36 380.5,0 733.5,0 733.5,-36"/>
<text text-anchor="middle" x="557" y="-14.3" font-family="Helvetica,sans-Serif" font-size="14.00">▶ Run GitHub Actions for `demucs/hdemucs.py`</text>
</g>
<!-- 681e51c5&#45;3175&#45;47aa&#45;9ef3&#45;6f5cb708404d&#45;&gt;555e5adf&#45;1f7a&#45;4663&#45;9ed6&#45;ffae17706084 -->
<g id="edge3" class="edge">
<title>681e51c5&#45;3175&#45;47aa&#45;9ef3&#45;6f5cb708404d&#45;&gt;555e5adf&#45;1f7a&#45;4663&#45;9ed6&#45;ffae17706084</title>
<path fill="none" stroke="black" stroke-dasharray="5,2" d="M557,-72.72C557,-64.27 557,-54.89 557,-46.36"/>
<polygon fill="black" stroke="black" points="560.5,-46.15 557,-36.15 553.5,-46.15 560.5,-46.15"/>
</g>
<!-- cd488feb&#45;0318&#45;4a1f&#45;9509&#45;82514a97b2f0 -->
<g id="node6" class="node">
<title>cd488feb&#45;0318&#45;4a1f&#45;9509&#45;82514a97b2f0</title>
<ellipse fill="white" stroke="black" cx="1318" cy="-99.87" rx="188.18" ry="26.74"/>
<text text-anchor="middle" x="1318" y="-103.67" font-family="Helvetica,sans-Serif" font-size="14.00">▶ Modify</text>
<text text-anchor="middle" x="1318" y="-88.67" font-family="Helvetica,sans-Serif" font-size="14.00">gui_data/tkinterdnd2/TkinterDnD.py</text>
</g>
<!-- 1503fe1b&#45;0d75&#45;416e&#45;9083&#45;15f7ec4b0e3d&#45;&gt;cd488feb&#45;0318&#45;4a1f&#45;9509&#45;82514a97b2f0 -->
<g id="edge6" class="edge">
<title>1503fe1b&#45;0d75&#45;416e&#45;9083&#45;15f7ec4b0e3d&#45;&gt;cd488feb&#45;0318&#45;4a1f&#45;9509&#45;82514a97b2f0</title>
<path fill="none" stroke="black" d="M1052.25,-99.87C1074.78,-99.87 1097.31,-99.87 1119.84,-99.87"/>
<polygon fill="black" stroke="black" points="1119.85,-103.37 1129.85,-99.87 1119.85,-96.37 1119.85,-103.37"/>
</g>
<!-- b88848b3&#45;0f7d&#45;495c&#45;83dc&#45;9fb36af76563 -->
<g id="node9" class="node">
<title>b88848b3&#45;0f7d&#45;495c&#45;83dc&#45;9fb36af76563</title>
<polygon fill="white" stroke="black" points="1112.5,-36 751.5,-36 751.5,0 1112.5,0 1112.5,-36"/>
<text text-anchor="middle" x="932" y="-14.3" font-family="Helvetica,sans-Serif" font-size="14.00">▶ Run GitHub Actions for `gui_data/constants.py`</text>
</g>
<!-- 1503fe1b&#45;0d75&#45;416e&#45;9083&#45;15f7ec4b0e3d&#45;&gt;b88848b3&#45;0f7d&#45;495c&#45;83dc&#45;9fb36af76563 -->
<g id="edge5" class="edge">
<title>1503fe1b&#45;0d75&#45;416e&#45;9083&#45;15f7ec4b0e3d&#45;&gt;b88848b3&#45;0f7d&#45;495c&#45;83dc&#45;9fb36af76563</title>
<path fill="none" stroke="black" stroke-dasharray="5,2" d="M932,-72.72C932,-64.27 932,-54.89 932,-46.36"/>
<polygon fill="black" stroke="black" points="935.5,-46.15 932,-36.15 928.5,-46.15 935.5,-46.15"/>
</g>
<!-- cd488feb&#45;0318&#45;4a1f&#45;9509&#45;82514a97b2f0&#45;&gt;end -->
<g id="edge9" class="edge">
<title>cd488feb&#45;0318&#45;4a1f&#45;9509&#45;82514a97b2f0&#45;&gt;end</title>
<path fill="none" stroke="black" d="M1506.32,-99.87C1526.16,-99.87 1542.8,-99.87 1553.03,-99.87"/>
<polygon fill="black" stroke="black" points="1553.37,-103.37 1563.37,-99.87 1553.37,-96.37 1553.37,-103.37"/>
<text text-anchor="middle" x="1534.8" y="-106.67" font-family="Helvetica,sans-Serif" font-size="14.00">Finish</text>
</g>
<!-- 9e30d20f&#45;3b64&#45;4002&#45;ba91&#45;f27e8d959223 -->
<g id="node10" class="node">
<title>9e30d20f&#45;3b64&#45;4002&#45;ba91&#45;f27e8d959223</title>
<polygon fill="white" stroke="black" points="1589,-36 1131,-36 1131,0 1589,0 1589,-36"/>
<text text-anchor="middle" x="1360" y="-14.3" font-family="Helvetica,sans-Serif" font-size="14.00">▶ Run GitHub Actions for `gui_data/tkinterdnd2/TkinterDnD.py`</text>
</g>
<!-- cd488feb&#45;0318&#45;4a1f&#45;9509&#45;82514a97b2f0&#45;&gt;9e30d20f&#45;3b64&#45;4002&#45;ba91&#45;f27e8d959223 -->
<g id="edge7" class="edge">
<title>cd488feb&#45;0318&#45;4a1f&#45;9509&#45;82514a97b2f0&#45;&gt;9e30d20f&#45;3b64&#45;4002&#45;ba91&#45;f27e8d959223</title>
<path fill="none" stroke="black" stroke-dasharray="5,2" d="M1331.75,-72.72C1336.39,-63.9 1341.57,-54.05 1346.21,-45.23"/>
<polygon fill="black" stroke="black" points="1349.43,-46.63 1350.98,-36.15 1343.23,-43.37 1349.43,-46.63"/>
</g>
</g>
</svg>
