<?xml version="1.0" encoding="UTF-8" standalone="no"?>
<!DOCTYPE svg PUBLIC "-//W3C//DTD SVG 1.1//EN"
 "http://www.w3.org/Graphics/SVG/1.1/DTD/svg11.dtd">
<!-- Generated by graphviz version 2.43.0 (0)
 -->
<!-- Title: %3 Pages: 1 -->
<svg width="1657pt" height="238pt"
 viewBox="0.00 0.00 1657.00 237.74" xmlns="http://www.w3.org/2000/svg" xmlns:xlink="http://www.w3.org/1999/xlink">
<g id="graph0" class="graph" transform="scale(1 1) rotate(0) translate(36 201.74)">
<title>%3</title>
<polygon fill="dimgray" stroke="transparent" points="-36,36 -36,-201.74 1621,-201.74 1621,36 -36,36"/>
<text text-anchor="middle" x="792.5" y="-150.54" font-family="Helvetica,sans-Serif" font-size="14.00">Sweep&#39;s Plan &amp; Progress</text>
<!-- start -->
<g id="node1" class="node">
<title>start</title>
</g>
<!-- a2f23124&#45;c57c&#45;4c05&#45;8682&#45;42180ee8c85d -->
<g id="node3" class="node">
<title>a2f23124&#45;c57c&#45;4c05&#45;8682&#45;42180ee8c85d</title>
<ellipse fill="yellow" stroke="black" cx="232.5" cy="-99.87" rx="120.42" ry="26.74"/>
<text text-anchor="middle" x="232.5" y="-103.67" font-family="Helvetica,sans-Serif" font-size="14.00">⋯ Modify</text>
<text text-anchor="middle" x="232.5" y="-88.67" font-family="Helvetica,sans-Serif" font-size="14.00">gui_data/constants.py</text>
</g>
<!-- start&#45;&gt;a2f23124&#45;c57c&#45;4c05&#45;8682&#45;42180ee8c85d -->
<g id="edge8" class="edge">
<title>start&#45;&gt;a2f23124&#45;c57c&#45;4c05&#45;8682&#45;42180ee8c85d</title>
<path fill="none" stroke="black" d="M61.27,-99.87C64.9,-99.87 81.11,-99.87 102.21,-99.87"/>
<polygon fill="black" stroke="black" points="102.22,-103.37 112.22,-99.87 102.22,-96.37 102.22,-103.37"/>
<text text-anchor="middle" x="86.65" y="-106.67" font-family="Helvetica,sans-Serif" font-size="14.00">Start</text>
</g>
<!-- end -->
<g id="node2" class="node">
<title>end</title>
</g>
<!-- d07eb326&#45;5213&#45;4bc2&#45;9815&#45;f9e796b2325b -->
<g id="node4" class="node">
<title>d07eb326&#45;5213&#45;4bc2&#45;9815&#45;f9e796b2325b</title>
<ellipse fill="white" stroke="black" cx="558.5" cy="-99.87" rx="118.17" ry="26.74"/>
<text text-anchor="middle" x="558.5" y="-103.67" font-family="Helvetica,sans-Serif" font-size="14.00">▶ Modify</text>
<text text-anchor="middle" x="558.5" y="-88.67" font-family="Helvetica,sans-Serif" font-size="14.00">demucs/htdemucs.py</text>
</g>
<!-- a2f23124&#45;c57c&#45;4c05&#45;8682&#45;42180ee8c85d&#45;&gt;d07eb326&#45;5213&#45;4bc2&#45;9815&#45;f9e796b2325b -->
<g id="edge2" class="edge">
<title>a2f23124&#45;c57c&#45;4c05&#45;8682&#45;42180ee8c85d&#45;&gt;d07eb326&#45;5213&#45;4bc2&#45;9815&#45;f9e796b2325b</title>
<path fill="none" stroke="black" d="M352.84,-99.87C378.61,-99.87 404.38,-99.87 430.14,-99.87"/>
<polygon fill="black" stroke="black" points="430.41,-103.37 440.41,-99.87 430.41,-96.37 430.41,-103.37"/>
</g>
<!-- 8f203417&#45;c922&#45;4576&#45;89c5&#45;eb0311b6b1b9 -->
<g id="node7" class="node">
<title>8f203417&#45;c922&#45;4576&#45;89c5&#45;eb0311b6b1b9</title>
<polygon fill="white" stroke="black" points="361,-36 0,-36 0,0 361,0 361,-36"/>
<text text-anchor="middle" x="180.5" y="-14.3" font-family="Helvetica,sans-Serif" font-size="14.00">▶ Run GitHub Actions for `gui_data/constants.py`</text>
</g>
<!-- a2f23124&#45;c57c&#45;4c05&#45;8682&#45;42180ee8c85d&#45;&gt;8f203417&#45;c922&#45;4576&#45;89c5&#45;eb0311b6b1b9 -->
<g id="edge1" class="edge">
<title>a2f23124&#45;c57c&#45;4c05&#45;8682&#45;42180ee8c85d&#45;&gt;8f203417&#45;c922&#45;4576&#45;89c5&#45;eb0311b6b1b9</title>
<path fill="none" stroke="black" stroke-dasharray="5,2" d="M215.76,-73.16C209.88,-64.13 203.28,-53.98 197.39,-44.94"/>
<polygon fill="black" stroke="black" points="200.18,-42.81 191.79,-36.34 194.31,-46.63 200.18,-42.81"/>
</g>
<!-- 426af5a8&#45;61a2&#45;4c8f&#45;8852&#45;076d4226b885 -->
<g id="node5" class="node">
<title>426af5a8&#45;61a2&#45;4c8f&#45;8852&#45;076d4226b885</title>
<ellipse fill="white" stroke="black" cx="984.5" cy="-99.87" rx="188.18" ry="26.74"/>
<text text-anchor="middle" x="984.5" y="-103.67" font-family="Helvetica,sans-Serif" font-size="14.00">▶ Modify</text>
<text text-anchor="middle" x="984.5" y="-88.67" font-family="Helvetica,sans-Serif" font-size="14.00">gui_data/tkinterdnd2/TkinterDnD.py</text>
</g>
<!-- d07eb326&#45;5213&#45;4bc2&#45;9815&#45;f9e796b2325b&#45;&gt;426af5a8&#45;61a2&#45;4c8f&#45;8852&#45;076d4226b885 -->
<g id="edge4" class="edge">
<title>d07eb326&#45;5213&#45;4bc2&#45;9815&#45;f9e796b2325b&#45;&gt;426af5a8&#45;61a2&#45;4c8f&#45;8852&#45;076d4226b885</title>
<path fill="none" stroke="black" d="M676.65,-99.87C713.11,-99.87 749.56,-99.87 786.02,-99.87"/>
<polygon fill="black" stroke="black" points="786.3,-103.37 796.3,-99.87 786.3,-96.37 786.3,-103.37"/>
</g>
<!-- a39e0498&#45;0be5&#45;4d49&#45;b89b&#45;012da45b9710 -->
<g id="node8" class="node">
<title>a39e0498&#45;0be5&#45;4d49&#45;b89b&#45;012da45b9710</title>
<polygon fill="white" stroke="black" points="737.5,-36 379.5,-36 379.5,0 737.5,0 737.5,-36"/>
<text text-anchor="middle" x="558.5" y="-14.3" font-family="Helvetica,sans-Serif" font-size="14.00">▶ Run GitHub Actions for `demucs/htdemucs.py`</text>
</g>
<!-- d07eb326&#45;5213&#45;4bc2&#45;9815&#45;f9e796b2325b&#45;&gt;a39e0498&#45;0be5&#45;4d49&#45;b89b&#45;012da45b9710 -->
<g id="edge3" class="edge">
<title>d07eb326&#45;5213&#45;4bc2&#45;9815&#45;f9e796b2325b&#45;&gt;a39e0498&#45;0be5&#45;4d49&#45;b89b&#45;012da45b9710</title>
<path fill="none" stroke="black" stroke-dasharray="5,2" d="M558.5,-72.72C558.5,-64.27 558.5,-54.89 558.5,-46.36"/>
<polygon fill="black" stroke="black" points="562,-46.15 558.5,-36.15 555,-46.15 562,-46.15"/>
</g>
<!-- d6bada5a&#45;5df4&#45;4420&#45;8bc9&#45;65b25c07d912 -->
<g id="node6" class="node">
<title>d6bada5a&#45;5df4&#45;4420&#45;8bc9&#45;65b25c07d912</title>
<ellipse fill="white" stroke="black" cx="1365.5" cy="-99.87" rx="113.69" ry="26.74"/>
<text text-anchor="middle" x="1365.5" y="-103.67" font-family="Helvetica,sans-Serif" font-size="14.00">▶ Modify</text>
<text text-anchor="middle" x="1365.5" y="-88.67" font-family="Helvetica,sans-Serif" font-size="14.00">demucs/hdemucs.py</text>
</g>
<!-- 426af5a8&#45;61a2&#45;4c8f&#45;8852&#45;076d4226b885&#45;&gt;d6bada5a&#45;5df4&#45;4420&#45;8bc9&#45;65b25c07d912 -->
<g id="edge6" class="edge">
<title>426af5a8&#45;61a2&#45;4c8f&#45;8852&#45;076d4226b885&#45;&gt;d6bada5a&#45;5df4&#45;4420&#45;8bc9&#45;65b25c07d912</title>
<path fill="none" stroke="black" d="M1172.77,-99.87C1195.61,-99.87 1218.46,-99.87 1241.3,-99.87"/>
<polygon fill="black" stroke="black" points="1241.44,-103.37 1251.44,-99.87 1241.44,-96.37 1241.44,-103.37"/>
</g>
<!-- cd472f62&#45;e0ef&#45;48da&#45;a33a&#45;b7cb95810fe7 -->
<g id="node9" class="node">
<title>cd472f62&#45;e0ef&#45;48da&#45;a33a&#45;b7cb95810fe7</title>
<polygon fill="white" stroke="black" points="1213.5,-36 755.5,-36 755.5,0 1213.5,0 1213.5,-36"/>
<text text-anchor="middle" x="984.5" y="-14.3" font-family="Helvetica,sans-Serif" font-size="14.00">▶ Run GitHub Actions for `gui_data/tkinterdnd2/TkinterDnD.py`</text>
</g>
<!-- 426af5a8&#45;61a2&#45;4c8f&#45;8852&#45;076d4226b885&#45;&gt;cd472f62&#45;e0ef&#45;48da&#45;a33a&#45;b7cb95810fe7 -->
<g id="edge5" class="edge">
<title>426af5a8&#45;61a2&#45;4c8f&#45;8852&#45;076d4226b885&#45;&gt;cd472f62&#45;e0ef&#45;48da&#45;a33a&#45;b7cb95810fe7</title>
<path fill="none" stroke="black" stroke-dasharray="5,2" d="M984.5,-72.72C984.5,-64.27 984.5,-54.89 984.5,-46.36"/>
<polygon fill="black" stroke="black" points="988,-46.15 984.5,-36.15 981,-46.15 988,-46.15"/>
</g>
<!-- d6bada5a&#45;5df4&#45;4420&#45;8bc9&#45;65b25c07d912&#45;&gt;end -->
<g id="edge9" class="edge">
<title>d6bada5a&#45;5df4&#45;4420&#45;8bc9&#45;65b25c07d912&#45;&gt;end</title>
<path fill="none" stroke="black" d="M1479.75,-99.87C1499.09,-99.87 1516.29,-99.87 1526.78,-99.87"/>
<polygon fill="black" stroke="black" points="1526.83,-103.37 1536.83,-99.87 1526.83,-96.37 1526.83,-103.37"/>
<text text-anchor="middle" x="1508.17" y="-106.67" font-family="Helvetica,sans-Serif" font-size="14.00">Finish</text>
</g>
<!-- 66abe1c1&#45;f765&#45;435a&#45;8009&#45;094f13b19c32 -->
<g id="node10" class="node">
<title>66abe1c1&#45;f765&#45;435a&#45;8009&#45;094f13b19c32</title>
<polygon fill="white" stroke="black" points="1585,-36 1232,-36 1232,0 1585,0 1585,-36"/>
<text text-anchor="middle" x="1408.5" y="-14.3" font-family="Helvetica,sans-Serif" font-size="14.00">▶ Run GitHub Actions for `demucs/hdemucs.py`</text>
</g>
<!-- d6bada5a&#45;5df4&#45;4420&#45;8bc9&#45;65b25c07d912&#45;&gt;66abe1c1&#45;f765&#45;435a&#45;8009&#45;094f13b19c32 -->
<g id="edge7" class="edge">
<title>d6bada5a&#45;5df4&#45;4420&#45;8bc9&#45;65b25c07d912&#45;&gt;66abe1c1&#45;f765&#45;435a&#45;8009&#45;094f13b19c32</title>
<path fill="none" stroke="black" stroke-dasharray="5,2" d="M1379.34,-73.16C1384.15,-64.22 1389.55,-54.2 1394.38,-45.22"/>
<polygon fill="black" stroke="black" points="1397.51,-46.8 1399.17,-36.34 1391.34,-43.48 1397.51,-46.8"/>
</g>
</g>
</svg>
