<?xml version="1.0" encoding="UTF-8" standalone="no"?>
<!DOCTYPE svg PUBLIC "-//W3C//DTD SVG 1.1//EN"
 "http://www.w3.org/Graphics/SVG/1.1/DTD/svg11.dtd">
<!-- Generated by graphviz version 2.43.0 (0)
 -->
<!-- Title: %3 Pages: 1 -->
<svg width="1662pt" height="238pt"
 viewBox="0.00 0.00 1661.50 237.74" xmlns="http://www.w3.org/2000/svg" xmlns:xlink="http://www.w3.org/1999/xlink">
<g id="graph0" class="graph" transform="scale(1 1) rotate(0) translate(36 201.74)">
<title>%3</title>
<polygon fill="dimgray" stroke="transparent" points="-36,36 -36,-201.74 1625.5,-201.74 1625.5,36 -36,36"/>
<text text-anchor="middle" x="794.75" y="-150.54" font-family="Helvetica,sans-Serif" font-size="14.00">Sweep&#39;s Plan &amp; Progress</text>
<!-- start -->
<g id="node1" class="node">
<title>start</title>
</g>
<!-- a2f23124&#45;c57c&#45;4c05&#45;8682&#45;42180ee8c85d -->
<g id="node3" class="node">
<title>a2f23124&#45;c57c&#45;4c05&#45;8682&#45;42180ee8c85d</title>
<ellipse fill="#ee0000" stroke="black" cx="234" cy="-99.87" rx="120.42" ry="26.74"/>
<text text-anchor="middle" x="234" y="-103.67" font-family="Helvetica,sans-Serif" font-size="14.00">✗ Modify</text>
<text text-anchor="middle" x="234" y="-88.67" font-family="Helvetica,sans-Serif" font-size="14.00">gui_data/constants.py</text>
</g>
<!-- start&#45;&gt;a2f23124&#45;c57c&#45;4c05&#45;8682&#45;42180ee8c85d -->
<g id="edge8" class="edge">
<title>start&#45;&gt;a2f23124&#45;c57c&#45;4c05&#45;8682&#45;42180ee8c85d</title>
<path fill="none" stroke="black" d="M62.77,-99.87C66.4,-99.87 82.61,-99.87 103.71,-99.87"/>
<polygon fill="black" stroke="black" points="103.72,-103.37 113.72,-99.87 103.72,-96.37 103.72,-103.37"/>
<text text-anchor="middle" x="88.15" y="-106.67" font-family="Helvetica,sans-Serif" font-size="14.00">Start</text>
</g>
<!-- end -->
<g id="node2" class="node">
<title>end</title>
</g>
<!-- d07eb326&#45;5213&#45;4bc2&#45;9815&#45;f9e796b2325b -->
<g id="node4" class="node">
<title>d07eb326&#45;5213&#45;4bc2&#45;9815&#45;f9e796b2325b</title>
<ellipse fill="#ee0000" stroke="black" cx="561" cy="-99.87" rx="118.17" ry="26.74"/>
<text text-anchor="middle" x="561" y="-103.67" font-family="Helvetica,sans-Serif" font-size="14.00">✗ Modify</text>
<text text-anchor="middle" x="561" y="-88.67" font-family="Helvetica,sans-Serif" font-size="14.00">demucs/htdemucs.py</text>
</g>
<!-- a2f23124&#45;c57c&#45;4c05&#45;8682&#45;42180ee8c85d&#45;&gt;d07eb326&#45;5213&#45;4bc2&#45;9815&#45;f9e796b2325b -->
<g id="edge2" class="edge">
<title>a2f23124&#45;c57c&#45;4c05&#45;8682&#45;42180ee8c85d&#45;&gt;d07eb326&#45;5213&#45;4bc2&#45;9815&#45;f9e796b2325b</title>
<path fill="none" stroke="black" d="M354.39,-99.87C380.51,-99.87 406.63,-99.87 432.75,-99.87"/>
<polygon fill="black" stroke="black" points="432.76,-103.37 442.76,-99.87 432.76,-96.37 432.76,-103.37"/>
</g>
<!-- 8f203417&#45;c922&#45;4576&#45;89c5&#45;eb0311b6b1b9 -->
<g id="node7" class="node">
<title>8f203417&#45;c922&#45;4576&#45;89c5&#45;eb0311b6b1b9</title>
<polygon fill="#ee0000" stroke="black" points="362,-36 0,-36 0,0 362,0 362,-36"/>
<text text-anchor="middle" x="181" y="-14.3" font-family="Helvetica,sans-Serif" font-size="14.00">✗ Run GitHub Actions for `gui_data/constants.py`</text>
</g>
<!-- a2f23124&#45;c57c&#45;4c05&#45;8682&#45;42180ee8c85d&#45;&gt;8f203417&#45;c922&#45;4576&#45;89c5&#45;eb0311b6b1b9 -->
<g id="edge1" class="edge">
<title>a2f23124&#45;c57c&#45;4c05&#45;8682&#45;42180ee8c85d&#45;&gt;8f203417&#45;c922&#45;4576&#45;89c5&#45;eb0311b6b1b9</title>
<path fill="none" stroke="black" stroke-dasharray="5,2" d="M216.94,-73.16C210.95,-64.13 204.21,-53.98 198.21,-44.94"/>
<polygon fill="black" stroke="black" points="200.95,-42.73 192.5,-36.34 195.12,-46.6 200.95,-42.73"/>
</g>
<!-- 426af5a8&#45;61a2&#45;4c8f&#45;8852&#45;076d4226b885 -->
<g id="node5" class="node">
<title>426af5a8&#45;61a2&#45;4c8f&#45;8852&#45;076d4226b885</title>
<ellipse fill="white" stroke="black" cx="989" cy="-99.87" rx="188.18" ry="26.74"/>
<text text-anchor="middle" x="989" y="-103.67" font-family="Helvetica,sans-Serif" font-size="14.00">▶ Modify</text>
<text text-anchor="middle" x="989" y="-88.67" font-family="Helvetica,sans-Serif" font-size="14.00">gui_data/tkinterdnd2/TkinterDnD.py</text>
</g>
<!-- d07eb326&#45;5213&#45;4bc2&#45;9815&#45;f9e796b2325b&#45;&gt;426af5a8&#45;61a2&#45;4c8f&#45;8852&#45;076d4226b885 -->
<g id="edge4" class="edge">
<title>d07eb326&#45;5213&#45;4bc2&#45;9815&#45;f9e796b2325b&#45;&gt;426af5a8&#45;61a2&#45;4c8f&#45;8852&#45;076d4226b885</title>
<path fill="none" stroke="black" d="M679.29,-99.87C716.33,-99.87 753.38,-99.87 790.42,-99.87"/>
<polygon fill="black" stroke="black" points="790.87,-103.37 800.87,-99.87 790.87,-96.37 790.87,-103.37"/>
</g>
<!-- a39e0498&#45;0be5&#45;4d49&#45;b89b&#45;012da45b9710 -->
<g id="node8" class="node">
<title>a39e0498&#45;0be5&#45;4d49&#45;b89b&#45;012da45b9710</title>
<polygon fill="yellow" stroke="black" points="742,-36 380,-36 380,0 742,0 742,-36"/>
<text text-anchor="middle" x="561" y="-14.3" font-family="Helvetica,sans-Serif" font-size="14.00">⋯ Run GitHub Actions for `demucs/htdemucs.py`</text>
</g>
<!-- d07eb326&#45;5213&#45;4bc2&#45;9815&#45;f9e796b2325b&#45;&gt;a39e0498&#45;0be5&#45;4d49&#45;b89b&#45;012da45b9710 -->
<g id="edge3" class="edge">
<title>d07eb326&#45;5213&#45;4bc2&#45;9815&#45;f9e796b2325b&#45;&gt;a39e0498&#45;0be5&#45;4d49&#45;b89b&#45;012da45b9710</title>
<path fill="none" stroke="black" stroke-dasharray="5,2" d="M561,-72.72C561,-64.27 561,-54.89 561,-46.36"/>
<polygon fill="black" stroke="black" points="564.5,-46.15 561,-36.15 557.5,-46.15 564.5,-46.15"/>
</g>
<!-- d6bada5a&#45;5df4&#45;4420&#45;8bc9&#45;65b25c07d912 -->
<g id="node6" class="node">
<title>d6bada5a&#45;5df4&#45;4420&#45;8bc9&#45;65b25c07d912</title>
<ellipse fill="white" stroke="black" cx="1370" cy="-99.87" rx="113.69" ry="26.74"/>
<text text-anchor="middle" x="1370" y="-103.67" font-family="Helvetica,sans-Serif" font-size="14.00">▶ Modify</text>
<text text-anchor="middle" x="1370" y="-88.67" font-family="Helvetica,sans-Serif" font-size="14.00">demucs/hdemucs.py</text>
</g>
<!-- 426af5a8&#45;61a2&#45;4c8f&#45;8852&#45;076d4226b885&#45;&gt;d6bada5a&#45;5df4&#45;4420&#45;8bc9&#45;65b25c07d912 -->
<g id="edge6" class="edge">
<title>426af5a8&#45;61a2&#45;4c8f&#45;8852&#45;076d4226b885&#45;&gt;d6bada5a&#45;5df4&#45;4420&#45;8bc9&#45;65b25c07d912</title>
<path fill="none" stroke="black" d="M1177.27,-99.87C1200.11,-99.87 1222.96,-99.87 1245.8,-99.87"/>
<polygon fill="black" stroke="black" points="1245.94,-103.37 1255.94,-99.87 1245.94,-96.37 1245.94,-103.37"/>
</g>
<!-- cd472f62&#45;e0ef&#45;48da&#45;a33a&#45;b7cb95810fe7 -->
<g id="node9" class="node">
<title>cd472f62&#45;e0ef&#45;48da&#45;a33a&#45;b7cb95810fe7</title>
<polygon fill="white" stroke="black" points="1218,-36 760,-36 760,0 1218,0 1218,-36"/>
<text text-anchor="middle" x="989" y="-14.3" font-family="Helvetica,sans-Serif" font-size="14.00">▶ Run GitHub Actions for `gui_data/tkinterdnd2/TkinterDnD.py`</text>
</g>
<!-- 426af5a8&#45;61a2&#45;4c8f&#45;8852&#45;076d4226b885&#45;&gt;cd472f62&#45;e0ef&#45;48da&#45;a33a&#45;b7cb95810fe7 -->
<g id="edge5" class="edge">
<title>426af5a8&#45;61a2&#45;4c8f&#45;8852&#45;076d4226b885&#45;&gt;cd472f62&#45;e0ef&#45;48da&#45;a33a&#45;b7cb95810fe7</title>
<path fill="none" stroke="black" stroke-dasharray="5,2" d="M989,-72.72C989,-64.27 989,-54.89 989,-46.36"/>
<polygon fill="black" stroke="black" points="992.5,-46.15 989,-36.15 985.5,-46.15 992.5,-46.15"/>
</g>
<!-- d6bada5a&#45;5df4&#45;4420&#45;8bc9&#45;65b25c07d912&#45;&gt;end -->
<g id="edge9" class="edge">
<title>d6bada5a&#45;5df4&#45;4420&#45;8bc9&#45;65b25c07d912&#45;&gt;end</title>
<path fill="none" stroke="black" d="M1484.25,-99.87C1503.59,-99.87 1520.79,-99.87 1531.28,-99.87"/>
<polygon fill="black" stroke="black" points="1531.33,-103.37 1541.33,-99.87 1531.33,-96.37 1531.33,-103.37"/>
<text text-anchor="middle" x="1512.67" y="-106.67" font-family="Helvetica,sans-Serif" font-size="14.00">Finish</text>
</g>
<!-- 66abe1c1&#45;f765&#45;435a&#45;8009&#45;094f13b19c32 -->
<g id="node10" class="node">
<title>66abe1c1&#45;f765&#45;435a&#45;8009&#45;094f13b19c32</title>
<polygon fill="white" stroke="black" points="1589.5,-36 1236.5,-36 1236.5,0 1589.5,0 1589.5,-36"/>
<text text-anchor="middle" x="1413" y="-14.3" font-family="Helvetica,sans-Serif" font-size="14.00">▶ Run GitHub Actions for `demucs/hdemucs.py`</text>
</g>
<!-- d6bada5a&#45;5df4&#45;4420&#45;8bc9&#45;65b25c07d912&#45;&gt;66abe1c1&#45;f765&#45;435a&#45;8009&#45;094f13b19c32 -->
<g id="edge7" class="edge">
<title>d6bada5a&#45;5df4&#45;4420&#45;8bc9&#45;65b25c07d912&#45;&gt;66abe1c1&#45;f765&#45;435a&#45;8009&#45;094f13b19c32</title>
<path fill="none" stroke="black" stroke-dasharray="5,2" d="M1383.84,-73.16C1388.65,-64.22 1394.05,-54.2 1398.88,-45.22"/>
<polygon fill="black" stroke="black" points="1402.01,-46.8 1403.67,-36.34 1395.84,-43.48 1402.01,-46.8"/>
</g>
</g>
</svg>
