<?xml version="1.0" encoding="UTF-8" standalone="no"?>
<!DOCTYPE svg PUBLIC "-//W3C//DTD SVG 1.1//EN"
 "http://www.w3.org/Graphics/SVG/1.1/DTD/svg11.dtd">
<!-- Generated by graphviz version 8.0.3 (0)
 -->
<!-- Pages: 1 -->
<svg width="1169pt" height="238pt"
 viewBox="0.00 0.00 1169.00 237.74" xmlns="http://www.w3.org/2000/svg" xmlns:xlink="http://www.w3.org/1999/xlink">
<g id="graph0" class="graph" transform="scale(1 1) rotate(0) translate(36 201.74)">
<polygon fill="dimgray" stroke="none" points="-36,36 -36,-201.74 1133,-201.74 1133,36 -36,36"/>
<text text-anchor="middle" x="548.5" y="-150.54" font-family="Helvetica,sans-Serif" font-size="14.00">Sweep&#39;s Plan &amp; Progress</text>
<!-- start -->
<g id="node1" class="node">
<title>start</title>
</g>
<!-- 953cd895&#45;f5ba&#45;4982&#45;8b36&#45;eebac141fb99 -->
<g id="node3" class="node">
<title>953cd895&#45;f5ba&#45;4982&#45;8b36&#45;eebac141fb99</title>
<ellipse fill="#0ee832" stroke="black" cx="227.5" cy="-99.87" rx="107.46" ry="26.74"/>
<text text-anchor="middle" x="227.5" y="-103.67" font-family="Helvetica,sans-Serif" font-size="14.00">✓ Modify</text>
<text text-anchor="middle" x="227.5" y="-88.67" font-family="Helvetica,sans-Serif" font-size="14.00">demucs/demucs.py</text>
</g>
<!-- start&#45;&gt;953cd895&#45;f5ba&#45;4982&#45;8b36&#45;eebac141fb99 -->
<g id="edge6" class="edge">
<title>start&#45;&gt;953cd895&#45;f5ba&#45;4982&#45;8b36&#45;eebac141fb99</title>
<path fill="none" stroke="black" d="M68.96,-99.87C71.82,-99.87 87.91,-99.87 108.82,-99.87"/>
<polygon fill="black" stroke="black" points="108.79,-103.37 118.79,-99.87 108.79,-96.37 108.79,-103.37"/>
<text text-anchor="middle" x="94.51" y="-106.67" font-family="Helvetica,sans-Serif" font-size="14.00">Start</text>
</g>
<!-- end -->
<g id="node2" class="node">
<title>end</title>
</g>
<!-- 6b51ccfa&#45;83ee&#45;4543&#45;bc24&#45;f424764e23aa -->
<g id="node4" class="node">
<title>6b51ccfa&#45;83ee&#45;4543&#45;bc24&#45;f424764e23aa</title>
<ellipse fill="white" stroke="black" cx="545.5" cy="-99.87" rx="120.42" ry="26.74"/>
<text text-anchor="middle" x="545.5" y="-103.67" font-family="Helvetica,sans-Serif" font-size="14.00">▶ Modify</text>
<text text-anchor="middle" x="545.5" y="-88.67" font-family="Helvetica,sans-Serif" font-size="14.00">demucs/pretrained.py</text>
</g>
<!-- 953cd895&#45;f5ba&#45;4982&#45;8b36&#45;eebac141fb99&#45;&gt;6b51ccfa&#45;83ee&#45;4543&#45;bc24&#45;f424764e23aa -->
<g id="edge2" class="edge">
<title>953cd895&#45;f5ba&#45;4982&#45;8b36&#45;eebac141fb99&#45;&gt;6b51ccfa&#45;83ee&#45;4543&#45;bc24&#45;f424764e23aa</title>
<path fill="none" stroke="black" d="M335.26,-99.87C361.49,-99.87 387.71,-99.87 413.94,-99.87"/>
<polygon fill="black" stroke="black" points="413.78,-103.37 423.78,-99.87 413.78,-96.37 413.78,-103.37"/>
</g>
<!-- 3e9a10e9&#45;e16f&#45;448b&#45;8b6f&#45;1b9d218a298e -->
<g id="node6" class="node">
<title>3e9a10e9&#45;e16f&#45;448b&#45;8b6f&#45;1b9d218a298e</title>
<polygon fill="yellow" stroke="black" points="347,-36 0,-36 0,0 347,0 347,-36"/>
<text text-anchor="middle" x="173.5" y="-14.3" font-family="Helvetica,sans-Serif" font-size="14.00">⋯ Run GitHub Actions for `demucs/demucs.py`</text>
</g>
<!-- 953cd895&#45;f5ba&#45;4982&#45;8b36&#45;eebac141fb99&#45;&gt;3e9a10e9&#45;e16f&#45;448b&#45;8b6f&#45;1b9d218a298e -->
<g id="edge1" class="edge">
<title>953cd895&#45;f5ba&#45;4982&#45;8b36&#45;eebac141fb99&#45;&gt;3e9a10e9&#45;e16f&#45;448b&#45;8b6f&#45;1b9d218a298e</title>
<path fill="none" stroke="black" stroke-dasharray="5,2" d="M210.12,-73.16C204.08,-64.22 197.3,-54.2 191.23,-45.22"/>
<polygon fill="black" stroke="black" points="193.72,-43.66 185.22,-37.34 187.92,-47.58 193.72,-43.66"/>
</g>
<!-- 334d3107&#45;e7bf&#45;499d&#45;a78f&#45;9f7691041e68 -->
<g id="node5" class="node">
<title>334d3107&#45;e7bf&#45;499d&#45;a78f&#45;9f7691041e68</title>
<ellipse fill="white" stroke="black" cx="868.5" cy="-99.87" rx="113.69" ry="26.74"/>
<text text-anchor="middle" x="868.5" y="-103.67" font-family="Helvetica,sans-Serif" font-size="14.00">▶ Modify</text>
<text text-anchor="middle" x="868.5" y="-88.67" font-family="Helvetica,sans-Serif" font-size="14.00">demucs/hdemucs.py</text>
</g>
<!-- 6b51ccfa&#45;83ee&#45;4543&#45;bc24&#45;f424764e23aa&#45;&gt;334d3107&#45;e7bf&#45;499d&#45;a78f&#45;9f7691041e68 -->
<g id="edge4" class="edge">
<title>6b51ccfa&#45;83ee&#45;4543&#45;bc24&#45;f424764e23aa&#45;&gt;334d3107&#45;e7bf&#45;499d&#45;a78f&#45;9f7691041e68</title>
<path fill="none" stroke="black" d="M666.31,-99.87C692.11,-99.87 717.91,-99.87 743.71,-99.87"/>
<polygon fill="black" stroke="black" points="743.37,-103.37 753.37,-99.87 743.37,-96.37 743.37,-103.37"/>
</g>
<!-- 40dc98aa&#45;6b44&#45;4b58&#45;b12c&#45;98f86a3a0f12 -->
<g id="node7" class="node">
<title>40dc98aa&#45;6b44&#45;4b58&#45;b12c&#45;98f86a3a0f12</title>
<polygon fill="white" stroke="black" points="726,-36 365,-36 365,0 726,0 726,-36"/>
<text text-anchor="middle" x="545.5" y="-14.3" font-family="Helvetica,sans-Serif" font-size="14.00">▶ Run GitHub Actions for `demucs/pretrained.py`</text>
</g>
<!-- 6b51ccfa&#45;83ee&#45;4543&#45;bc24&#45;f424764e23aa&#45;&gt;40dc98aa&#45;6b44&#45;4b58&#45;b12c&#45;98f86a3a0f12 -->
<g id="edge3" class="edge">
<title>6b51ccfa&#45;83ee&#45;4543&#45;bc24&#45;f424764e23aa&#45;&gt;40dc98aa&#45;6b44&#45;4b58&#45;b12c&#45;98f86a3a0f12</title>
<path fill="none" stroke="black" stroke-dasharray="5,2" d="M545.5,-72.72C545.5,-64.46 545.5,-55.31 545.5,-46.93"/>
<polygon fill="black" stroke="black" points="549,-47.15 545.5,-37.15 542,-47.15 549,-47.15"/>
</g>
<!-- 334d3107&#45;e7bf&#45;499d&#45;a78f&#45;9f7691041e68&#45;&gt;end -->
<g id="edge7" class="edge">
<title>334d3107&#45;e7bf&#45;499d&#45;a78f&#45;9f7691041e68&#45;&gt;end</title>
<path fill="none" stroke="black" d="M982.27,-99.87C1001.48,-99.87 1018.62,-99.87 1029.25,-99.87"/>
<polygon fill="black" stroke="black" points="1029.2,-103.37 1039.2,-99.87 1029.2,-96.37 1029.2,-103.37"/>
<text text-anchor="middle" x="1011.17" y="-106.67" font-family="Helvetica,sans-Serif" font-size="14.00">Finish</text>
</g>
<!-- 67d88569&#45;d896&#45;40a3&#45;bbb4&#45;78a8dd32b643 -->
<g id="node8" class="node">
<title>67d88569&#45;d896&#45;40a3&#45;bbb4&#45;78a8dd32b643</title>
<polygon fill="white" stroke="black" points="1097,-36 744,-36 744,0 1097,0 1097,-36"/>
<text text-anchor="middle" x="920.5" y="-14.3" font-family="Helvetica,sans-Serif" font-size="14.00">▶ Run GitHub Actions for `demucs/hdemucs.py`</text>
</g>
<!-- 334d3107&#45;e7bf&#45;499d&#45;a78f&#45;9f7691041e68&#45;&gt;67d88569&#45;d896&#45;40a3&#45;bbb4&#45;78a8dd32b643 -->
<g id="edge5" class="edge">
<title>334d3107&#45;e7bf&#45;499d&#45;a78f&#45;9f7691041e68&#45;&gt;67d88569&#45;d896&#45;40a3&#45;bbb4&#45;78a8dd32b643</title>
<path fill="none" stroke="black" stroke-dasharray="5,2" d="M885.24,-73.16C891,-64.32 897.45,-54.41 903.24,-45.5"/>
<polygon fill="black" stroke="black" points="906.69,-47.63 909.21,-37.34 900.82,-43.81 906.69,-47.63"/>
</g>
</g>
</svg>
