<?xml version="1.0" encoding="UTF-8" standalone="no"?>
<!DOCTYPE svg PUBLIC "-//W3C//DTD SVG 1.1//EN"
 "http://www.w3.org/Graphics/SVG/1.1/DTD/svg11.dtd">
<!-- Generated by graphviz version 8.0.3 (0)
 -->
<!-- Pages: 1 -->
<svg width="1172pt" height="238pt"
 viewBox="0.00 0.00 1171.50 237.74" xmlns="http://www.w3.org/2000/svg" xmlns:xlink="http://www.w3.org/1999/xlink">
<g id="graph0" class="graph" transform="scale(1 1) rotate(0) translate(36 201.74)">
<polygon fill="dimgray" stroke="none" points="-36,36 -36,-201.74 1135.5,-201.74 1135.5,36 -36,36"/>
<text text-anchor="middle" x="549.75" y="-150.54" font-family="Helvetica,sans-Serif" font-size="14.00">Sweep&#39;s Plan &amp; Progress</text>
<!-- start -->
<g id="node1" class="node">
<title>start</title>
</g>
<!-- 953cd895&#45;f5ba&#45;4982&#45;8b36&#45;eebac141fb99 -->
<g id="node3" class="node">
<title>953cd895&#45;f5ba&#45;4982&#45;8b36&#45;eebac141fb99</title>
<ellipse fill="#0ee832" stroke="black" cx="226.5" cy="-99.87" rx="107.46" ry="26.74"/>
<text text-anchor="middle" x="226.5" y="-103.67" font-family="Helvetica,sans-Serif" font-size="14.00">✓ Modify</text>
<text text-anchor="middle" x="226.5" y="-88.67" font-family="Helvetica,sans-Serif" font-size="14.00">demucs/demucs.py</text>
</g>
<!-- start&#45;&gt;953cd895&#45;f5ba&#45;4982&#45;8b36&#45;eebac141fb99 -->
<g id="edge6" class="edge">
<title>start&#45;&gt;953cd895&#45;f5ba&#45;4982&#45;8b36&#45;eebac141fb99</title>
<path fill="none" stroke="black" d="M67.96,-99.87C70.82,-99.87 86.91,-99.87 107.82,-99.87"/>
<polygon fill="black" stroke="black" points="107.79,-103.37 117.79,-99.87 107.79,-96.37 107.79,-103.37"/>
<text text-anchor="middle" x="93.51" y="-106.67" font-family="Helvetica,sans-Serif" font-size="14.00">Start</text>
</g>
<!-- end -->
<g id="node2" class="node">
<title>end</title>
</g>
<!-- 6b51ccfa&#45;83ee&#45;4543&#45;bc24&#45;f424764e23aa -->
<g id="node4" class="node">
<title>6b51ccfa&#45;83ee&#45;4543&#45;bc24&#45;f424764e23aa</title>
<ellipse fill="#0ee832" stroke="black" cx="544.5" cy="-99.87" rx="120.42" ry="26.74"/>
<text text-anchor="middle" x="544.5" y="-103.67" font-family="Helvetica,sans-Serif" font-size="14.00">✓ Modify</text>
<text text-anchor="middle" x="544.5" y="-88.67" font-family="Helvetica,sans-Serif" font-size="14.00">demucs/pretrained.py</text>
</g>
<!-- 953cd895&#45;f5ba&#45;4982&#45;8b36&#45;eebac141fb99&#45;&gt;6b51ccfa&#45;83ee&#45;4543&#45;bc24&#45;f424764e23aa -->
<g id="edge2" class="edge">
<title>953cd895&#45;f5ba&#45;4982&#45;8b36&#45;eebac141fb99&#45;&gt;6b51ccfa&#45;83ee&#45;4543&#45;bc24&#45;f424764e23aa</title>
<path fill="none" stroke="black" d="M334.26,-99.87C360.49,-99.87 386.71,-99.87 412.94,-99.87"/>
<polygon fill="black" stroke="black" points="412.78,-103.37 422.78,-99.87 412.78,-96.37 412.78,-103.37"/>
</g>
<!-- 3e9a10e9&#45;e16f&#45;448b&#45;8b6f&#45;1b9d218a298e -->
<g id="node6" class="node">
<title>3e9a10e9&#45;e16f&#45;448b&#45;8b6f&#45;1b9d218a298e</title>
<polygon fill="#0ee832" stroke="black" points="345,-36 0,-36 0,0 345,0 345,-36"/>
<text text-anchor="middle" x="172.5" y="-14.3" font-family="Helvetica,sans-Serif" font-size="14.00">✓ Run GitHub Actions for `demucs/demucs.py`</text>
</g>
<!-- 953cd895&#45;f5ba&#45;4982&#45;8b36&#45;eebac141fb99&#45;&gt;3e9a10e9&#45;e16f&#45;448b&#45;8b6f&#45;1b9d218a298e -->
<g id="edge1" class="edge">
<title>953cd895&#45;f5ba&#45;4982&#45;8b36&#45;eebac141fb99&#45;&gt;3e9a10e9&#45;e16f&#45;448b&#45;8b6f&#45;1b9d218a298e</title>
<path fill="none" stroke="black" stroke-dasharray="5,2" d="M209.12,-73.16C203.08,-64.22 196.3,-54.2 190.23,-45.22"/>
<polygon fill="black" stroke="black" points="192.72,-43.66 184.22,-37.34 186.92,-47.58 192.72,-43.66"/>
</g>
<!-- 334d3107&#45;e7bf&#45;499d&#45;a78f&#45;9f7691041e68 -->
<g id="node5" class="node">
<title>334d3107&#45;e7bf&#45;499d&#45;a78f&#45;9f7691041e68</title>
<ellipse fill="#0ee832" stroke="black" cx="868.5" cy="-99.87" rx="113.69" ry="26.74"/>
<text text-anchor="middle" x="868.5" y="-103.67" font-family="Helvetica,sans-Serif" font-size="14.00">✓ Modify</text>
<text text-anchor="middle" x="868.5" y="-88.67" font-family="Helvetica,sans-Serif" font-size="14.00">demucs/hdemucs.py</text>
</g>
<!-- 6b51ccfa&#45;83ee&#45;4543&#45;bc24&#45;f424764e23aa&#45;&gt;334d3107&#45;e7bf&#45;499d&#45;a78f&#45;9f7691041e68 -->
<g id="edge4" class="edge">
<title>6b51ccfa&#45;83ee&#45;4543&#45;bc24&#45;f424764e23aa&#45;&gt;334d3107&#45;e7bf&#45;499d&#45;a78f&#45;9f7691041e68</title>
<path fill="none" stroke="black" d="M665.37,-99.87C691.52,-99.87 717.67,-99.87 743.82,-99.87"/>
<polygon fill="black" stroke="black" points="743.63,-103.37 753.63,-99.87 743.63,-96.37 743.63,-103.37"/>
</g>
<!-- 40dc98aa&#45;6b44&#45;4b58&#45;b12c&#45;98f86a3a0f12 -->
<g id="node7" class="node">
<title>40dc98aa&#45;6b44&#45;4b58&#45;b12c&#45;98f86a3a0f12</title>
<polygon fill="#0ee832" stroke="black" points="725.5,-36 363.5,-36 363.5,0 725.5,0 725.5,-36"/>
<text text-anchor="middle" x="544.5" y="-14.3" font-family="Helvetica,sans-Serif" font-size="14.00">✓ Run GitHub Actions for `demucs/pretrained.py`</text>
</g>
<!-- 6b51ccfa&#45;83ee&#45;4543&#45;bc24&#45;f424764e23aa&#45;&gt;40dc98aa&#45;6b44&#45;4b58&#45;b12c&#45;98f86a3a0f12 -->
<g id="edge3" class="edge">
<title>6b51ccfa&#45;83ee&#45;4543&#45;bc24&#45;f424764e23aa&#45;&gt;40dc98aa&#45;6b44&#45;4b58&#45;b12c&#45;98f86a3a0f12</title>
<path fill="none" stroke="black" stroke-dasharray="5,2" d="M544.5,-72.72C544.5,-64.46 544.5,-55.31 544.5,-46.93"/>
<polygon fill="black" stroke="black" points="548,-47.15 544.5,-37.15 541,-47.15 548,-47.15"/>
</g>
<!-- 334d3107&#45;e7bf&#45;499d&#45;a78f&#45;9f7691041e68&#45;&gt;end -->
<g id="edge7" class="edge">
<title>334d3107&#45;e7bf&#45;499d&#45;a78f&#45;9f7691041e68&#45;&gt;end</title>
<path fill="none" stroke="black" d="M982.27,-99.87C1001.48,-99.87 1018.62,-99.87 1029.25,-99.87"/>
<polygon fill="black" stroke="black" points="1029.2,-103.37 1039.2,-99.87 1029.2,-96.37 1029.2,-103.37"/>
<text text-anchor="middle" x="1011.17" y="-106.67" font-family="Helvetica,sans-Serif" font-size="14.00">Finish</text>
</g>
<!-- 67d88569&#45;d896&#45;40a3&#45;bbb4&#45;78a8dd32b643 -->
<g id="node8" class="node">
<title>67d88569&#45;d896&#45;40a3&#45;bbb4&#45;78a8dd32b643</title>
<polygon fill="yellow" stroke="black" points="1099.5,-36 743.5,-36 743.5,0 1099.5,0 1099.5,-36"/>
<text text-anchor="middle" x="921.5" y="-14.3" font-family="Helvetica,sans-Serif" font-size="14.00">⋯ Run GitHub Actions for `demucs/hdemucs.py`</text>
</g>
<!-- 334d3107&#45;e7bf&#45;499d&#45;a78f&#45;9f7691041e68&#45;&gt;67d88569&#45;d896&#45;40a3&#45;bbb4&#45;78a8dd32b643 -->
<g id="edge5" class="edge">
<title>334d3107&#45;e7bf&#45;499d&#45;a78f&#45;9f7691041e68&#45;&gt;67d88569&#45;d896&#45;40a3&#45;bbb4&#45;78a8dd32b643</title>
<path fill="none" stroke="black" stroke-dasharray="5,2" d="M885.56,-73.16C891.49,-64.22 898.14,-54.2 904.1,-45.22"/>
<polygon fill="black" stroke="black" points="907.38,-47.6 910,-37.34 901.55,-43.73 907.38,-47.6"/>
</g>
</g>
</svg>
