<?xml version="1.0" encoding="UTF-8" standalone="no"?>
<!DOCTYPE svg PUBLIC "-//W3C//DTD SVG 1.1//EN"
 "http://www.w3.org/Graphics/SVG/1.1/DTD/svg11.dtd">
<!-- Generated by graphviz version 2.43.0 (0)
 -->
<!-- Title: %3 Pages: 1 -->
<svg width="2657pt" height="238pt"
 viewBox="0.00 0.00 2656.50 237.74" xmlns="http://www.w3.org/2000/svg" xmlns:xlink="http://www.w3.org/1999/xlink">
<g id="graph0" class="graph" transform="scale(1 1) rotate(0) translate(36 201.74)">
<title>%3</title>
<polygon fill="dimgray" stroke="transparent" points="-36,36 -36,-201.74 2620.5,-201.74 2620.5,36 -36,36"/>
<text text-anchor="middle" x="1292.25" y="-150.54" font-family="Helvetica,sans-Serif" font-size="14.00">Sweep&#39;s Plan &amp; Progress</text>
<!-- start -->
<g id="node1" class="node">
<title>start</title>
</g>
<!-- 5d676c02&#45;ba43&#45;4029&#45;ab83&#45;88b96643411b -->
<g id="node3" class="node">
<title>5d676c02&#45;ba43&#45;4029&#45;ab83&#45;88b96643411b</title>
<ellipse fill="#ee0000" stroke="black" cx="230" cy="-99.87" rx="120.42" ry="26.74"/>
<text text-anchor="middle" x="230" y="-103.67" font-family="Helvetica,sans-Serif" font-size="14.00">✗ Modify</text>
<text text-anchor="middle" x="230" y="-88.67" font-family="Helvetica,sans-Serif" font-size="14.00">gui_data/constants.py</text>
</g>
<!-- start&#45;&gt;5d676c02&#45;ba43&#45;4029&#45;ab83&#45;88b96643411b -->
<g id="edge12" class="edge">
<title>start&#45;&gt;5d676c02&#45;ba43&#45;4029&#45;ab83&#45;88b96643411b</title>
<path fill="none" stroke="black" d="M58.77,-99.87C62.4,-99.87 78.61,-99.87 99.71,-99.87"/>
<polygon fill="black" stroke="black" points="99.72,-103.37 109.72,-99.87 99.72,-96.37 99.72,-103.37"/>
<text text-anchor="middle" x="84.15" y="-106.67" font-family="Helvetica,sans-Serif" font-size="14.00">Start</text>
</g>
<!-- end -->
<g id="node2" class="node">
<title>end</title>
</g>
<!-- c44dbab0&#45;af0e&#45;433c&#45;af0e&#45;d0d2ac708722 -->
<g id="node4" class="node">
<title>c44dbab0&#45;af0e&#45;433c&#45;af0e&#45;d0d2ac708722</title>
<ellipse fill="white" stroke="black" cx="574" cy="-99.87" rx="139.1" ry="26.74"/>
<text text-anchor="middle" x="574" y="-103.67" font-family="Helvetica,sans-Serif" font-size="14.00">▶ Modify</text>
<text text-anchor="middle" x="574" y="-88.67" font-family="Helvetica,sans-Serif" font-size="14.00">gui_data/sv_ttk/__init__.py</text>
</g>
<!-- 5d676c02&#45;ba43&#45;4029&#45;ab83&#45;88b96643411b&#45;&gt;c44dbab0&#45;af0e&#45;433c&#45;af0e&#45;d0d2ac708722 -->
<g id="edge2" class="edge">
<title>5d676c02&#45;ba43&#45;4029&#45;ab83&#45;88b96643411b&#45;&gt;c44dbab0&#45;af0e&#45;433c&#45;af0e&#45;d0d2ac708722</title>
<path fill="none" stroke="black" d="M350.27,-99.87C374.97,-99.87 399.68,-99.87 424.39,-99.87"/>
<polygon fill="black" stroke="black" points="424.6,-103.37 434.6,-99.87 424.6,-96.37 424.6,-103.37"/>
</g>
<!-- a6986763&#45;76f3&#45;48c8&#45;a163&#45;1a43a7705e44 -->
<g id="node9" class="node">
<title>a6986763&#45;76f3&#45;48c8&#45;a163&#45;1a43a7705e44</title>
<polygon fill="#ee0000" stroke="black" points="362,-36 0,-36 0,0 362,0 362,-36"/>
<text text-anchor="middle" x="181" y="-14.3" font-family="Helvetica,sans-Serif" font-size="14.00">✗ Run GitHub Actions for `gui_data/constants.py`</text>
</g>
<!-- 5d676c02&#45;ba43&#45;4029&#45;ab83&#45;88b96643411b&#45;&gt;a6986763&#45;76f3&#45;48c8&#45;a163&#45;1a43a7705e44 -->
<g id="edge1" class="edge">
<title>5d676c02&#45;ba43&#45;4029&#45;ab83&#45;88b96643411b&#45;&gt;a6986763&#45;76f3&#45;48c8&#45;a163&#45;1a43a7705e44</title>
<path fill="none" stroke="black" stroke-dasharray="5,2" d="M214.23,-73.16C208.69,-64.13 202.46,-53.98 196.91,-44.94"/>
<polygon fill="black" stroke="black" points="199.85,-43.03 191.64,-36.34 193.88,-46.69 199.85,-43.03"/>
</g>
<!-- 1d9eaab8&#45;d001&#45;47be&#45;8c70&#45;4b3066e94ecd -->
<g id="node5" class="node">
<title>1d9eaab8&#45;d001&#45;47be&#45;8c70&#45;4b3066e94ecd</title>
<ellipse fill="white" stroke="black" cx="990" cy="-99.87" rx="152.06" ry="26.74"/>
<text text-anchor="middle" x="990" y="-103.67" font-family="Helvetica,sans-Serif" font-size="14.00">▶ Modify</text>
<text text-anchor="middle" x="990" y="-88.67" font-family="Helvetica,sans-Serif" font-size="14.00">gui_data/sv_ttk/sun&#45;valley.tcl</text>
</g>
<!-- c44dbab0&#45;af0e&#45;433c&#45;af0e&#45;d0d2ac708722&#45;&gt;1d9eaab8&#45;d001&#45;47be&#45;8c70&#45;4b3066e94ecd -->
<g id="edge4" class="edge">
<title>c44dbab0&#45;af0e&#45;433c&#45;af0e&#45;d0d2ac708722&#45;&gt;1d9eaab8&#45;d001&#45;47be&#45;8c70&#45;4b3066e94ecd</title>
<path fill="none" stroke="black" d="M713.34,-99.87C751.45,-99.87 789.57,-99.87 827.68,-99.87"/>
<polygon fill="black" stroke="black" points="827.89,-103.37 837.89,-99.87 827.89,-96.37 827.89,-103.37"/>
</g>
<!-- b3203788&#45;61c0&#45;4815&#45;bf7f&#45;0e9783ed058c -->
<g id="node10" class="node">
<title>b3203788&#45;61c0&#45;4815&#45;bf7f&#45;0e9783ed058c</title>
<polygon fill="white" stroke="black" points="768,-36 380,-36 380,0 768,0 768,-36"/>
<text text-anchor="middle" x="574" y="-14.3" font-family="Helvetica,sans-Serif" font-size="14.00">▶ Run GitHub Actions for `gui_data/sv_ttk/__init__.py`</text>
</g>
<!-- c44dbab0&#45;af0e&#45;433c&#45;af0e&#45;d0d2ac708722&#45;&gt;b3203788&#45;61c0&#45;4815&#45;bf7f&#45;0e9783ed058c -->
<g id="edge3" class="edge">
<title>c44dbab0&#45;af0e&#45;433c&#45;af0e&#45;d0d2ac708722&#45;&gt;b3203788&#45;61c0&#45;4815&#45;bf7f&#45;0e9783ed058c</title>
<path fill="none" stroke="black" stroke-dasharray="5,2" d="M574,-72.72C574,-64.27 574,-54.89 574,-46.36"/>
<polygon fill="black" stroke="black" points="577.5,-46.15 574,-36.15 570.5,-46.15 577.5,-46.15"/>
</g>
<!-- a2ec071f&#45;2cb9&#45;43f9&#45;97da&#45;c1ad52ab1655 -->
<g id="node6" class="node">
<title>a2ec071f&#45;2cb9&#45;43f9&#45;97da&#45;c1ad52ab1655</title>
<ellipse fill="white" stroke="black" cx="1443" cy="-99.87" rx="192.17" ry="26.74"/>
<text text-anchor="middle" x="1443" y="-103.67" font-family="Helvetica,sans-Serif" font-size="14.00">▶ Modify</text>
<text text-anchor="middle" x="1443" y="-88.67" font-family="Helvetica,sans-Serif" font-size="14.00">gui_data/sv_ttk/sun&#45;valley_darwin.tcl</text>
</g>
<!-- 1d9eaab8&#45;d001&#45;47be&#45;8c70&#45;4b3066e94ecd&#45;&gt;a2ec071f&#45;2cb9&#45;43f9&#45;97da&#45;c1ad52ab1655 -->
<g id="edge6" class="edge">
<title>1d9eaab8&#45;d001&#45;47be&#45;8c70&#45;4b3066e94ecd&#45;&gt;a2ec071f&#45;2cb9&#45;43f9&#45;97da&#45;c1ad52ab1655</title>
<path fill="none" stroke="black" d="M1142.18,-99.87C1174.93,-99.87 1207.67,-99.87 1240.42,-99.87"/>
<polygon fill="black" stroke="black" points="1240.58,-103.37 1250.58,-99.87 1240.58,-96.37 1240.58,-103.37"/>
</g>
<!-- 504b12b0&#45;2cef&#45;4274&#45;bcd2&#45;a0d2f1726fda -->
<g id="node11" class="node">
<title>504b12b0&#45;2cef&#45;4274&#45;bcd2&#45;a0d2f1726fda</title>
<polygon fill="white" stroke="black" points="1193.5,-36 786.5,-36 786.5,0 1193.5,0 1193.5,-36"/>
<text text-anchor="middle" x="990" y="-14.3" font-family="Helvetica,sans-Serif" font-size="14.00">▶ Run GitHub Actions for `gui_data/sv_ttk/sun&#45;valley.tcl`</text>
</g>
<!-- 1d9eaab8&#45;d001&#45;47be&#45;8c70&#45;4b3066e94ecd&#45;&gt;504b12b0&#45;2cef&#45;4274&#45;bcd2&#45;a0d2f1726fda -->
<g id="edge5" class="edge">
<title>1d9eaab8&#45;d001&#45;47be&#45;8c70&#45;4b3066e94ecd&#45;&gt;504b12b0&#45;2cef&#45;4274&#45;bcd2&#45;a0d2f1726fda</title>
<path fill="none" stroke="black" stroke-dasharray="5,2" d="M990,-72.72C990,-64.27 990,-54.89 990,-46.36"/>
<polygon fill="black" stroke="black" points="993.5,-46.15 990,-36.15 986.5,-46.15 993.5,-46.15"/>
</g>
<!-- c2c1f0a7&#45;be28&#45;41b1&#45;a13d&#45;0dc9188d5023 -->
<g id="node7" class="node">
<title>c2c1f0a7&#45;be28&#45;41b1&#45;a13d&#45;0dc9188d5023</title>
<ellipse fill="white" stroke="black" cx="1902" cy="-99.87" rx="160.53" ry="26.74"/>
<text text-anchor="middle" x="1902" y="-103.67" font-family="Helvetica,sans-Serif" font-size="14.00">▶ Modify</text>
<text text-anchor="middle" x="1902" y="-88.67" font-family="Helvetica,sans-Serif" font-size="14.00">gui_data/sv_ttk/theme/dark.tcl</text>
</g>
<!-- a2ec071f&#45;2cb9&#45;43f9&#45;97da&#45;c1ad52ab1655&#45;&gt;c2c1f0a7&#45;be28&#45;41b1&#45;a13d&#45;0dc9188d5023 -->
<g id="edge8" class="edge">
<title>a2ec071f&#45;2cb9&#45;43f9&#45;97da&#45;c1ad52ab1655&#45;&gt;c2c1f0a7&#45;be28&#45;41b1&#45;a13d&#45;0dc9188d5023</title>
<path fill="none" stroke="black" d="M1635.74,-99.87C1667.5,-99.87 1699.25,-99.87 1731,-99.87"/>
<polygon fill="black" stroke="black" points="1731.31,-103.37 1741.31,-99.87 1731.31,-96.37 1731.31,-103.37"/>
</g>
<!-- 8a0ae6a0&#45;8389&#45;4d40&#45;a0a0&#45;86c21f43713b -->
<g id="node12" class="node">
<title>8a0ae6a0&#45;8389&#45;4d40&#45;a0a0&#45;86c21f43713b</title>
<polygon fill="white" stroke="black" points="1674.5,-36 1211.5,-36 1211.5,0 1674.5,0 1674.5,-36"/>
<text text-anchor="middle" x="1443" y="-14.3" font-family="Helvetica,sans-Serif" font-size="14.00">▶ Run GitHub Actions for `gui_data/sv_ttk/sun&#45;valley_darwin.tcl`</text>
</g>
<!-- a2ec071f&#45;2cb9&#45;43f9&#45;97da&#45;c1ad52ab1655&#45;&gt;8a0ae6a0&#45;8389&#45;4d40&#45;a0a0&#45;86c21f43713b -->
<g id="edge7" class="edge">
<title>a2ec071f&#45;2cb9&#45;43f9&#45;97da&#45;c1ad52ab1655&#45;&gt;8a0ae6a0&#45;8389&#45;4d40&#45;a0a0&#45;86c21f43713b</title>
<path fill="none" stroke="black" stroke-dasharray="5,2" d="M1443,-72.72C1443,-64.27 1443,-54.89 1443,-46.36"/>
<polygon fill="black" stroke="black" points="1446.5,-46.15 1443,-36.15 1439.5,-46.15 1446.5,-46.15"/>
</g>
<!-- 0d42c683&#45;dbc2&#45;4c89&#45;a095&#45;40e0fa0b83ca -->
<g id="node8" class="node">
<title>0d42c683&#45;dbc2&#45;4c89&#45;a095&#45;40e0fa0b83ca</title>
<ellipse fill="white" stroke="black" cx="2321" cy="-99.87" rx="186.85" ry="26.74"/>
<text text-anchor="middle" x="2321" y="-103.67" font-family="Helvetica,sans-Serif" font-size="14.00">▶ Create</text>
<text text-anchor="middle" x="2321" y="-88.67" font-family="Helvetica,sans-Serif" font-size="14.00">gui_data/sv_ttk/theme/wxpython.tcl</text>
</g>
<!-- c2c1f0a7&#45;be28&#45;41b1&#45;a13d&#45;0dc9188d5023&#45;&gt;0d42c683&#45;dbc2&#45;4c89&#45;a095&#45;40e0fa0b83ca -->
<g id="edge10" class="edge">
<title>c2c1f0a7&#45;be28&#45;41b1&#45;a13d&#45;0dc9188d5023&#45;&gt;0d42c683&#45;dbc2&#45;4c89&#45;a095&#45;40e0fa0b83ca</title>
<path fill="none" stroke="black" d="M2062.81,-99.87C2083.25,-99.87 2103.69,-99.87 2124.13,-99.87"/>
<polygon fill="black" stroke="black" points="2124.16,-103.37 2134.16,-99.87 2124.16,-96.37 2124.16,-103.37"/>
</g>
<!-- 776f8949&#45;5038&#45;45af&#45;a007&#45;393c050863b8 -->
<g id="node13" class="node">
<title>776f8949&#45;5038&#45;45af&#45;a007&#45;393c050863b8</title>
<polygon fill="white" stroke="black" points="2111.5,-36 1692.5,-36 1692.5,0 2111.5,0 2111.5,-36"/>
<text text-anchor="middle" x="1902" y="-14.3" font-family="Helvetica,sans-Serif" font-size="14.00">▶ Run GitHub Actions for `gui_data/sv_ttk/theme/dark.tcl`</text>
</g>
<!-- c2c1f0a7&#45;be28&#45;41b1&#45;a13d&#45;0dc9188d5023&#45;&gt;776f8949&#45;5038&#45;45af&#45;a007&#45;393c050863b8 -->
<g id="edge9" class="edge">
<title>c2c1f0a7&#45;be28&#45;41b1&#45;a13d&#45;0dc9188d5023&#45;&gt;776f8949&#45;5038&#45;45af&#45;a007&#45;393c050863b8</title>
<path fill="none" stroke="black" stroke-dasharray="5,2" d="M1902,-72.72C1902,-64.27 1902,-54.89 1902,-46.36"/>
<polygon fill="black" stroke="black" points="1905.5,-46.15 1902,-36.15 1898.5,-46.15 1905.5,-46.15"/>
</g>
<!-- 0d42c683&#45;dbc2&#45;4c89&#45;a095&#45;40e0fa0b83ca&#45;&gt;end -->
<g id="edge13" class="edge">
<title>0d42c683&#45;dbc2&#45;4c89&#45;a095&#45;40e0fa0b83ca&#45;&gt;end</title>
<path fill="none" stroke="black" d="M2507.94,-99.87C2528.12,-99.87 2545.04,-99.87 2555.31,-99.87"/>
<polygon fill="black" stroke="black" points="2555.37,-103.37 2565.37,-99.87 2555.37,-96.37 2555.37,-103.37"/>
<text text-anchor="middle" x="2536.59" y="-106.67" font-family="Helvetica,sans-Serif" font-size="14.00">Finish</text>
</g>
<!-- 762fddc7&#45;1654&#45;40e4&#45;9990&#45;6a36a4e5ca01 -->
<g id="node14" class="node">
<title>762fddc7&#45;1654&#45;40e4&#45;9990&#45;6a36a4e5ca01</title>
<polygon fill="white" stroke="black" points="2584.5,-36 2129.5,-36 2129.5,0 2584.5,0 2584.5,-36"/>
<text text-anchor="middle" x="2357" y="-14.3" font-family="Helvetica,sans-Serif" font-size="14.00">▶ Run GitHub Actions for `gui_data/sv_ttk/theme/wxpython.tcl`</text>
</g>
<!-- 0d42c683&#45;dbc2&#45;4c89&#45;a095&#45;40e0fa0b83ca&#45;&gt;762fddc7&#45;1654&#45;40e4&#45;9990&#45;6a36a4e5ca01 -->
<g id="edge11" class="edge">
<title>0d42c683&#45;dbc2&#45;4c89&#45;a095&#45;40e0fa0b83ca&#45;&gt;762fddc7&#45;1654&#45;40e4&#45;9990&#45;6a36a4e5ca01</title>
<path fill="none" stroke="black" stroke-dasharray="5,2" d="M2332.79,-72.72C2336.72,-63.99 2341.11,-54.26 2345.05,-45.51"/>
<polygon fill="black" stroke="black" points="2348.35,-46.7 2349.27,-36.15 2341.97,-43.82 2348.35,-46.7"/>
</g>
</g>
</svg>
