<?xml version="1.0" encoding="UTF-8" standalone="no"?>
<!DOCTYPE svg PUBLIC "-//W3C//DTD SVG 1.1//EN"
 "http://www.w3.org/Graphics/SVG/1.1/DTD/svg11.dtd">
<!-- Generated by graphviz version 2.43.0 (0)
 -->
<!-- Title: %3 Pages: 1 -->
<svg width="976pt" height="238pt"
 viewBox="0.00 0.00 976.00 237.74" xmlns="http://www.w3.org/2000/svg" xmlns:xlink="http://www.w3.org/1999/xlink">
<g id="graph0" class="graph" transform="scale(1 1) rotate(0) translate(36 201.74)">
<title>%3</title>
<polygon fill="dimgray" stroke="transparent" points="-36,36 -36,-201.74 940,-201.74 940,36 -36,36"/>
<text text-anchor="middle" x="452" y="-150.54" font-family="Helvetica,sans-Serif" font-size="14.00">Sweep&#39;s Plan &amp; Progress</text>
<!-- start -->
<g id="node1" class="node">
<title>start</title>
</g>
<!-- 20672516&#45;29c1&#45;4bb3&#45;a03d&#45;0d6fb469baf3 -->
<g id="node3" class="node">
<title>20672516&#45;29c1&#45;4bb3&#45;a03d&#45;0d6fb469baf3</title>
<ellipse fill="yellow" stroke="black" cx="264" cy="-99.87" rx="188.18" ry="26.74"/>
<text text-anchor="middle" x="264" y="-103.67" font-family="Helvetica,sans-Serif" font-size="14.00">⋯ Modify</text>
<text text-anchor="middle" x="264" y="-88.67" font-family="Helvetica,sans-Serif" font-size="14.00">gui_data/tkinterdnd2/TkinterDnD.py</text>
</g>
<!-- start&#45;&gt;20672516&#45;29c1&#45;4bb3&#45;a03d&#45;0d6fb469baf3 -->
<g id="edge4" class="edge">
<title>start&#45;&gt;20672516&#45;29c1&#45;4bb3&#45;a03d&#45;0d6fb469baf3</title>
<path fill="none" stroke="black" d="M24.69,-99.87C28.09,-99.87 43.81,-99.87 65.71,-99.87"/>
<polygon fill="black" stroke="black" points="65.82,-103.37 75.82,-99.87 65.82,-96.37 65.82,-103.37"/>
<text text-anchor="middle" x="50.2" y="-106.67" font-family="Helvetica,sans-Serif" font-size="14.00">Start</text>
</g>
<!-- end -->
<g id="node2" class="node">
<title>end</title>
</g>
<!-- 7676fd38&#45;8dc3&#45;4e09&#45;8aac&#45;f47beed8086f -->
<g id="node4" class="node">
<title>7676fd38&#45;8dc3&#45;4e09&#45;8aac&#45;f47beed8086f</title>
<ellipse fill="white" stroke="black" cx="672" cy="-99.87" rx="166.75" ry="26.74"/>
<text text-anchor="middle" x="672" y="-103.67" font-family="Helvetica,sans-Serif" font-size="14.00">▶ Modify</text>
<text text-anchor="middle" x="672" y="-88.67" font-family="Helvetica,sans-Serif" font-size="14.00">gui_data/tkinterdnd2/__init__.py</text>
</g>
<!-- 20672516&#45;29c1&#45;4bb3&#45;a03d&#45;0d6fb469baf3&#45;&gt;7676fd38&#45;8dc3&#45;4e09&#45;8aac&#45;f47beed8086f -->
<g id="edge2" class="edge">
<title>20672516&#45;29c1&#45;4bb3&#45;a03d&#45;0d6fb469baf3&#45;&gt;7676fd38&#45;8dc3&#45;4e09&#45;8aac&#45;f47beed8086f</title>
<path fill="none" stroke="black" d="M452.46,-99.87C466.49,-99.87 480.52,-99.87 494.56,-99.87"/>
<polygon fill="black" stroke="black" points="494.77,-103.37 504.77,-99.87 494.77,-96.37 494.77,-103.37"/>
</g>
<!-- c9c4e651&#45;2095&#45;484b&#45;b903&#45;32c668829753 -->
<g id="node5" class="node">
<title>c9c4e651&#45;2095&#45;484b&#45;b903&#45;32c668829753</title>
<polygon fill="white" stroke="black" points="458,-36 0,-36 0,0 458,0 458,-36"/>
<text text-anchor="middle" x="229" y="-14.3" font-family="Helvetica,sans-Serif" font-size="14.00">▶ Run GitHub Actions for `gui_data/tkinterdnd2/TkinterDnD.py`</text>
</g>
<!-- 20672516&#45;29c1&#45;4bb3&#45;a03d&#45;0d6fb469baf3&#45;&gt;c9c4e651&#45;2095&#45;484b&#45;b903&#45;32c668829753 -->
<g id="edge1" class="edge">
<title>20672516&#45;29c1&#45;4bb3&#45;a03d&#45;0d6fb469baf3&#45;&gt;c9c4e651&#45;2095&#45;484b&#45;b903&#45;32c668829753</title>
<path fill="none" stroke="black" stroke-dasharray="5,2" d="M252.54,-72.72C248.72,-63.99 244.45,-54.26 240.62,-45.51"/>
<polygon fill="black" stroke="black" points="243.73,-43.9 236.51,-36.15 237.32,-46.71 243.73,-43.9"/>
</g>
<!-- 7676fd38&#45;8dc3&#45;4e09&#45;8aac&#45;f47beed8086f&#45;&gt;end -->
<g id="edge5" class="edge">
<title>7676fd38&#45;8dc3&#45;4e09&#45;8aac&#45;f47beed8086f&#45;&gt;end</title>
<path fill="none" stroke="black" d="M839.06,-99.87C859,-99.87 875.92,-99.87 886.24,-99.87"/>
<polygon fill="black" stroke="black" points="886.36,-103.37 896.36,-99.87 886.36,-96.37 886.36,-103.37"/>
<text text-anchor="middle" x="867.69" y="-106.67" font-family="Helvetica,sans-Serif" font-size="14.00">Finish</text>
</g>
<!-- f0160cd4&#45;1f08&#45;42b0&#45;8496&#45;298d5fc2f462 -->
<g id="node6" class="node">
<title>f0160cd4&#45;1f08&#45;42b0&#45;8496&#45;298d5fc2f462</title>
<polygon fill="white" stroke="black" points="904,-36 476,-36 476,0 904,0 904,-36"/>
<text text-anchor="middle" x="690" y="-14.3" font-family="Helvetica,sans-Serif" font-size="14.00">▶ Run GitHub Actions for `gui_data/tkinterdnd2/__init__.py`</text>
</g>
<!-- 7676fd38&#45;8dc3&#45;4e09&#45;8aac&#45;f47beed8086f&#45;&gt;f0160cd4&#45;1f08&#45;42b0&#45;8496&#45;298d5fc2f462 -->
<g id="edge3" class="edge">
<title>7676fd38&#45;8dc3&#45;4e09&#45;8aac&#45;f47beed8086f&#45;&gt;f0160cd4&#45;1f08&#45;42b0&#45;8496&#45;298d5fc2f462</title>
<path fill="none" stroke="black" stroke-dasharray="5,2" d="M677.89,-72.72C679.82,-64.18 681.96,-54.68 683.9,-46.08"/>
<polygon fill="black" stroke="black" points="687.35,-46.67 686.14,-36.15 680.52,-45.13 687.35,-46.67"/>
</g>
</g>
</svg>
