<?xml version="1.0" encoding="UTF-8" standalone="no"?>
<!DOCTYPE svg PUBLIC "-//W3C//DTD SVG 1.1//EN"
 "http://www.w3.org/Graphics/SVG/1.1/DTD/svg11.dtd">
<!-- Generated by graphviz version 2.43.0 (0)
 -->
<!-- Title: %3 Pages: 1 -->
<svg width="978pt" height="238pt"
 viewBox="0.00 0.00 977.50 237.74" xmlns="http://www.w3.org/2000/svg" xmlns:xlink="http://www.w3.org/1999/xlink">
<g id="graph0" class="graph" transform="scale(1 1) rotate(0) translate(36 201.74)">
<title>%3</title>
<polygon fill="dimgray" stroke="transparent" points="-36,36 -36,-201.74 941.5,-201.74 941.5,36 -36,36"/>
<text text-anchor="middle" x="452.75" y="-150.54" font-family="Helvetica,sans-Serif" font-size="14.00">Sweep&#39;s Plan &amp; Progress</text>
<!-- start -->
<g id="node1" class="node">
<title>start</title>
</g>
<!-- 20672516&#45;29c1&#45;4bb3&#45;a03d&#45;0d6fb469baf3 -->
<g id="node3" class="node">
<title>20672516&#45;29c1&#45;4bb3&#45;a03d&#45;0d6fb469baf3</title>
<ellipse fill="#0ee832" stroke="black" cx="265.5" cy="-99.87" rx="188.18" ry="26.74"/>
<text text-anchor="middle" x="265.5" y="-103.67" font-family="Helvetica,sans-Serif" font-size="14.00">✓ Modify</text>
<text text-anchor="middle" x="265.5" y="-88.67" font-family="Helvetica,sans-Serif" font-size="14.00">gui_data/tkinterdnd2/TkinterDnD.py</text>
</g>
<!-- start&#45;&gt;20672516&#45;29c1&#45;4bb3&#45;a03d&#45;0d6fb469baf3 -->
<g id="edge4" class="edge">
<title>start&#45;&gt;20672516&#45;29c1&#45;4bb3&#45;a03d&#45;0d6fb469baf3</title>
<path fill="none" stroke="black" d="M26.19,-99.87C29.59,-99.87 45.31,-99.87 67.21,-99.87"/>
<polygon fill="black" stroke="black" points="67.32,-103.37 77.32,-99.87 67.32,-96.37 67.32,-103.37"/>
<text text-anchor="middle" x="51.7" y="-106.67" font-family="Helvetica,sans-Serif" font-size="14.00">Start</text>
</g>
<!-- end -->
<g id="node2" class="node">
<title>end</title>
</g>
<!-- 7676fd38&#45;8dc3&#45;4e09&#45;8aac&#45;f47beed8086f -->
<g id="node4" class="node">
<title>7676fd38&#45;8dc3&#45;4e09&#45;8aac&#45;f47beed8086f</title>
<ellipse fill="white" stroke="black" cx="673.5" cy="-99.87" rx="166.75" ry="26.74"/>
<text text-anchor="middle" x="673.5" y="-103.67" font-family="Helvetica,sans-Serif" font-size="14.00">▶ Modify</text>
<text text-anchor="middle" x="673.5" y="-88.67" font-family="Helvetica,sans-Serif" font-size="14.00">gui_data/tkinterdnd2/__init__.py</text>
</g>
<!-- 20672516&#45;29c1&#45;4bb3&#45;a03d&#45;0d6fb469baf3&#45;&gt;7676fd38&#45;8dc3&#45;4e09&#45;8aac&#45;f47beed8086f -->
<g id="edge2" class="edge">
<title>20672516&#45;29c1&#45;4bb3&#45;a03d&#45;0d6fb469baf3&#45;&gt;7676fd38&#45;8dc3&#45;4e09&#45;8aac&#45;f47beed8086f</title>
<path fill="none" stroke="black" d="M453.96,-99.87C467.99,-99.87 482.02,-99.87 496.06,-99.87"/>
<polygon fill="black" stroke="black" points="496.27,-103.37 506.27,-99.87 496.27,-96.37 496.27,-103.37"/>
</g>
<!-- c9c4e651&#45;2095&#45;484b&#45;b903&#45;32c668829753 -->
<g id="node5" class="node">
<title>c9c4e651&#45;2095&#45;484b&#45;b903&#45;32c668829753</title>
<polygon fill="#0ee832" stroke="black" points="459,-36 0,-36 0,0 459,0 459,-36"/>
<text text-anchor="middle" x="229.5" y="-14.3" font-family="Helvetica,sans-Serif" font-size="14.00">✓ Run GitHub Actions for `gui_data/tkinterdnd2/TkinterDnD.py`</text>
</g>
<!-- 20672516&#45;29c1&#45;4bb3&#45;a03d&#45;0d6fb469baf3&#45;&gt;c9c4e651&#45;2095&#45;484b&#45;b903&#45;32c668829753 -->
<g id="edge1" class="edge">
<title>20672516&#45;29c1&#45;4bb3&#45;a03d&#45;0d6fb469baf3&#45;&gt;c9c4e651&#45;2095&#45;484b&#45;b903&#45;32c668829753</title>
<path fill="none" stroke="black" stroke-dasharray="5,2" d="M253.71,-72.72C249.78,-63.99 245.39,-54.26 241.45,-45.51"/>
<polygon fill="black" stroke="black" points="244.53,-43.82 237.23,-36.15 238.15,-46.7 244.53,-43.82"/>
</g>
<!-- 7676fd38&#45;8dc3&#45;4e09&#45;8aac&#45;f47beed8086f&#45;&gt;end -->
<g id="edge5" class="edge">
<title>7676fd38&#45;8dc3&#45;4e09&#45;8aac&#45;f47beed8086f&#45;&gt;end</title>
<path fill="none" stroke="black" d="M840.56,-99.87C860.5,-99.87 877.42,-99.87 887.74,-99.87"/>
<polygon fill="black" stroke="black" points="887.86,-103.37 897.86,-99.87 887.86,-96.37 887.86,-103.37"/>
<text text-anchor="middle" x="869.19" y="-106.67" font-family="Helvetica,sans-Serif" font-size="14.00">Finish</text>
</g>
<!-- f0160cd4&#45;1f08&#45;42b0&#45;8496&#45;298d5fc2f462 -->
<g id="node6" class="node">
<title>f0160cd4&#45;1f08&#45;42b0&#45;8496&#45;298d5fc2f462</title>
<polygon fill="white" stroke="black" points="905.5,-36 477.5,-36 477.5,0 905.5,0 905.5,-36"/>
<text text-anchor="middle" x="691.5" y="-14.3" font-family="Helvetica,sans-Serif" font-size="14.00">▶ Run GitHub Actions for `gui_data/tkinterdnd2/__init__.py`</text>
</g>
<!-- 7676fd38&#45;8dc3&#45;4e09&#45;8aac&#45;f47beed8086f&#45;&gt;f0160cd4&#45;1f08&#45;42b0&#45;8496&#45;298d5fc2f462 -->
<g id="edge3" class="edge">
<title>7676fd38&#45;8dc3&#45;4e09&#45;8aac&#45;f47beed8086f&#45;&gt;f0160cd4&#45;1f08&#45;42b0&#45;8496&#45;298d5fc2f462</title>
<path fill="none" stroke="black" stroke-dasharray="5,2" d="M679.39,-72.72C681.32,-64.18 683.46,-54.68 685.4,-46.08"/>
<polygon fill="black" stroke="black" points="688.85,-46.67 687.64,-36.15 682.02,-45.13 688.85,-46.67"/>
</g>
</g>
</svg>
