<?xml version="1.0" encoding="UTF-8" standalone="no"?>
<!DOCTYPE svg PUBLIC "-//W3C//DTD SVG 1.1//EN"
 "http://www.w3.org/Graphics/SVG/1.1/DTD/svg11.dtd">
<!-- Generated by graphviz version 2.43.0 (0)
 -->
<!-- Title: %3 Pages: 1 -->
<svg width="2664pt" height="238pt"
 viewBox="0.00 0.00 2663.50 237.74" xmlns="http://www.w3.org/2000/svg" xmlns:xlink="http://www.w3.org/1999/xlink">
<g id="graph0" class="graph" transform="scale(1 1) rotate(0) translate(36 201.74)">
<title>%3</title>
<polygon fill="dimgray" stroke="transparent" points="-36,36 -36,-201.74 2627.5,-201.74 2627.5,36 -36,36"/>
<text text-anchor="middle" x="1295.75" y="-150.54" font-family="Helvetica,sans-Serif" font-size="14.00">Sweep&#39;s Plan &amp; Progress</text>
<!-- start -->
<g id="node1" class="node">
<title>start</title>
</g>
<!-- 5d676c02&#45;ba43&#45;4029&#45;ab83&#45;88b96643411b -->
<g id="node3" class="node">
<title>5d676c02&#45;ba43&#45;4029&#45;ab83&#45;88b96643411b</title>
<ellipse fill="#ee0000" stroke="black" cx="230" cy="-99.87" rx="120.42" ry="26.74"/>
<text text-anchor="middle" x="230" y="-103.67" font-family="Helvetica,sans-Serif" font-size="14.00">✗ Modify</text>
<text text-anchor="middle" x="230" y="-88.67" font-family="Helvetica,sans-Serif" font-size="14.00">gui_data/constants.py</text>
</g>
<!-- start&#45;&gt;5d676c02&#45;ba43&#45;4029&#45;ab83&#45;88b96643411b -->
<g id="edge12" class="edge">
<title>start&#45;&gt;5d676c02&#45;ba43&#45;4029&#45;ab83&#45;88b96643411b</title>
<path fill="none" stroke="black" d="M58.77,-99.87C62.4,-99.87 78.61,-99.87 99.71,-99.87"/>
<polygon fill="black" stroke="black" points="99.72,-103.37 109.72,-99.87 99.72,-96.37 99.72,-103.37"/>
<text text-anchor="middle" x="84.15" y="-106.67" font-family="Helvetica,sans-Serif" font-size="14.00">Start</text>
</g>
<!-- end -->
<g id="node2" class="node">
<title>end</title>
</g>
<!-- c44dbab0&#45;af0e&#45;433c&#45;af0e&#45;d0d2ac708722 -->
<g id="node4" class="node">
<title>c44dbab0&#45;af0e&#45;433c&#45;af0e&#45;d0d2ac708722</title>
<ellipse fill="#0ee832" stroke="black" cx="575" cy="-99.87" rx="139.1" ry="26.74"/>
<text text-anchor="middle" x="575" y="-103.67" font-family="Helvetica,sans-Serif" font-size="14.00">✓ Modify</text>
<text text-anchor="middle" x="575" y="-88.67" font-family="Helvetica,sans-Serif" font-size="14.00">gui_data/sv_ttk/__init__.py</text>
</g>
<!-- 5d676c02&#45;ba43&#45;4029&#45;ab83&#45;88b96643411b&#45;&gt;c44dbab0&#45;af0e&#45;433c&#45;af0e&#45;d0d2ac708722 -->
<g id="edge2" class="edge">
<title>5d676c02&#45;ba43&#45;4029&#45;ab83&#45;88b96643411b&#45;&gt;c44dbab0&#45;af0e&#45;433c&#45;af0e&#45;d0d2ac708722</title>
<path fill="none" stroke="black" d="M350.28,-99.87C375.22,-99.87 400.17,-99.87 425.12,-99.87"/>
<polygon fill="black" stroke="black" points="425.43,-103.37 435.43,-99.87 425.43,-96.37 425.43,-103.37"/>
</g>
<!-- a6986763&#45;76f3&#45;48c8&#45;a163&#45;1a43a7705e44 -->
<g id="node9" class="node">
<title>a6986763&#45;76f3&#45;48c8&#45;a163&#45;1a43a7705e44</title>
<polygon fill="#ee0000" stroke="black" points="362,-36 0,-36 0,0 362,0 362,-36"/>
<text text-anchor="middle" x="181" y="-14.3" font-family="Helvetica,sans-Serif" font-size="14.00">✗ Run GitHub Actions for `gui_data/constants.py`</text>
</g>
<!-- 5d676c02&#45;ba43&#45;4029&#45;ab83&#45;88b96643411b&#45;&gt;a6986763&#45;76f3&#45;48c8&#45;a163&#45;1a43a7705e44 -->
<g id="edge1" class="edge">
<title>5d676c02&#45;ba43&#45;4029&#45;ab83&#45;88b96643411b&#45;&gt;a6986763&#45;76f3&#45;48c8&#45;a163&#45;1a43a7705e44</title>
<path fill="none" stroke="black" stroke-dasharray="5,2" d="M214.23,-73.16C208.69,-64.13 202.46,-53.98 196.91,-44.94"/>
<polygon fill="black" stroke="black" points="199.85,-43.03 191.64,-36.34 193.88,-46.69 199.85,-43.03"/>
</g>
<!-- 1d9eaab8&#45;d001&#45;47be&#45;8c70&#45;4b3066e94ecd -->
<g id="node5" class="node">
<title>1d9eaab8&#45;d001&#45;47be&#45;8c70&#45;4b3066e94ecd</title>
<ellipse fill="#ee0000" stroke="black" cx="992" cy="-99.87" rx="152.06" ry="26.74"/>
<text text-anchor="middle" x="992" y="-103.67" font-family="Helvetica,sans-Serif" font-size="14.00">✗ Modify</text>
<text text-anchor="middle" x="992" y="-88.67" font-family="Helvetica,sans-Serif" font-size="14.00">gui_data/sv_ttk/sun&#45;valley.tcl</text>
</g>
<!-- c44dbab0&#45;af0e&#45;433c&#45;af0e&#45;d0d2ac708722&#45;&gt;1d9eaab8&#45;d001&#45;47be&#45;8c70&#45;4b3066e94ecd -->
<g id="edge4" class="edge">
<title>c44dbab0&#45;af0e&#45;433c&#45;af0e&#45;d0d2ac708722&#45;&gt;1d9eaab8&#45;d001&#45;47be&#45;8c70&#45;4b3066e94ecd</title>
<path fill="none" stroke="black" d="M714.68,-99.87C752.96,-99.87 791.25,-99.87 829.53,-99.87"/>
<polygon fill="black" stroke="black" points="829.8,-103.37 839.8,-99.87 829.8,-96.37 829.8,-103.37"/>
</g>
<!-- b3203788&#45;61c0&#45;4815&#45;bf7f&#45;0e9783ed058c -->
<g id="node10" class="node">
<title>b3203788&#45;61c0&#45;4815&#45;bf7f&#45;0e9783ed058c</title>
<polygon fill="#0ee832" stroke="black" points="769.5,-36 380.5,-36 380.5,0 769.5,0 769.5,-36"/>
<text text-anchor="middle" x="575" y="-14.3" font-family="Helvetica,sans-Serif" font-size="14.00">✓ Run GitHub Actions for `gui_data/sv_ttk/__init__.py`</text>
</g>
<!-- c44dbab0&#45;af0e&#45;433c&#45;af0e&#45;d0d2ac708722&#45;&gt;b3203788&#45;61c0&#45;4815&#45;bf7f&#45;0e9783ed058c -->
<g id="edge3" class="edge">
<title>c44dbab0&#45;af0e&#45;433c&#45;af0e&#45;d0d2ac708722&#45;&gt;b3203788&#45;61c0&#45;4815&#45;bf7f&#45;0e9783ed058c</title>
<path fill="none" stroke="black" stroke-dasharray="5,2" d="M575,-72.72C575,-64.27 575,-54.89 575,-46.36"/>
<polygon fill="black" stroke="black" points="578.5,-46.15 575,-36.15 571.5,-46.15 578.5,-46.15"/>
</g>
<!-- a2ec071f&#45;2cb9&#45;43f9&#45;97da&#45;c1ad52ab1655 -->
<g id="node6" class="node">
<title>a2ec071f&#45;2cb9&#45;43f9&#45;97da&#45;c1ad52ab1655</title>
<ellipse fill="#ee0000" stroke="black" cx="1448" cy="-99.87" rx="192.17" ry="26.74"/>
<text text-anchor="middle" x="1448" y="-103.67" font-family="Helvetica,sans-Serif" font-size="14.00">✗ Modify</text>
<text text-anchor="middle" x="1448" y="-88.67" font-family="Helvetica,sans-Serif" font-size="14.00">gui_data/sv_ttk/sun&#45;valley_darwin.tcl</text>
</g>
<!-- 1d9eaab8&#45;d001&#45;47be&#45;8c70&#45;4b3066e94ecd&#45;&gt;a2ec071f&#45;2cb9&#45;43f9&#45;97da&#45;c1ad52ab1655 -->
<g id="edge6" class="edge">
<title>1d9eaab8&#45;d001&#45;47be&#45;8c70&#45;4b3066e94ecd&#45;&gt;a2ec071f&#45;2cb9&#45;43f9&#45;97da&#45;c1ad52ab1655</title>
<path fill="none" stroke="black" d="M1144.3,-99.87C1177.89,-99.87 1211.49,-99.87 1245.09,-99.87"/>
<polygon fill="black" stroke="black" points="1245.52,-103.37 1255.52,-99.87 1245.52,-96.37 1245.52,-103.37"/>
</g>
<!-- 504b12b0&#45;2cef&#45;4274&#45;bcd2&#45;a0d2f1726fda -->
<g id="node11" class="node">
<title>504b12b0&#45;2cef&#45;4274&#45;bcd2&#45;a0d2f1726fda</title>
<polygon fill="#ee0000" stroke="black" points="1196,-36 788,-36 788,0 1196,0 1196,-36"/>
<text text-anchor="middle" x="992" y="-14.3" font-family="Helvetica,sans-Serif" font-size="14.00">✗ Run GitHub Actions for `gui_data/sv_ttk/sun&#45;valley.tcl`</text>
</g>
<!-- 1d9eaab8&#45;d001&#45;47be&#45;8c70&#45;4b3066e94ecd&#45;&gt;504b12b0&#45;2cef&#45;4274&#45;bcd2&#45;a0d2f1726fda -->
<g id="edge5" class="edge">
<title>1d9eaab8&#45;d001&#45;47be&#45;8c70&#45;4b3066e94ecd&#45;&gt;504b12b0&#45;2cef&#45;4274&#45;bcd2&#45;a0d2f1726fda</title>
<path fill="none" stroke="black" stroke-dasharray="5,2" d="M992,-72.72C992,-64.27 992,-54.89 992,-46.36"/>
<polygon fill="black" stroke="black" points="995.5,-46.15 992,-36.15 988.5,-46.15 995.5,-46.15"/>
</g>
<!-- c2c1f0a7&#45;be28&#45;41b1&#45;a13d&#45;0dc9188d5023 -->
<g id="node7" class="node">
<title>c2c1f0a7&#45;be28&#45;41b1&#45;a13d&#45;0dc9188d5023</title>
<ellipse fill="white" stroke="black" cx="1909" cy="-99.87" rx="160.53" ry="26.74"/>
<text text-anchor="middle" x="1909" y="-103.67" font-family="Helvetica,sans-Serif" font-size="14.00">▶ Modify</text>
<text text-anchor="middle" x="1909" y="-88.67" font-family="Helvetica,sans-Serif" font-size="14.00">gui_data/sv_ttk/theme/dark.tcl</text>
</g>
<!-- a2ec071f&#45;2cb9&#45;43f9&#45;97da&#45;c1ad52ab1655&#45;&gt;c2c1f0a7&#45;be28&#45;41b1&#45;a13d&#45;0dc9188d5023 -->
<g id="edge8" class="edge">
<title>a2ec071f&#45;2cb9&#45;43f9&#45;97da&#45;c1ad52ab1655&#45;&gt;c2c1f0a7&#45;be28&#45;41b1&#45;a13d&#45;0dc9188d5023</title>
<path fill="none" stroke="black" d="M1640.68,-99.87C1673.22,-99.87 1705.75,-99.87 1738.28,-99.87"/>
<polygon fill="black" stroke="black" points="1738.38,-103.37 1748.38,-99.87 1738.38,-96.37 1738.38,-103.37"/>
</g>
<!-- 8a0ae6a0&#45;8389&#45;4d40&#45;a0a0&#45;86c21f43713b -->
<g id="node12" class="node">
<title>8a0ae6a0&#45;8389&#45;4d40&#45;a0a0&#45;86c21f43713b</title>
<polygon fill="yellow" stroke="black" points="1681.5,-36 1214.5,-36 1214.5,0 1681.5,0 1681.5,-36"/>
<text text-anchor="middle" x="1448" y="-14.3" font-family="Helvetica,sans-Serif" font-size="14.00">⋯ Run GitHub Actions for `gui_data/sv_ttk/sun&#45;valley_darwin.tcl`</text>
</g>
<!-- a2ec071f&#45;2cb9&#45;43f9&#45;97da&#45;c1ad52ab1655&#45;&gt;8a0ae6a0&#45;8389&#45;4d40&#45;a0a0&#45;86c21f43713b -->
<g id="edge7" class="edge">
<title>a2ec071f&#45;2cb9&#45;43f9&#45;97da&#45;c1ad52ab1655&#45;&gt;8a0ae6a0&#45;8389&#45;4d40&#45;a0a0&#45;86c21f43713b</title>
<path fill="none" stroke="black" stroke-dasharray="5,2" d="M1448,-72.72C1448,-64.27 1448,-54.89 1448,-46.36"/>
<polygon fill="black" stroke="black" points="1451.5,-46.15 1448,-36.15 1444.5,-46.15 1451.5,-46.15"/>
</g>
<!-- 0d42c683&#45;dbc2&#45;4c89&#45;a095&#45;40e0fa0b83ca -->
<g id="node8" class="node">
<title>0d42c683&#45;dbc2&#45;4c89&#45;a095&#45;40e0fa0b83ca</title>
<ellipse fill="white" stroke="black" cx="2328" cy="-99.87" rx="186.85" ry="26.74"/>
<text text-anchor="middle" x="2328" y="-103.67" font-family="Helvetica,sans-Serif" font-size="14.00">▶ Create</text>
<text text-anchor="middle" x="2328" y="-88.67" font-family="Helvetica,sans-Serif" font-size="14.00">gui_data/sv_ttk/theme/wxpython.tcl</text>
</g>
<!-- c2c1f0a7&#45;be28&#45;41b1&#45;a13d&#45;0dc9188d5023&#45;&gt;0d42c683&#45;dbc2&#45;4c89&#45;a095&#45;40e0fa0b83ca -->
<g id="edge10" class="edge">
<title>c2c1f0a7&#45;be28&#45;41b1&#45;a13d&#45;0dc9188d5023&#45;&gt;0d42c683&#45;dbc2&#45;4c89&#45;a095&#45;40e0fa0b83ca</title>
<path fill="none" stroke="black" d="M2069.81,-99.87C2090.25,-99.87 2110.69,-99.87 2131.13,-99.87"/>
<polygon fill="black" stroke="black" points="2131.16,-103.37 2141.16,-99.87 2131.16,-96.37 2131.16,-103.37"/>
</g>
<!-- 776f8949&#45;5038&#45;45af&#45;a007&#45;393c050863b8 -->
<g id="node13" class="node">
<title>776f8949&#45;5038&#45;45af&#45;a007&#45;393c050863b8</title>
<polygon fill="white" stroke="black" points="2118.5,-36 1699.5,-36 1699.5,0 2118.5,0 2118.5,-36"/>
<text text-anchor="middle" x="1909" y="-14.3" font-family="Helvetica,sans-Serif" font-size="14.00">▶ Run GitHub Actions for `gui_data/sv_ttk/theme/dark.tcl`</text>
</g>
<!-- c2c1f0a7&#45;be28&#45;41b1&#45;a13d&#45;0dc9188d5023&#45;&gt;776f8949&#45;5038&#45;45af&#45;a007&#45;393c050863b8 -->
<g id="edge9" class="edge">
<title>c2c1f0a7&#45;be28&#45;41b1&#45;a13d&#45;0dc9188d5023&#45;&gt;776f8949&#45;5038&#45;45af&#45;a007&#45;393c050863b8</title>
<path fill="none" stroke="black" stroke-dasharray="5,2" d="M1909,-72.72C1909,-64.27 1909,-54.89 1909,-46.36"/>
<polygon fill="black" stroke="black" points="1912.5,-46.15 1909,-36.15 1905.5,-46.15 1912.5,-46.15"/>
</g>
<!-- 0d42c683&#45;dbc2&#45;4c89&#45;a095&#45;40e0fa0b83ca&#45;&gt;end -->
<g id="edge13" class="edge">
<title>0d42c683&#45;dbc2&#45;4c89&#45;a095&#45;40e0fa0b83ca&#45;&gt;end</title>
<path fill="none" stroke="black" d="M2514.94,-99.87C2535.12,-99.87 2552.04,-99.87 2562.31,-99.87"/>
<polygon fill="black" stroke="black" points="2562.37,-103.37 2572.37,-99.87 2562.37,-96.37 2562.37,-103.37"/>
<text text-anchor="middle" x="2543.59" y="-106.67" font-family="Helvetica,sans-Serif" font-size="14.00">Finish</text>
</g>
<!-- 762fddc7&#45;1654&#45;40e4&#45;9990&#45;6a36a4e5ca01 -->
<g id="node14" class="node">
<title>762fddc7&#45;1654&#45;40e4&#45;9990&#45;6a36a4e5ca01</title>
<polygon fill="white" stroke="black" points="2591.5,-36 2136.5,-36 2136.5,0 2591.5,0 2591.5,-36"/>
<text text-anchor="middle" x="2364" y="-14.3" font-family="Helvetica,sans-Serif" font-size="14.00">▶ Run GitHub Actions for `gui_data/sv_ttk/theme/wxpython.tcl`</text>
</g>
<!-- 0d42c683&#45;dbc2&#45;4c89&#45;a095&#45;40e0fa0b83ca&#45;&gt;762fddc7&#45;1654&#45;40e4&#45;9990&#45;6a36a4e5ca01 -->
<g id="edge11" class="edge">
<title>0d42c683&#45;dbc2&#45;4c89&#45;a095&#45;40e0fa0b83ca&#45;&gt;762fddc7&#45;1654&#45;40e4&#45;9990&#45;6a36a4e5ca01</title>
<path fill="none" stroke="black" stroke-dasharray="5,2" d="M2339.79,-72.72C2343.72,-63.99 2348.11,-54.26 2352.05,-45.51"/>
<polygon fill="black" stroke="black" points="2355.35,-46.7 2356.27,-36.15 2348.97,-43.82 2355.35,-46.7"/>
</g>
</g>
</svg>
