<?xml version="1.0" encoding="UTF-8" standalone="no"?>
<!DOCTYPE svg PUBLIC "-//W3C//DTD SVG 1.1//EN"
 "http://www.w3.org/Graphics/SVG/1.1/DTD/svg11.dtd">
<!-- Generated by graphviz version 2.43.0 (0)
 -->
<!-- Title: %3 Pages: 1 -->
<svg width="2661pt" height="238pt"
 viewBox="0.00 0.00 2660.50 237.74" xmlns="http://www.w3.org/2000/svg" xmlns:xlink="http://www.w3.org/1999/xlink">
<g id="graph0" class="graph" transform="scale(1 1) rotate(0) translate(36 201.74)">
<title>%3</title>
<polygon fill="dimgray" stroke="transparent" points="-36,36 -36,-201.74 2624.5,-201.74 2624.5,36 -36,36"/>
<text text-anchor="middle" x="1294.25" y="-150.54" font-family="Helvetica,sans-Serif" font-size="14.00">Sweep&#39;s Plan &amp; Progress</text>
<!-- start -->
<g id="node1" class="node">
<title>start</title>
</g>
<!-- 5d676c02&#45;ba43&#45;4029&#45;ab83&#45;88b96643411b -->
<g id="node3" class="node">
<title>5d676c02&#45;ba43&#45;4029&#45;ab83&#45;88b96643411b</title>
<ellipse fill="#ee0000" stroke="black" cx="231" cy="-99.87" rx="120.42" ry="26.74"/>
<text text-anchor="middle" x="231" y="-103.67" font-family="Helvetica,sans-Serif" font-size="14.00">✗ Modify</text>
<text text-anchor="middle" x="231" y="-88.67" font-family="Helvetica,sans-Serif" font-size="14.00">gui_data/constants.py</text>
</g>
<!-- start&#45;&gt;5d676c02&#45;ba43&#45;4029&#45;ab83&#45;88b96643411b -->
<g id="edge12" class="edge">
<title>start&#45;&gt;5d676c02&#45;ba43&#45;4029&#45;ab83&#45;88b96643411b</title>
<path fill="none" stroke="black" d="M59.77,-99.87C63.4,-99.87 79.61,-99.87 100.71,-99.87"/>
<polygon fill="black" stroke="black" points="100.72,-103.37 110.72,-99.87 100.72,-96.37 100.72,-103.37"/>
<text text-anchor="middle" x="85.15" y="-106.67" font-family="Helvetica,sans-Serif" font-size="14.00">Start</text>
</g>
<!-- end -->
<g id="node2" class="node">
<title>end</title>
</g>
<!-- c44dbab0&#45;af0e&#45;433c&#45;af0e&#45;d0d2ac708722 -->
<g id="node4" class="node">
<title>c44dbab0&#45;af0e&#45;433c&#45;af0e&#45;d0d2ac708722</title>
<ellipse fill="#0ee832" stroke="black" cx="576" cy="-99.87" rx="139.1" ry="26.74"/>
<text text-anchor="middle" x="576" y="-103.67" font-family="Helvetica,sans-Serif" font-size="14.00">✓ Modify</text>
<text text-anchor="middle" x="576" y="-88.67" font-family="Helvetica,sans-Serif" font-size="14.00">gui_data/sv_ttk/__init__.py</text>
</g>
<!-- 5d676c02&#45;ba43&#45;4029&#45;ab83&#45;88b96643411b&#45;&gt;c44dbab0&#45;af0e&#45;433c&#45;af0e&#45;d0d2ac708722 -->
<g id="edge2" class="edge">
<title>5d676c02&#45;ba43&#45;4029&#45;ab83&#45;88b96643411b&#45;&gt;c44dbab0&#45;af0e&#45;433c&#45;af0e&#45;d0d2ac708722</title>
<path fill="none" stroke="black" d="M351.28,-99.87C376.22,-99.87 401.17,-99.87 426.12,-99.87"/>
<polygon fill="black" stroke="black" points="426.43,-103.37 436.43,-99.87 426.43,-96.37 426.43,-103.37"/>
</g>
<!-- a6986763&#45;76f3&#45;48c8&#45;a163&#45;1a43a7705e44 -->
<g id="node9" class="node">
<title>a6986763&#45;76f3&#45;48c8&#45;a163&#45;1a43a7705e44</title>
<polygon fill="#ee0000" stroke="black" points="362,-36 0,-36 0,0 362,0 362,-36"/>
<text text-anchor="middle" x="181" y="-14.3" font-family="Helvetica,sans-Serif" font-size="14.00">✗ Run GitHub Actions for `gui_data/constants.py`</text>
</g>
<!-- 5d676c02&#45;ba43&#45;4029&#45;ab83&#45;88b96643411b&#45;&gt;a6986763&#45;76f3&#45;48c8&#45;a163&#45;1a43a7705e44 -->
<g id="edge1" class="edge">
<title>5d676c02&#45;ba43&#45;4029&#45;ab83&#45;88b96643411b&#45;&gt;a6986763&#45;76f3&#45;48c8&#45;a163&#45;1a43a7705e44</title>
<path fill="none" stroke="black" stroke-dasharray="5,2" d="M214.9,-73.16C209.25,-64.13 202.9,-53.98 197.24,-44.94"/>
<polygon fill="black" stroke="black" points="200.13,-42.96 191.85,-36.34 194.19,-46.67 200.13,-42.96"/>
</g>
<!-- 1d9eaab8&#45;d001&#45;47be&#45;8c70&#45;4b3066e94ecd -->
<g id="node5" class="node">
<title>1d9eaab8&#45;d001&#45;47be&#45;8c70&#45;4b3066e94ecd</title>
<ellipse fill="white" stroke="black" cx="994" cy="-99.87" rx="152.06" ry="26.74"/>
<text text-anchor="middle" x="994" y="-103.67" font-family="Helvetica,sans-Serif" font-size="14.00">▶ Modify</text>
<text text-anchor="middle" x="994" y="-88.67" font-family="Helvetica,sans-Serif" font-size="14.00">gui_data/sv_ttk/sun&#45;valley.tcl</text>
</g>
<!-- c44dbab0&#45;af0e&#45;433c&#45;af0e&#45;d0d2ac708722&#45;&gt;1d9eaab8&#45;d001&#45;47be&#45;8c70&#45;4b3066e94ecd -->
<g id="edge4" class="edge">
<title>c44dbab0&#45;af0e&#45;433c&#45;af0e&#45;d0d2ac708722&#45;&gt;1d9eaab8&#45;d001&#45;47be&#45;8c70&#45;4b3066e94ecd</title>
<path fill="none" stroke="black" d="M715.61,-99.87C754.21,-99.87 792.81,-99.87 831.4,-99.87"/>
<polygon fill="black" stroke="black" points="831.75,-103.37 841.75,-99.87 831.75,-96.37 831.75,-103.37"/>
</g>
<!-- b3203788&#45;61c0&#45;4815&#45;bf7f&#45;0e9783ed058c -->
<g id="node10" class="node">
<title>b3203788&#45;61c0&#45;4815&#45;bf7f&#45;0e9783ed058c</title>
<polygon fill="yellow" stroke="black" points="772,-36 380,-36 380,0 772,0 772,-36"/>
<text text-anchor="middle" x="576" y="-14.3" font-family="Helvetica,sans-Serif" font-size="14.00">⋯ Run GitHub Actions for `gui_data/sv_ttk/__init__.py`</text>
</g>
<!-- c44dbab0&#45;af0e&#45;433c&#45;af0e&#45;d0d2ac708722&#45;&gt;b3203788&#45;61c0&#45;4815&#45;bf7f&#45;0e9783ed058c -->
<g id="edge3" class="edge">
<title>c44dbab0&#45;af0e&#45;433c&#45;af0e&#45;d0d2ac708722&#45;&gt;b3203788&#45;61c0&#45;4815&#45;bf7f&#45;0e9783ed058c</title>
<path fill="none" stroke="black" stroke-dasharray="5,2" d="M576,-72.72C576,-64.27 576,-54.89 576,-46.36"/>
<polygon fill="black" stroke="black" points="579.5,-46.15 576,-36.15 572.5,-46.15 579.5,-46.15"/>
</g>
<!-- a2ec071f&#45;2cb9&#45;43f9&#45;97da&#45;c1ad52ab1655 -->
<g id="node6" class="node">
<title>a2ec071f&#45;2cb9&#45;43f9&#45;97da&#45;c1ad52ab1655</title>
<ellipse fill="white" stroke="black" cx="1447" cy="-99.87" rx="192.17" ry="26.74"/>
<text text-anchor="middle" x="1447" y="-103.67" font-family="Helvetica,sans-Serif" font-size="14.00">▶ Modify</text>
<text text-anchor="middle" x="1447" y="-88.67" font-family="Helvetica,sans-Serif" font-size="14.00">gui_data/sv_ttk/sun&#45;valley_darwin.tcl</text>
</g>
<!-- 1d9eaab8&#45;d001&#45;47be&#45;8c70&#45;4b3066e94ecd&#45;&gt;a2ec071f&#45;2cb9&#45;43f9&#45;97da&#45;c1ad52ab1655 -->
<g id="edge6" class="edge">
<title>1d9eaab8&#45;d001&#45;47be&#45;8c70&#45;4b3066e94ecd&#45;&gt;a2ec071f&#45;2cb9&#45;43f9&#45;97da&#45;c1ad52ab1655</title>
<path fill="none" stroke="black" d="M1146.18,-99.87C1178.93,-99.87 1211.67,-99.87 1244.42,-99.87"/>
<polygon fill="black" stroke="black" points="1244.58,-103.37 1254.58,-99.87 1244.58,-96.37 1244.58,-103.37"/>
</g>
<!-- 504b12b0&#45;2cef&#45;4274&#45;bcd2&#45;a0d2f1726fda -->
<g id="node11" class="node">
<title>504b12b0&#45;2cef&#45;4274&#45;bcd2&#45;a0d2f1726fda</title>
<polygon fill="white" stroke="black" points="1197.5,-36 790.5,-36 790.5,0 1197.5,0 1197.5,-36"/>
<text text-anchor="middle" x="994" y="-14.3" font-family="Helvetica,sans-Serif" font-size="14.00">▶ Run GitHub Actions for `gui_data/sv_ttk/sun&#45;valley.tcl`</text>
</g>
<!-- 1d9eaab8&#45;d001&#45;47be&#45;8c70&#45;4b3066e94ecd&#45;&gt;504b12b0&#45;2cef&#45;4274&#45;bcd2&#45;a0d2f1726fda -->
<g id="edge5" class="edge">
<title>1d9eaab8&#45;d001&#45;47be&#45;8c70&#45;4b3066e94ecd&#45;&gt;504b12b0&#45;2cef&#45;4274&#45;bcd2&#45;a0d2f1726fda</title>
<path fill="none" stroke="black" stroke-dasharray="5,2" d="M994,-72.72C994,-64.27 994,-54.89 994,-46.36"/>
<polygon fill="black" stroke="black" points="997.5,-46.15 994,-36.15 990.5,-46.15 997.5,-46.15"/>
</g>
<!-- c2c1f0a7&#45;be28&#45;41b1&#45;a13d&#45;0dc9188d5023 -->
<g id="node7" class="node">
<title>c2c1f0a7&#45;be28&#45;41b1&#45;a13d&#45;0dc9188d5023</title>
<ellipse fill="white" stroke="black" cx="1906" cy="-99.87" rx="160.53" ry="26.74"/>
<text text-anchor="middle" x="1906" y="-103.67" font-family="Helvetica,sans-Serif" font-size="14.00">▶ Modify</text>
<text text-anchor="middle" x="1906" y="-88.67" font-family="Helvetica,sans-Serif" font-size="14.00">gui_data/sv_ttk/theme/dark.tcl</text>
</g>
<!-- a2ec071f&#45;2cb9&#45;43f9&#45;97da&#45;c1ad52ab1655&#45;&gt;c2c1f0a7&#45;be28&#45;41b1&#45;a13d&#45;0dc9188d5023 -->
<g id="edge8" class="edge">
<title>a2ec071f&#45;2cb9&#45;43f9&#45;97da&#45;c1ad52ab1655&#45;&gt;c2c1f0a7&#45;be28&#45;41b1&#45;a13d&#45;0dc9188d5023</title>
<path fill="none" stroke="black" d="M1639.74,-99.87C1671.5,-99.87 1703.25,-99.87 1735,-99.87"/>
<polygon fill="black" stroke="black" points="1735.31,-103.37 1745.31,-99.87 1735.31,-96.37 1735.31,-103.37"/>
</g>
<!-- 8a0ae6a0&#45;8389&#45;4d40&#45;a0a0&#45;86c21f43713b -->
<g id="node12" class="node">
<title>8a0ae6a0&#45;8389&#45;4d40&#45;a0a0&#45;86c21f43713b</title>
<polygon fill="white" stroke="black" points="1678.5,-36 1215.5,-36 1215.5,0 1678.5,0 1678.5,-36"/>
<text text-anchor="middle" x="1447" y="-14.3" font-family="Helvetica,sans-Serif" font-size="14.00">▶ Run GitHub Actions for `gui_data/sv_ttk/sun&#45;valley_darwin.tcl`</text>
</g>
<!-- a2ec071f&#45;2cb9&#45;43f9&#45;97da&#45;c1ad52ab1655&#45;&gt;8a0ae6a0&#45;8389&#45;4d40&#45;a0a0&#45;86c21f43713b -->
<g id="edge7" class="edge">
<title>a2ec071f&#45;2cb9&#45;43f9&#45;97da&#45;c1ad52ab1655&#45;&gt;8a0ae6a0&#45;8389&#45;4d40&#45;a0a0&#45;86c21f43713b</title>
<path fill="none" stroke="black" stroke-dasharray="5,2" d="M1447,-72.72C1447,-64.27 1447,-54.89 1447,-46.36"/>
<polygon fill="black" stroke="black" points="1450.5,-46.15 1447,-36.15 1443.5,-46.15 1450.5,-46.15"/>
</g>
<!-- 0d42c683&#45;dbc2&#45;4c89&#45;a095&#45;40e0fa0b83ca -->
<g id="node8" class="node">
<title>0d42c683&#45;dbc2&#45;4c89&#45;a095&#45;40e0fa0b83ca</title>
<ellipse fill="white" stroke="black" cx="2325" cy="-99.87" rx="186.85" ry="26.74"/>
<text text-anchor="middle" x="2325" y="-103.67" font-family="Helvetica,sans-Serif" font-size="14.00">▶ Create</text>
<text text-anchor="middle" x="2325" y="-88.67" font-family="Helvetica,sans-Serif" font-size="14.00">gui_data/sv_ttk/theme/wxpython.tcl</text>
</g>
<!-- c2c1f0a7&#45;be28&#45;41b1&#45;a13d&#45;0dc9188d5023&#45;&gt;0d42c683&#45;dbc2&#45;4c89&#45;a095&#45;40e0fa0b83ca -->
<g id="edge10" class="edge">
<title>c2c1f0a7&#45;be28&#45;41b1&#45;a13d&#45;0dc9188d5023&#45;&gt;0d42c683&#45;dbc2&#45;4c89&#45;a095&#45;40e0fa0b83ca</title>
<path fill="none" stroke="black" d="M2066.81,-99.87C2087.25,-99.87 2107.69,-99.87 2128.13,-99.87"/>
<polygon fill="black" stroke="black" points="2128.16,-103.37 2138.16,-99.87 2128.16,-96.37 2128.16,-103.37"/>
</g>
<!-- 776f8949&#45;5038&#45;45af&#45;a007&#45;393c050863b8 -->
<g id="node13" class="node">
<title>776f8949&#45;5038&#45;45af&#45;a007&#45;393c050863b8</title>
<polygon fill="white" stroke="black" points="2115.5,-36 1696.5,-36 1696.5,0 2115.5,0 2115.5,-36"/>
<text text-anchor="middle" x="1906" y="-14.3" font-family="Helvetica,sans-Serif" font-size="14.00">▶ Run GitHub Actions for `gui_data/sv_ttk/theme/dark.tcl`</text>
</g>
<!-- c2c1f0a7&#45;be28&#45;41b1&#45;a13d&#45;0dc9188d5023&#45;&gt;776f8949&#45;5038&#45;45af&#45;a007&#45;393c050863b8 -->
<g id="edge9" class="edge">
<title>c2c1f0a7&#45;be28&#45;41b1&#45;a13d&#45;0dc9188d5023&#45;&gt;776f8949&#45;5038&#45;45af&#45;a007&#45;393c050863b8</title>
<path fill="none" stroke="black" stroke-dasharray="5,2" d="M1906,-72.72C1906,-64.27 1906,-54.89 1906,-46.36"/>
<polygon fill="black" stroke="black" points="1909.5,-46.15 1906,-36.15 1902.5,-46.15 1909.5,-46.15"/>
</g>
<!-- 0d42c683&#45;dbc2&#45;4c89&#45;a095&#45;40e0fa0b83ca&#45;&gt;end -->
<g id="edge13" class="edge">
<title>0d42c683&#45;dbc2&#45;4c89&#45;a095&#45;40e0fa0b83ca&#45;&gt;end</title>
<path fill="none" stroke="black" d="M2511.94,-99.87C2532.12,-99.87 2549.04,-99.87 2559.31,-99.87"/>
<polygon fill="black" stroke="black" points="2559.37,-103.37 2569.37,-99.87 2559.37,-96.37 2559.37,-103.37"/>
<text text-anchor="middle" x="2540.59" y="-106.67" font-family="Helvetica,sans-Serif" font-size="14.00">Finish</text>
</g>
<!-- 762fddc7&#45;1654&#45;40e4&#45;9990&#45;6a36a4e5ca01 -->
<g id="node14" class="node">
<title>762fddc7&#45;1654&#45;40e4&#45;9990&#45;6a36a4e5ca01</title>
<polygon fill="white" stroke="black" points="2588.5,-36 2133.5,-36 2133.5,0 2588.5,0 2588.5,-36"/>
<text text-anchor="middle" x="2361" y="-14.3" font-family="Helvetica,sans-Serif" font-size="14.00">▶ Run GitHub Actions for `gui_data/sv_ttk/theme/wxpython.tcl`</text>
</g>
<!-- 0d42c683&#45;dbc2&#45;4c89&#45;a095&#45;40e0fa0b83ca&#45;&gt;762fddc7&#45;1654&#45;40e4&#45;9990&#45;6a36a4e5ca01 -->
<g id="edge11" class="edge">
<title>0d42c683&#45;dbc2&#45;4c89&#45;a095&#45;40e0fa0b83ca&#45;&gt;762fddc7&#45;1654&#45;40e4&#45;9990&#45;6a36a4e5ca01</title>
<path fill="none" stroke="black" stroke-dasharray="5,2" d="M2336.79,-72.72C2340.72,-63.99 2345.11,-54.26 2349.05,-45.51"/>
<polygon fill="black" stroke="black" points="2352.35,-46.7 2353.27,-36.15 2345.97,-43.82 2352.35,-46.7"/>
</g>
</g>
</svg>
