<?xml version="1.0" encoding="UTF-8" standalone="no"?>
<!DOCTYPE svg PUBLIC "-//W3C//DTD SVG 1.1//EN"
 "http://www.w3.org/Graphics/SVG/1.1/DTD/svg11.dtd">
<!-- Generated by graphviz version 2.43.0 (0)
 -->
<!-- Title: %3 Pages: 1 -->
<svg width="980pt" height="238pt"
 viewBox="0.00 0.00 980.00 237.74" xmlns="http://www.w3.org/2000/svg" xmlns:xlink="http://www.w3.org/1999/xlink">
<g id="graph0" class="graph" transform="scale(1 1) rotate(0) translate(36 201.74)">
<title>%3</title>
<polygon fill="dimgray" stroke="transparent" points="-36,36 -36,-201.74 944,-201.74 944,36 -36,36"/>
<text text-anchor="middle" x="454" y="-150.54" font-family="Helvetica,sans-Serif" font-size="14.00">Sweep&#39;s Plan &amp; Progress</text>
<!-- start -->
<g id="node1" class="node">
<title>start</title>
</g>
<!-- 20672516&#45;29c1&#45;4bb3&#45;a03d&#45;0d6fb469baf3 -->
<g id="node3" class="node">
<title>20672516&#45;29c1&#45;4bb3&#45;a03d&#45;0d6fb469baf3</title>
<ellipse fill="#0ee832" stroke="black" cx="265.5" cy="-99.87" rx="188.18" ry="26.74"/>
<text text-anchor="middle" x="265.5" y="-103.67" font-family="Helvetica,sans-Serif" font-size="14.00">✓ Modify</text>
<text text-anchor="middle" x="265.5" y="-88.67" font-family="Helvetica,sans-Serif" font-size="14.00">gui_data/tkinterdnd2/TkinterDnD.py</text>
</g>
<!-- start&#45;&gt;20672516&#45;29c1&#45;4bb3&#45;a03d&#45;0d6fb469baf3 -->
<g id="edge4" class="edge">
<title>start&#45;&gt;20672516&#45;29c1&#45;4bb3&#45;a03d&#45;0d6fb469baf3</title>
<path fill="none" stroke="black" d="M26.19,-99.87C29.59,-99.87 45.31,-99.87 67.21,-99.87"/>
<polygon fill="black" stroke="black" points="67.32,-103.37 77.32,-99.87 67.32,-96.37 67.32,-103.37"/>
<text text-anchor="middle" x="51.7" y="-106.67" font-family="Helvetica,sans-Serif" font-size="14.00">Start</text>
</g>
<!-- end -->
<g id="node2" class="node">
<title>end</title>
</g>
<!-- 7676fd38&#45;8dc3&#45;4e09&#45;8aac&#45;f47beed8086f -->
<g id="node4" class="node">
<title>7676fd38&#45;8dc3&#45;4e09&#45;8aac&#45;f47beed8086f</title>
<ellipse fill="#0ee832" stroke="black" cx="674.5" cy="-99.87" rx="166.75" ry="26.74"/>
<text text-anchor="middle" x="674.5" y="-103.67" font-family="Helvetica,sans-Serif" font-size="14.00">✓ Modify</text>
<text text-anchor="middle" x="674.5" y="-88.67" font-family="Helvetica,sans-Serif" font-size="14.00">gui_data/tkinterdnd2/__init__.py</text>
</g>
<!-- 20672516&#45;29c1&#45;4bb3&#45;a03d&#45;0d6fb469baf3&#45;&gt;7676fd38&#45;8dc3&#45;4e09&#45;8aac&#45;f47beed8086f -->
<g id="edge2" class="edge">
<title>20672516&#45;29c1&#45;4bb3&#45;a03d&#45;0d6fb469baf3&#45;&gt;7676fd38&#45;8dc3&#45;4e09&#45;8aac&#45;f47beed8086f</title>
<path fill="none" stroke="black" d="M453.62,-99.87C468.23,-99.87 482.83,-99.87 497.44,-99.87"/>
<polygon fill="black" stroke="black" points="497.55,-103.37 507.55,-99.87 497.55,-96.37 497.55,-103.37"/>
</g>
<!-- c9c4e651&#45;2095&#45;484b&#45;b903&#45;32c668829753 -->
<g id="node5" class="node">
<title>c9c4e651&#45;2095&#45;484b&#45;b903&#45;32c668829753</title>
<polygon fill="#0ee832" stroke="black" points="459,-36 0,-36 0,0 459,0 459,-36"/>
<text text-anchor="middle" x="229.5" y="-14.3" font-family="Helvetica,sans-Serif" font-size="14.00">✓ Run GitHub Actions for `gui_data/tkinterdnd2/TkinterDnD.py`</text>
</g>
<!-- 20672516&#45;29c1&#45;4bb3&#45;a03d&#45;0d6fb469baf3&#45;&gt;c9c4e651&#45;2095&#45;484b&#45;b903&#45;32c668829753 -->
<g id="edge1" class="edge">
<title>20672516&#45;29c1&#45;4bb3&#45;a03d&#45;0d6fb469baf3&#45;&gt;c9c4e651&#45;2095&#45;484b&#45;b903&#45;32c668829753</title>
<path fill="none" stroke="black" stroke-dasharray="5,2" d="M253.71,-72.72C249.78,-63.99 245.39,-54.26 241.45,-45.51"/>
<polygon fill="black" stroke="black" points="244.53,-43.82 237.23,-36.15 238.15,-46.7 244.53,-43.82"/>
</g>
<!-- 7676fd38&#45;8dc3&#45;4e09&#45;8aac&#45;f47beed8086f&#45;&gt;end -->
<g id="edge5" class="edge">
<title>7676fd38&#45;8dc3&#45;4e09&#45;8aac&#45;f47beed8086f&#45;&gt;end</title>
<path fill="none" stroke="black" d="M841.56,-99.87C861.5,-99.87 878.42,-99.87 888.74,-99.87"/>
<polygon fill="black" stroke="black" points="888.86,-103.37 898.86,-99.87 888.86,-96.37 888.86,-103.37"/>
<text text-anchor="middle" x="870.19" y="-106.67" font-family="Helvetica,sans-Serif" font-size="14.00">Finish</text>
</g>
<!-- f0160cd4&#45;1f08&#45;42b0&#45;8496&#45;298d5fc2f462 -->
<g id="node6" class="node">
<title>f0160cd4&#45;1f08&#45;42b0&#45;8496&#45;298d5fc2f462</title>
<polygon fill="yellow" stroke="black" points="908,-36 477,-36 477,0 908,0 908,-36"/>
<text text-anchor="middle" x="692.5" y="-14.3" font-family="Helvetica,sans-Serif" font-size="14.00">⋯ Run GitHub Actions for `gui_data/tkinterdnd2/__init__.py`</text>
</g>
<!-- 7676fd38&#45;8dc3&#45;4e09&#45;8aac&#45;f47beed8086f&#45;&gt;f0160cd4&#45;1f08&#45;42b0&#45;8496&#45;298d5fc2f462 -->
<g id="edge3" class="edge">
<title>7676fd38&#45;8dc3&#45;4e09&#45;8aac&#45;f47beed8086f&#45;&gt;f0160cd4&#45;1f08&#45;42b0&#45;8496&#45;298d5fc2f462</title>
<path fill="none" stroke="black" stroke-dasharray="5,2" d="M680.39,-72.72C682.32,-64.18 684.46,-54.68 686.4,-46.08"/>
<polygon fill="black" stroke="black" points="689.85,-46.67 688.64,-36.15 683.02,-45.13 689.85,-46.67"/>
</g>
</g>
</svg>
