<?xml version="1.0" encoding="UTF-8" standalone="no"?>
<!DOCTYPE svg PUBLIC "-//W3C//DTD SVG 1.1//EN"
 "http://www.w3.org/Graphics/SVG/1.1/DTD/svg11.dtd">
<!-- Generated by graphviz version 2.43.0 (0)
 -->
<!-- Title: %3 Pages: 1 -->
<svg width="1114pt" height="165pt"
 viewBox="0.00 0.00 1114.00 164.74" xmlns="http://www.w3.org/2000/svg" xmlns:xlink="http://www.w3.org/1999/xlink">
<g id="graph0" class="graph" transform="scale(1 1) rotate(0) translate(36 128.74)">
<title>%3</title>
<polygon fill="dimgray" stroke="transparent" points="-36,36 -36,-128.74 1078,-128.74 1078,36 -36,36"/>
<text text-anchor="middle" x="521" y="-77.54" font-family="Helvetica,sans-Serif" font-size="14.00">Sweep&#39;s Plan &amp; Progress</text>
<!-- start -->
<g id="node1" class="node">
<title>start</title>
</g>
<!-- 799ebe07&#45;796c&#45;42bb&#45;bb36&#45;658aeb2111e1 -->
<g id="node3" class="node">
<title>799ebe07&#45;796c&#45;42bb&#45;bb36&#45;658aeb2111e1</title>
<ellipse fill="#0ee832" stroke="black" cx="245.5" cy="-26.87" rx="193.08" ry="26.74"/>
<text text-anchor="middle" x="245.5" y="-30.67" font-family="Helvetica,sans-Serif" font-size="14.00">✓ Create</text>
<text text-anchor="middle" x="245.5" y="-15.67" font-family="Helvetica,sans-Serif" font-size="14.00">gui_data/wxpython/wxpythonDnD.py</text>
</g>
<!-- start&#45;&gt;799ebe07&#45;796c&#45;42bb&#45;bb36&#45;658aeb2111e1 -->
<g id="edge3" class="edge">
<title>start&#45;&gt;799ebe07&#45;796c&#45;42bb&#45;bb36&#45;658aeb2111e1</title>
<path fill="none" stroke="black" d="M1.2,-26.87C4.63,-26.87 20.28,-26.87 42.14,-26.87"/>
<polygon fill="black" stroke="black" points="42.23,-30.37 52.23,-26.87 42.23,-23.37 42.23,-30.37"/>
<text text-anchor="middle" x="26.73" y="-33.67" font-family="Helvetica,sans-Serif" font-size="14.00">Start</text>
</g>
<!-- end -->
<g id="node2" class="node">
<title>end</title>
</g>
<!-- e2264332&#45;c2d9&#45;409e&#45;a28a&#45;f384089b741d -->
<g id="node4" class="node">
<title>e2264332&#45;c2d9&#45;409e&#45;a28a&#45;f384089b741d</title>
<ellipse fill="#0ee832" stroke="black" cx="654.5" cy="-26.87" rx="180.12" ry="26.74"/>
<text text-anchor="middle" x="654.5" y="-30.67" font-family="Helvetica,sans-Serif" font-size="14.00">✓ Create</text>
<text text-anchor="middle" x="654.5" y="-15.67" font-family="Helvetica,sans-Serif" font-size="14.00">gui_data/wxpython/theme/dark.py</text>
</g>
<!-- 799ebe07&#45;796c&#45;42bb&#45;bb36&#45;658aeb2111e1&#45;&gt;e2264332&#45;c2d9&#45;409e&#45;a28a&#45;f384089b741d -->
<g id="edge1" class="edge">
<title>799ebe07&#45;796c&#45;42bb&#45;bb36&#45;658aeb2111e1&#45;&gt;e2264332&#45;c2d9&#45;409e&#45;a28a&#45;f384089b741d</title>
<path fill="none" stroke="black" d="M438.82,-26.87C447.1,-26.87 455.39,-26.87 463.67,-26.87"/>
<polygon fill="black" stroke="black" points="463.78,-30.37 473.78,-26.87 463.78,-23.37 463.78,-30.37"/>
</g>
<!-- 9b831bea&#45;27a9&#45;47e5&#45;8157&#45;b76e577b1c4b -->
<g id="node5" class="node">
<title>9b831bea&#45;27a9&#45;47e5&#45;8157&#45;b76e577b1c4b</title>
<ellipse fill="yellow" stroke="black" cx="926.5" cy="-26.87" rx="56.64" ry="26.74"/>
<text text-anchor="middle" x="926.5" y="-30.67" font-family="Helvetica,sans-Serif" font-size="14.00">⋯ Create</text>
<text text-anchor="middle" x="926.5" y="-15.67" font-family="Helvetica,sans-Serif" font-size="14.00">uvr.py</text>
</g>
<!-- e2264332&#45;c2d9&#45;409e&#45;a28a&#45;f384089b741d&#45;&gt;9b831bea&#45;27a9&#45;47e5&#45;8157&#45;b76e577b1c4b -->
<g id="edge2" class="edge">
<title>e2264332&#45;c2d9&#45;409e&#45;a28a&#45;f384089b741d&#45;&gt;9b831bea&#45;27a9&#45;47e5&#45;8157&#45;b76e577b1c4b</title>
<path fill="none" stroke="black" d="M834.86,-26.87C843.09,-26.87 851.32,-26.87 859.55,-26.87"/>
<polygon fill="black" stroke="black" points="859.58,-30.37 869.58,-26.87 859.58,-23.37 859.58,-30.37"/>
</g>
<!-- 9b831bea&#45;27a9&#45;47e5&#45;8157&#45;b76e577b1c4b&#45;&gt;end -->
<g id="edge4" class="edge">
<title>9b831bea&#45;27a9&#45;47e5&#45;8157&#45;b76e577b1c4b&#45;&gt;end</title>
<path fill="none" stroke="black" d="M983.33,-26.87C1001.38,-26.87 1019.52,-26.87 1030.63,-26.87"/>
<polygon fill="black" stroke="black" points="1030.75,-30.37 1040.75,-26.87 1030.75,-23.37 1030.75,-30.37"/>
<text text-anchor="middle" x="1012.03" y="-33.67" font-family="Helvetica,sans-Serif" font-size="14.00">Finish</text>
</g>
</g>
</svg>
