<?xml version="1.0" encoding="UTF-8" standalone="no"?>
<!DOCTYPE svg PUBLIC "-//W3C//DTD SVG 1.1//EN"
 "http://www.w3.org/Graphics/SVG/1.1/DTD/svg11.dtd">
<!-- Generated by graphviz version 2.43.0 (0)
 -->
<!-- Title: %3 Pages: 1 -->
<svg width="1658pt" height="238pt"
 viewBox="0.00 0.00 1657.50 237.74" xmlns="http://www.w3.org/2000/svg" xmlns:xlink="http://www.w3.org/1999/xlink">
<g id="graph0" class="graph" transform="scale(1 1) rotate(0) translate(36 201.74)">
<title>%3</title>
<polygon fill="dimgray" stroke="transparent" points="-36,36 -36,-201.74 1621.5,-201.74 1621.5,36 -36,36"/>
<text text-anchor="middle" x="792.75" y="-150.54" font-family="Helvetica,sans-Serif" font-size="14.00">Sweep&#39;s Plan &amp; Progress</text>
<!-- start -->
<g id="node1" class="node">
<title>start</title>
</g>
<!-- f7ce1f60&#45;aa2e&#45;483e&#45;9c03&#45;4d2908e1760a -->
<g id="node3" class="node">
<title>f7ce1f60&#45;aa2e&#45;483e&#45;9c03&#45;4d2908e1760a</title>
<ellipse fill="#ee0000" stroke="black" cx="232.5" cy="-99.87" rx="118.17" ry="26.74"/>
<text text-anchor="middle" x="232.5" y="-103.67" font-family="Helvetica,sans-Serif" font-size="14.00">✗ Modify</text>
<text text-anchor="middle" x="232.5" y="-88.67" font-family="Helvetica,sans-Serif" font-size="14.00">demucs/htdemucs.py</text>
</g>
<!-- start&#45;&gt;f7ce1f60&#45;aa2e&#45;483e&#45;9c03&#45;4d2908e1760a -->
<g id="edge8" class="edge">
<title>start&#45;&gt;f7ce1f60&#45;aa2e&#45;483e&#45;9c03&#45;4d2908e1760a</title>
<path fill="none" stroke="black" d="M63.26,-99.87C66.86,-99.87 82.91,-99.87 103.8,-99.87"/>
<polygon fill="black" stroke="black" points="104.06,-103.37 114.06,-99.87 104.06,-96.37 104.06,-103.37"/>
<text text-anchor="middle" x="88.71" y="-106.67" font-family="Helvetica,sans-Serif" font-size="14.00">Start</text>
</g>
<!-- end -->
<g id="node2" class="node">
<title>end</title>
</g>
<!-- 681e51c5&#45;3175&#45;47aa&#45;9ef3&#45;6f5cb708404d -->
<g id="node4" class="node">
<title>681e51c5&#45;3175&#45;47aa&#45;9ef3&#45;6f5cb708404d</title>
<ellipse fill="white" stroke="black" cx="553.5" cy="-99.87" rx="113.69" ry="26.74"/>
<text text-anchor="middle" x="553.5" y="-103.67" font-family="Helvetica,sans-Serif" font-size="14.00">▶ Modify</text>
<text text-anchor="middle" x="553.5" y="-88.67" font-family="Helvetica,sans-Serif" font-size="14.00">demucs/hdemucs.py</text>
</g>
<!-- f7ce1f60&#45;aa2e&#45;483e&#45;9c03&#45;4d2908e1760a&#45;&gt;681e51c5&#45;3175&#45;47aa&#45;9ef3&#45;6f5cb708404d -->
<g id="edge2" class="edge">
<title>f7ce1f60&#45;aa2e&#45;483e&#45;9c03&#45;4d2908e1760a&#45;&gt;681e51c5&#45;3175&#45;47aa&#45;9ef3&#45;6f5cb708404d</title>
<path fill="none" stroke="black" d="M350.68,-99.87C376.91,-99.87 403.14,-99.87 429.36,-99.87"/>
<polygon fill="black" stroke="black" points="429.41,-103.37 439.41,-99.87 429.41,-96.37 429.41,-103.37"/>
</g>
<!-- 72cb9701&#45;238d&#45;4d06&#45;9766&#45;014c5edc8c92 -->
<g id="node7" class="node">
<title>72cb9701&#45;238d&#45;4d06&#45;9766&#45;014c5edc8c92</title>
<polygon fill="#ee0000" stroke="black" points="359,-36 0,-36 0,0 359,0 359,-36"/>
<text text-anchor="middle" x="179.5" y="-14.3" font-family="Helvetica,sans-Serif" font-size="14.00">✗ Run GitHub Actions for `demucs/htdemucs.py`</text>
</g>
<!-- f7ce1f60&#45;aa2e&#45;483e&#45;9c03&#45;4d2908e1760a&#45;&gt;72cb9701&#45;238d&#45;4d06&#45;9766&#45;014c5edc8c92 -->
<g id="edge1" class="edge">
<title>f7ce1f60&#45;aa2e&#45;483e&#45;9c03&#45;4d2908e1760a&#45;&gt;72cb9701&#45;238d&#45;4d06&#45;9766&#45;014c5edc8c92</title>
<path fill="none" stroke="black" stroke-dasharray="5,2" d="M215.44,-73.16C209.45,-64.13 202.71,-53.98 196.71,-44.94"/>
<polygon fill="black" stroke="black" points="199.45,-42.73 191,-36.34 193.62,-46.6 199.45,-42.73"/>
</g>
<!-- 1503fe1b&#45;0d75&#45;416e&#45;9083&#45;15f7ec4b0e3d -->
<g id="node5" class="node">
<title>1503fe1b&#45;0d75&#45;416e&#45;9083&#45;15f7ec4b0e3d</title>
<ellipse fill="white" stroke="black" cx="928.5" cy="-99.87" rx="120.42" ry="26.74"/>
<text text-anchor="middle" x="928.5" y="-103.67" font-family="Helvetica,sans-Serif" font-size="14.00">▶ Modify</text>
<text text-anchor="middle" x="928.5" y="-88.67" font-family="Helvetica,sans-Serif" font-size="14.00">gui_data/constants.py</text>
</g>
<!-- 681e51c5&#45;3175&#45;47aa&#45;9ef3&#45;6f5cb708404d&#45;&gt;1503fe1b&#45;0d75&#45;416e&#45;9083&#45;15f7ec4b0e3d -->
<g id="edge4" class="edge">
<title>681e51c5&#45;3175&#45;47aa&#45;9ef3&#45;6f5cb708404d&#45;&gt;1503fe1b&#45;0d75&#45;416e&#45;9083&#45;15f7ec4b0e3d</title>
<path fill="none" stroke="black" d="M667.39,-99.87C710.92,-99.87 754.45,-99.87 797.97,-99.87"/>
<polygon fill="black" stroke="black" points="798.15,-103.37 808.15,-99.87 798.15,-96.37 798.15,-103.37"/>
</g>
<!-- 555e5adf&#45;1f7a&#45;4663&#45;9ed6&#45;ffae17706084 -->
<g id="node8" class="node">
<title>555e5adf&#45;1f7a&#45;4663&#45;9ed6&#45;ffae17706084</title>
<polygon fill="white" stroke="black" points="730,-36 377,-36 377,0 730,0 730,-36"/>
<text text-anchor="middle" x="553.5" y="-14.3" font-family="Helvetica,sans-Serif" font-size="14.00">▶ Run GitHub Actions for `demucs/hdemucs.py`</text>
</g>
<!-- 681e51c5&#45;3175&#45;47aa&#45;9ef3&#45;6f5cb708404d&#45;&gt;555e5adf&#45;1f7a&#45;4663&#45;9ed6&#45;ffae17706084 -->
<g id="edge3" class="edge">
<title>681e51c5&#45;3175&#45;47aa&#45;9ef3&#45;6f5cb708404d&#45;&gt;555e5adf&#45;1f7a&#45;4663&#45;9ed6&#45;ffae17706084</title>
<path fill="none" stroke="black" stroke-dasharray="5,2" d="M553.5,-72.72C553.5,-64.27 553.5,-54.89 553.5,-46.36"/>
<polygon fill="black" stroke="black" points="557,-46.15 553.5,-36.15 550,-46.15 557,-46.15"/>
</g>
<!-- cd488feb&#45;0318&#45;4a1f&#45;9509&#45;82514a97b2f0 -->
<g id="node6" class="node">
<title>cd488feb&#45;0318&#45;4a1f&#45;9509&#45;82514a97b2f0</title>
<ellipse fill="white" stroke="black" cx="1314.5" cy="-99.87" rx="188.18" ry="26.74"/>
<text text-anchor="middle" x="1314.5" y="-103.67" font-family="Helvetica,sans-Serif" font-size="14.00">▶ Modify</text>
<text text-anchor="middle" x="1314.5" y="-88.67" font-family="Helvetica,sans-Serif" font-size="14.00">gui_data/tkinterdnd2/TkinterDnD.py</text>
</g>
<!-- 1503fe1b&#45;0d75&#45;416e&#45;9083&#45;15f7ec4b0e3d&#45;&gt;cd488feb&#45;0318&#45;4a1f&#45;9509&#45;82514a97b2f0 -->
<g id="edge6" class="edge">
<title>1503fe1b&#45;0d75&#45;416e&#45;9083&#45;15f7ec4b0e3d&#45;&gt;cd488feb&#45;0318&#45;4a1f&#45;9509&#45;82514a97b2f0</title>
<path fill="none" stroke="black" d="M1048.75,-99.87C1071.28,-99.87 1093.81,-99.87 1116.34,-99.87"/>
<polygon fill="black" stroke="black" points="1116.35,-103.37 1126.35,-99.87 1116.35,-96.37 1116.35,-103.37"/>
</g>
<!-- b88848b3&#45;0f7d&#45;495c&#45;83dc&#45;9fb36af76563 -->
<g id="node9" class="node">
<title>b88848b3&#45;0f7d&#45;495c&#45;83dc&#45;9fb36af76563</title>
<polygon fill="white" stroke="black" points="1109,-36 748,-36 748,0 1109,0 1109,-36"/>
<text text-anchor="middle" x="928.5" y="-14.3" font-family="Helvetica,sans-Serif" font-size="14.00">▶ Run GitHub Actions for `gui_data/constants.py`</text>
</g>
<!-- 1503fe1b&#45;0d75&#45;416e&#45;9083&#45;15f7ec4b0e3d&#45;&gt;b88848b3&#45;0f7d&#45;495c&#45;83dc&#45;9fb36af76563 -->
<g id="edge5" class="edge">
<title>1503fe1b&#45;0d75&#45;416e&#45;9083&#45;15f7ec4b0e3d&#45;&gt;b88848b3&#45;0f7d&#45;495c&#45;83dc&#45;9fb36af76563</title>
<path fill="none" stroke="black" stroke-dasharray="5,2" d="M928.5,-72.72C928.5,-64.27 928.5,-54.89 928.5,-46.36"/>
<polygon fill="black" stroke="black" points="932,-46.15 928.5,-36.15 925,-46.15 932,-46.15"/>
</g>
<!-- cd488feb&#45;0318&#45;4a1f&#45;9509&#45;82514a97b2f0&#45;&gt;end -->
<g id="edge9" class="edge">
<title>cd488feb&#45;0318&#45;4a1f&#45;9509&#45;82514a97b2f0&#45;&gt;end</title>
<path fill="none" stroke="black" d="M1502.82,-99.87C1522.66,-99.87 1539.3,-99.87 1549.53,-99.87"/>
<polygon fill="black" stroke="black" points="1549.87,-103.37 1559.87,-99.87 1549.87,-96.37 1549.87,-103.37"/>
<text text-anchor="middle" x="1531.3" y="-106.67" font-family="Helvetica,sans-Serif" font-size="14.00">Finish</text>
</g>
<!-- 9e30d20f&#45;3b64&#45;4002&#45;ba91&#45;f27e8d959223 -->
<g id="node10" class="node">
<title>9e30d20f&#45;3b64&#45;4002&#45;ba91&#45;f27e8d959223</title>
<polygon fill="white" stroke="black" points="1585.5,-36 1127.5,-36 1127.5,0 1585.5,0 1585.5,-36"/>
<text text-anchor="middle" x="1356.5" y="-14.3" font-family="Helvetica,sans-Serif" font-size="14.00">▶ Run GitHub Actions for `gui_data/tkinterdnd2/TkinterDnD.py`</text>
</g>
<!-- cd488feb&#45;0318&#45;4a1f&#45;9509&#45;82514a97b2f0&#45;&gt;9e30d20f&#45;3b64&#45;4002&#45;ba91&#45;f27e8d959223 -->
<g id="edge7" class="edge">
<title>cd488feb&#45;0318&#45;4a1f&#45;9509&#45;82514a97b2f0&#45;&gt;9e30d20f&#45;3b64&#45;4002&#45;ba91&#45;f27e8d959223</title>
<path fill="none" stroke="black" stroke-dasharray="5,2" d="M1328.25,-72.72C1332.89,-63.9 1338.07,-54.05 1342.71,-45.23"/>
<polygon fill="black" stroke="black" points="1345.93,-46.63 1347.48,-36.15 1339.73,-43.37 1345.93,-46.63"/>
</g>
</g>
</svg>
