<?xml version="1.0" encoding="UTF-8" standalone="no"?>
<!DOCTYPE svg PUBLIC "-//W3C//DTD SVG 1.1//EN"
 "http://www.w3.org/Graphics/SVG/1.1/DTD/svg11.dtd">
<!-- Generated by graphviz version 2.43.0 (0)
 -->
<!-- Title: %3 Pages: 1 -->
<svg width="1187pt" height="165pt"
 viewBox="0.00 0.00 1187.00 164.74" xmlns="http://www.w3.org/2000/svg" xmlns:xlink="http://www.w3.org/1999/xlink">
<g id="graph0" class="graph" transform="scale(1 1) rotate(0) translate(36 128.74)">
<title>%3</title>
<polygon fill="dimgray" stroke="transparent" points="-36,36 -36,-128.74 1151,-128.74 1151,36 -36,36"/>
<text text-anchor="middle" x="557.5" y="-77.54" font-family="Helvetica,sans-Serif" font-size="14.00">Sweep&#39;s Plan &amp; Progress</text>
<!-- start -->
<g id="node1" class="node">
<title>start</title>
</g>
<!-- 6a416b43&#45;3f0f&#45;466f&#45;91dd&#45;9134cd2f6ca0 -->
<g id="node3" class="node">
<title>6a416b43&#45;3f0f&#45;466f&#45;91dd&#45;9134cd2f6ca0</title>
<ellipse fill="yellow" stroke="black" cx="276.5" cy="-26.87" rx="224.31" ry="26.74"/>
<text text-anchor="middle" x="276.5" y="-30.67" font-family="Helvetica,sans-Serif" font-size="14.00">⋯ Create</text>
<text text-anchor="middle" x="276.5" y="-15.67" font-family="Helvetica,sans-Serif" font-size="14.00">gui_data/wxpython_dnd2/WxPythonDnD.py</text>
</g>
<!-- start&#45;&gt;6a416b43&#45;3f0f&#45;466f&#45;91dd&#45;9134cd2f6ca0 -->
<g id="edge3" class="edge">
<title>start&#45;&gt;6a416b43&#45;3f0f&#45;466f&#45;91dd&#45;9134cd2f6ca0</title>
<path fill="none" stroke="black" d="M1.29,-26.87C4.86,-26.87 20.21,-26.87 41.99,-26.87"/>
<polygon fill="black" stroke="black" points="42.06,-30.37 52.06,-26.87 42.06,-23.37 42.06,-30.37"/>
<text text-anchor="middle" x="26.67" y="-33.67" font-family="Helvetica,sans-Serif" font-size="14.00">Start</text>
</g>
<!-- end -->
<g id="node2" class="node">
<title>end</title>
</g>
<!-- 73989f4f&#45;02c3&#45;440c&#45;9039&#45;3bb5c8c98f20 -->
<g id="node4" class="node">
<title>73989f4f&#45;02c3&#45;440c&#45;9039&#45;3bb5c8c98f20</title>
<ellipse fill="white" stroke="black" cx="724.5" cy="-26.87" rx="188.18" ry="26.74"/>
<text text-anchor="middle" x="724.5" y="-30.67" font-family="Helvetica,sans-Serif" font-size="14.00">▶ Create</text>
<text text-anchor="middle" x="724.5" y="-15.67" font-family="Helvetica,sans-Serif" font-size="14.00">gui_data/wxpython_dnd2/__init__.py</text>
</g>
<!-- 6a416b43&#45;3f0f&#45;466f&#45;91dd&#45;9134cd2f6ca0&#45;&gt;73989f4f&#45;02c3&#45;440c&#45;9039&#45;3bb5c8c98f20 -->
<g id="edge1" class="edge">
<title>6a416b43&#45;3f0f&#45;466f&#45;91dd&#45;9134cd2f6ca0&#45;&gt;73989f4f&#45;02c3&#45;440c&#45;9039&#45;3bb5c8c98f20</title>
<path fill="none" stroke="black" d="M500.94,-26.87C509.32,-26.87 517.7,-26.87 526.08,-26.87"/>
<polygon fill="black" stroke="black" points="526.31,-30.37 536.31,-26.87 526.31,-23.37 526.31,-30.37"/>
</g>
<!-- 1d7ff2fa&#45;8a3f&#45;4044&#45;8cd6&#45;666555cb2961 -->
<g id="node5" class="node">
<title>1d7ff2fa&#45;8a3f&#45;4044&#45;8cd6&#45;666555cb2961</title>
<ellipse fill="white" stroke="black" cx="1002.5" cy="-26.87" rx="54.39" ry="26.74"/>
<text text-anchor="middle" x="1002.5" y="-30.67" font-family="Helvetica,sans-Serif" font-size="14.00">▶ Create</text>
<text text-anchor="middle" x="1002.5" y="-15.67" font-family="Helvetica,sans-Serif" font-size="14.00">uvr.py</text>
</g>
<!-- 73989f4f&#45;02c3&#45;440c&#45;9039&#45;3bb5c8c98f20&#45;&gt;1d7ff2fa&#45;8a3f&#45;4044&#45;8cd6&#45;666555cb2961 -->
<g id="edge2" class="edge">
<title>73989f4f&#45;02c3&#45;440c&#45;9039&#45;3bb5c8c98f20&#45;&gt;1d7ff2fa&#45;8a3f&#45;4044&#45;8cd6&#45;666555cb2961</title>
<path fill="none" stroke="black" d="M912.64,-26.87C920.96,-26.87 929.28,-26.87 937.59,-26.87"/>
<polygon fill="black" stroke="black" points="937.74,-30.37 947.74,-26.87 937.74,-23.37 937.74,-30.37"/>
</g>
<!-- 1d7ff2fa&#45;8a3f&#45;4044&#45;8cd6&#45;666555cb2961&#45;&gt;end -->
<g id="edge4" class="edge">
<title>1d7ff2fa&#45;8a3f&#45;4044&#45;8cd6&#45;666555cb2961&#45;&gt;end</title>
<path fill="none" stroke="black" d="M1057.19,-26.87C1074.9,-26.87 1092.79,-26.87 1103.76,-26.87"/>
<polygon fill="black" stroke="black" points="1103.76,-30.37 1113.76,-26.87 1103.76,-23.37 1103.76,-30.37"/>
<text text-anchor="middle" x="1085.47" y="-33.67" font-family="Helvetica,sans-Serif" font-size="14.00">Finish</text>
</g>
</g>
</svg>
