<?xml version="1.0" encoding="UTF-8" standalone="no"?>
<!DOCTYPE svg PUBLIC "-//W3C//DTD SVG 1.1//EN"
 "http://www.w3.org/Graphics/SVG/1.1/DTD/svg11.dtd">
<!-- Generated by graphviz version 2.43.0 (0)
 -->
<!-- Title: %3 Pages: 1 -->
<svg width="2655pt" height="238pt"
 viewBox="0.00 0.00 2655.00 237.74" xmlns="http://www.w3.org/2000/svg" xmlns:xlink="http://www.w3.org/1999/xlink">
<g id="graph0" class="graph" transform="scale(1 1) rotate(0) translate(36 201.74)">
<title>%3</title>
<polygon fill="dimgray" stroke="transparent" points="-36,36 -36,-201.74 2619,-201.74 2619,36 -36,36"/>
<text text-anchor="middle" x="1291.5" y="-150.54" font-family="Helvetica,sans-Serif" font-size="14.00">Sweep&#39;s Plan &amp; Progress</text>
<!-- start -->
<g id="node1" class="node">
<title>start</title>
</g>
<!-- 5d676c02&#45;ba43&#45;4029&#45;ab83&#45;88b96643411b -->
<g id="node3" class="node">
<title>5d676c02&#45;ba43&#45;4029&#45;ab83&#45;88b96643411b</title>
<ellipse fill="yellow" stroke="black" cx="228.5" cy="-99.87" rx="120.42" ry="26.74"/>
<text text-anchor="middle" x="228.5" y="-103.67" font-family="Helvetica,sans-Serif" font-size="14.00">⋯ Modify</text>
<text text-anchor="middle" x="228.5" y="-88.67" font-family="Helvetica,sans-Serif" font-size="14.00">gui_data/constants.py</text>
</g>
<!-- start&#45;&gt;5d676c02&#45;ba43&#45;4029&#45;ab83&#45;88b96643411b -->
<g id="edge12" class="edge">
<title>start&#45;&gt;5d676c02&#45;ba43&#45;4029&#45;ab83&#45;88b96643411b</title>
<path fill="none" stroke="black" d="M57.27,-99.87C60.9,-99.87 77.11,-99.87 98.21,-99.87"/>
<polygon fill="black" stroke="black" points="98.22,-103.37 108.22,-99.87 98.22,-96.37 98.22,-103.37"/>
<text text-anchor="middle" x="82.65" y="-106.67" font-family="Helvetica,sans-Serif" font-size="14.00">Start</text>
</g>
<!-- end -->
<g id="node2" class="node">
<title>end</title>
</g>
<!-- c44dbab0&#45;af0e&#45;433c&#45;af0e&#45;d0d2ac708722 -->
<g id="node4" class="node">
<title>c44dbab0&#45;af0e&#45;433c&#45;af0e&#45;d0d2ac708722</title>
<ellipse fill="white" stroke="black" cx="572.5" cy="-99.87" rx="139.1" ry="26.74"/>
<text text-anchor="middle" x="572.5" y="-103.67" font-family="Helvetica,sans-Serif" font-size="14.00">▶ Modify</text>
<text text-anchor="middle" x="572.5" y="-88.67" font-family="Helvetica,sans-Serif" font-size="14.00">gui_data/sv_ttk/__init__.py</text>
</g>
<!-- 5d676c02&#45;ba43&#45;4029&#45;ab83&#45;88b96643411b&#45;&gt;c44dbab0&#45;af0e&#45;433c&#45;af0e&#45;d0d2ac708722 -->
<g id="edge2" class="edge">
<title>5d676c02&#45;ba43&#45;4029&#45;ab83&#45;88b96643411b&#45;&gt;c44dbab0&#45;af0e&#45;433c&#45;af0e&#45;d0d2ac708722</title>
<path fill="none" stroke="black" d="M348.77,-99.87C373.47,-99.87 398.18,-99.87 422.89,-99.87"/>
<polygon fill="black" stroke="black" points="423.1,-103.37 433.1,-99.87 423.1,-96.37 423.1,-103.37"/>
</g>
<!-- a6986763&#45;76f3&#45;48c8&#45;a163&#45;1a43a7705e44 -->
<g id="node9" class="node">
<title>a6986763&#45;76f3&#45;48c8&#45;a163&#45;1a43a7705e44</title>
<polygon fill="white" stroke="black" points="361,-36 0,-36 0,0 361,0 361,-36"/>
<text text-anchor="middle" x="180.5" y="-14.3" font-family="Helvetica,sans-Serif" font-size="14.00">▶ Run GitHub Actions for `gui_data/constants.py`</text>
</g>
<!-- 5d676c02&#45;ba43&#45;4029&#45;ab83&#45;88b96643411b&#45;&gt;a6986763&#45;76f3&#45;48c8&#45;a163&#45;1a43a7705e44 -->
<g id="edge1" class="edge">
<title>5d676c02&#45;ba43&#45;4029&#45;ab83&#45;88b96643411b&#45;&gt;a6986763&#45;76f3&#45;48c8&#45;a163&#45;1a43a7705e44</title>
<path fill="none" stroke="black" stroke-dasharray="5,2" d="M213.05,-73.16C207.62,-64.13 201.52,-53.98 196.09,-44.94"/>
<polygon fill="black" stroke="black" points="199.07,-43.11 190.92,-36.34 193.07,-46.71 199.07,-43.11"/>
</g>
<!-- 1d9eaab8&#45;d001&#45;47be&#45;8c70&#45;4b3066e94ecd -->
<g id="node5" class="node">
<title>1d9eaab8&#45;d001&#45;47be&#45;8c70&#45;4b3066e94ecd</title>
<ellipse fill="white" stroke="black" cx="988.5" cy="-99.87" rx="152.06" ry="26.74"/>
<text text-anchor="middle" x="988.5" y="-103.67" font-family="Helvetica,sans-Serif" font-size="14.00">▶ Modify</text>
<text text-anchor="middle" x="988.5" y="-88.67" font-family="Helvetica,sans-Serif" font-size="14.00">gui_data/sv_ttk/sun&#45;valley.tcl</text>
</g>
<!-- c44dbab0&#45;af0e&#45;433c&#45;af0e&#45;d0d2ac708722&#45;&gt;1d9eaab8&#45;d001&#45;47be&#45;8c70&#45;4b3066e94ecd -->
<g id="edge4" class="edge">
<title>c44dbab0&#45;af0e&#45;433c&#45;af0e&#45;d0d2ac708722&#45;&gt;1d9eaab8&#45;d001&#45;47be&#45;8c70&#45;4b3066e94ecd</title>
<path fill="none" stroke="black" d="M711.84,-99.87C749.95,-99.87 788.07,-99.87 826.18,-99.87"/>
<polygon fill="black" stroke="black" points="826.39,-103.37 836.39,-99.87 826.39,-96.37 826.39,-103.37"/>
</g>
<!-- b3203788&#45;61c0&#45;4815&#45;bf7f&#45;0e9783ed058c -->
<g id="node10" class="node">
<title>b3203788&#45;61c0&#45;4815&#45;bf7f&#45;0e9783ed058c</title>
<polygon fill="white" stroke="black" points="766.5,-36 378.5,-36 378.5,0 766.5,0 766.5,-36"/>
<text text-anchor="middle" x="572.5" y="-14.3" font-family="Helvetica,sans-Serif" font-size="14.00">▶ Run GitHub Actions for `gui_data/sv_ttk/__init__.py`</text>
</g>
<!-- c44dbab0&#45;af0e&#45;433c&#45;af0e&#45;d0d2ac708722&#45;&gt;b3203788&#45;61c0&#45;4815&#45;bf7f&#45;0e9783ed058c -->
<g id="edge3" class="edge">
<title>c44dbab0&#45;af0e&#45;433c&#45;af0e&#45;d0d2ac708722&#45;&gt;b3203788&#45;61c0&#45;4815&#45;bf7f&#45;0e9783ed058c</title>
<path fill="none" stroke="black" stroke-dasharray="5,2" d="M572.5,-72.72C572.5,-64.27 572.5,-54.89 572.5,-46.36"/>
<polygon fill="black" stroke="black" points="576,-46.15 572.5,-36.15 569,-46.15 576,-46.15"/>
</g>
<!-- a2ec071f&#45;2cb9&#45;43f9&#45;97da&#45;c1ad52ab1655 -->
<g id="node6" class="node">
<title>a2ec071f&#45;2cb9&#45;43f9&#45;97da&#45;c1ad52ab1655</title>
<ellipse fill="white" stroke="black" cx="1441.5" cy="-99.87" rx="192.17" ry="26.74"/>
<text text-anchor="middle" x="1441.5" y="-103.67" font-family="Helvetica,sans-Serif" font-size="14.00">▶ Modify</text>
<text text-anchor="middle" x="1441.5" y="-88.67" font-family="Helvetica,sans-Serif" font-size="14.00">gui_data/sv_ttk/sun&#45;valley_darwin.tcl</text>
</g>
<!-- 1d9eaab8&#45;d001&#45;47be&#45;8c70&#45;4b3066e94ecd&#45;&gt;a2ec071f&#45;2cb9&#45;43f9&#45;97da&#45;c1ad52ab1655 -->
<g id="edge6" class="edge">
<title>1d9eaab8&#45;d001&#45;47be&#45;8c70&#45;4b3066e94ecd&#45;&gt;a2ec071f&#45;2cb9&#45;43f9&#45;97da&#45;c1ad52ab1655</title>
<path fill="none" stroke="black" d="M1140.68,-99.87C1173.43,-99.87 1206.17,-99.87 1238.92,-99.87"/>
<polygon fill="black" stroke="black" points="1239.08,-103.37 1249.08,-99.87 1239.08,-96.37 1239.08,-103.37"/>
</g>
<!-- 504b12b0&#45;2cef&#45;4274&#45;bcd2&#45;a0d2f1726fda -->
<g id="node11" class="node">
<title>504b12b0&#45;2cef&#45;4274&#45;bcd2&#45;a0d2f1726fda</title>
<polygon fill="white" stroke="black" points="1192,-36 785,-36 785,0 1192,0 1192,-36"/>
<text text-anchor="middle" x="988.5" y="-14.3" font-family="Helvetica,sans-Serif" font-size="14.00">▶ Run GitHub Actions for `gui_data/sv_ttk/sun&#45;valley.tcl`</text>
</g>
<!-- 1d9eaab8&#45;d001&#45;47be&#45;8c70&#45;4b3066e94ecd&#45;&gt;504b12b0&#45;2cef&#45;4274&#45;bcd2&#45;a0d2f1726fda -->
<g id="edge5" class="edge">
<title>1d9eaab8&#45;d001&#45;47be&#45;8c70&#45;4b3066e94ecd&#45;&gt;504b12b0&#45;2cef&#45;4274&#45;bcd2&#45;a0d2f1726fda</title>
<path fill="none" stroke="black" stroke-dasharray="5,2" d="M988.5,-72.72C988.5,-64.27 988.5,-54.89 988.5,-46.36"/>
<polygon fill="black" stroke="black" points="992,-46.15 988.5,-36.15 985,-46.15 992,-46.15"/>
</g>
<!-- c2c1f0a7&#45;be28&#45;41b1&#45;a13d&#45;0dc9188d5023 -->
<g id="node7" class="node">
<title>c2c1f0a7&#45;be28&#45;41b1&#45;a13d&#45;0dc9188d5023</title>
<ellipse fill="white" stroke="black" cx="1900.5" cy="-99.87" rx="160.53" ry="26.74"/>
<text text-anchor="middle" x="1900.5" y="-103.67" font-family="Helvetica,sans-Serif" font-size="14.00">▶ Modify</text>
<text text-anchor="middle" x="1900.5" y="-88.67" font-family="Helvetica,sans-Serif" font-size="14.00">gui_data/sv_ttk/theme/dark.tcl</text>
</g>
<!-- a2ec071f&#45;2cb9&#45;43f9&#45;97da&#45;c1ad52ab1655&#45;&gt;c2c1f0a7&#45;be28&#45;41b1&#45;a13d&#45;0dc9188d5023 -->
<g id="edge8" class="edge">
<title>a2ec071f&#45;2cb9&#45;43f9&#45;97da&#45;c1ad52ab1655&#45;&gt;c2c1f0a7&#45;be28&#45;41b1&#45;a13d&#45;0dc9188d5023</title>
<path fill="none" stroke="black" d="M1634.24,-99.87C1666,-99.87 1697.75,-99.87 1729.5,-99.87"/>
<polygon fill="black" stroke="black" points="1729.81,-103.37 1739.81,-99.87 1729.81,-96.37 1729.81,-103.37"/>
</g>
<!-- 8a0ae6a0&#45;8389&#45;4d40&#45;a0a0&#45;86c21f43713b -->
<g id="node12" class="node">
<title>8a0ae6a0&#45;8389&#45;4d40&#45;a0a0&#45;86c21f43713b</title>
<polygon fill="white" stroke="black" points="1673,-36 1210,-36 1210,0 1673,0 1673,-36"/>
<text text-anchor="middle" x="1441.5" y="-14.3" font-family="Helvetica,sans-Serif" font-size="14.00">▶ Run GitHub Actions for `gui_data/sv_ttk/sun&#45;valley_darwin.tcl`</text>
</g>
<!-- a2ec071f&#45;2cb9&#45;43f9&#45;97da&#45;c1ad52ab1655&#45;&gt;8a0ae6a0&#45;8389&#45;4d40&#45;a0a0&#45;86c21f43713b -->
<g id="edge7" class="edge">
<title>a2ec071f&#45;2cb9&#45;43f9&#45;97da&#45;c1ad52ab1655&#45;&gt;8a0ae6a0&#45;8389&#45;4d40&#45;a0a0&#45;86c21f43713b</title>
<path fill="none" stroke="black" stroke-dasharray="5,2" d="M1441.5,-72.72C1441.5,-64.27 1441.5,-54.89 1441.5,-46.36"/>
<polygon fill="black" stroke="black" points="1445,-46.15 1441.5,-36.15 1438,-46.15 1445,-46.15"/>
</g>
<!-- 0d42c683&#45;dbc2&#45;4c89&#45;a095&#45;40e0fa0b83ca -->
<g id="node8" class="node">
<title>0d42c683&#45;dbc2&#45;4c89&#45;a095&#45;40e0fa0b83ca</title>
<ellipse fill="white" stroke="black" cx="2319.5" cy="-99.87" rx="186.85" ry="26.74"/>
<text text-anchor="middle" x="2319.5" y="-103.67" font-family="Helvetica,sans-Serif" font-size="14.00">▶ Create</text>
<text text-anchor="middle" x="2319.5" y="-88.67" font-family="Helvetica,sans-Serif" font-size="14.00">gui_data/sv_ttk/theme/wxpython.tcl</text>
</g>
<!-- c2c1f0a7&#45;be28&#45;41b1&#45;a13d&#45;0dc9188d5023&#45;&gt;0d42c683&#45;dbc2&#45;4c89&#45;a095&#45;40e0fa0b83ca -->
<g id="edge10" class="edge">
<title>c2c1f0a7&#45;be28&#45;41b1&#45;a13d&#45;0dc9188d5023&#45;&gt;0d42c683&#45;dbc2&#45;4c89&#45;a095&#45;40e0fa0b83ca</title>
<path fill="none" stroke="black" d="M2061.31,-99.87C2081.75,-99.87 2102.19,-99.87 2122.63,-99.87"/>
<polygon fill="black" stroke="black" points="2122.66,-103.37 2132.66,-99.87 2122.66,-96.37 2122.66,-103.37"/>
</g>
<!-- 776f8949&#45;5038&#45;45af&#45;a007&#45;393c050863b8 -->
<g id="node13" class="node">
<title>776f8949&#45;5038&#45;45af&#45;a007&#45;393c050863b8</title>
<polygon fill="white" stroke="black" points="2110,-36 1691,-36 1691,0 2110,0 2110,-36"/>
<text text-anchor="middle" x="1900.5" y="-14.3" font-family="Helvetica,sans-Serif" font-size="14.00">▶ Run GitHub Actions for `gui_data/sv_ttk/theme/dark.tcl`</text>
</g>
<!-- c2c1f0a7&#45;be28&#45;41b1&#45;a13d&#45;0dc9188d5023&#45;&gt;776f8949&#45;5038&#45;45af&#45;a007&#45;393c050863b8 -->
<g id="edge9" class="edge">
<title>c2c1f0a7&#45;be28&#45;41b1&#45;a13d&#45;0dc9188d5023&#45;&gt;776f8949&#45;5038&#45;45af&#45;a007&#45;393c050863b8</title>
<path fill="none" stroke="black" stroke-dasharray="5,2" d="M1900.5,-72.72C1900.5,-64.27 1900.5,-54.89 1900.5,-46.36"/>
<polygon fill="black" stroke="black" points="1904,-46.15 1900.5,-36.15 1897,-46.15 1904,-46.15"/>
</g>
<!-- 0d42c683&#45;dbc2&#45;4c89&#45;a095&#45;40e0fa0b83ca&#45;&gt;end -->
<g id="edge13" class="edge">
<title>0d42c683&#45;dbc2&#45;4c89&#45;a095&#45;40e0fa0b83ca&#45;&gt;end</title>
<path fill="none" stroke="black" d="M2506.44,-99.87C2526.62,-99.87 2543.54,-99.87 2553.81,-99.87"/>
<polygon fill="black" stroke="black" points="2553.87,-103.37 2563.87,-99.87 2553.87,-96.37 2553.87,-103.37"/>
<text text-anchor="middle" x="2535.09" y="-106.67" font-family="Helvetica,sans-Serif" font-size="14.00">Finish</text>
</g>
<!-- 762fddc7&#45;1654&#45;40e4&#45;9990&#45;6a36a4e5ca01 -->
<g id="node14" class="node">
<title>762fddc7&#45;1654&#45;40e4&#45;9990&#45;6a36a4e5ca01</title>
<polygon fill="white" stroke="black" points="2583,-36 2128,-36 2128,0 2583,0 2583,-36"/>
<text text-anchor="middle" x="2355.5" y="-14.3" font-family="Helvetica,sans-Serif" font-size="14.00">▶ Run GitHub Actions for `gui_data/sv_ttk/theme/wxpython.tcl`</text>
</g>
<!-- 0d42c683&#45;dbc2&#45;4c89&#45;a095&#45;40e0fa0b83ca&#45;&gt;762fddc7&#45;1654&#45;40e4&#45;9990&#45;6a36a4e5ca01 -->
<g id="edge11" class="edge">
<title>0d42c683&#45;dbc2&#45;4c89&#45;a095&#45;40e0fa0b83ca&#45;&gt;762fddc7&#45;1654&#45;40e4&#45;9990&#45;6a36a4e5ca01</title>
<path fill="none" stroke="black" stroke-dasharray="5,2" d="M2331.29,-72.72C2335.22,-63.99 2339.61,-54.26 2343.55,-45.51"/>
<polygon fill="black" stroke="black" points="2346.85,-46.7 2347.77,-36.15 2340.47,-43.82 2346.85,-46.7"/>
</g>
</g>
</svg>
