<?xml version="1.0" encoding="UTF-8" standalone="no"?>
<!DOCTYPE svg PUBLIC "-//W3C//DTD SVG 1.1//EN"
 "http://www.w3.org/Graphics/SVG/1.1/DTD/svg11.dtd">
<!-- Generated by graphviz version 2.43.0 (0)
 -->
<!-- Title: %3 Pages: 1 -->
<svg width="1659pt" height="238pt"
 viewBox="0.00 0.00 1658.50 237.74" xmlns="http://www.w3.org/2000/svg" xmlns:xlink="http://www.w3.org/1999/xlink">
<g id="graph0" class="graph" transform="scale(1 1) rotate(0) translate(36 201.74)">
<title>%3</title>
<polygon fill="dimgray" stroke="transparent" points="-36,36 -36,-201.74 1622.5,-201.74 1622.5,36 -36,36"/>
<text text-anchor="middle" x="793.25" y="-150.54" font-family="Helvetica,sans-Serif" font-size="14.00">Sweep&#39;s Plan &amp; Progress</text>
<!-- start -->
<g id="node1" class="node">
<title>start</title>
</g>
<!-- f7ce1f60&#45;aa2e&#45;483e&#45;9c03&#45;4d2908e1760a -->
<g id="node3" class="node">
<title>f7ce1f60&#45;aa2e&#45;483e&#45;9c03&#45;4d2908e1760a</title>
<ellipse fill="#ee0000" stroke="black" cx="233.5" cy="-99.87" rx="118.17" ry="26.74"/>
<text text-anchor="middle" x="233.5" y="-103.67" font-family="Helvetica,sans-Serif" font-size="14.00">✗ Modify</text>
<text text-anchor="middle" x="233.5" y="-88.67" font-family="Helvetica,sans-Serif" font-size="14.00">demucs/htdemucs.py</text>
</g>
<!-- start&#45;&gt;f7ce1f60&#45;aa2e&#45;483e&#45;9c03&#45;4d2908e1760a -->
<g id="edge8" class="edge">
<title>start&#45;&gt;f7ce1f60&#45;aa2e&#45;483e&#45;9c03&#45;4d2908e1760a</title>
<path fill="none" stroke="black" d="M64.26,-99.87C67.86,-99.87 83.91,-99.87 104.8,-99.87"/>
<polygon fill="black" stroke="black" points="105.06,-103.37 115.06,-99.87 105.06,-96.37 105.06,-103.37"/>
<text text-anchor="middle" x="89.71" y="-106.67" font-family="Helvetica,sans-Serif" font-size="14.00">Start</text>
</g>
<!-- end -->
<g id="node2" class="node">
<title>end</title>
</g>
<!-- 681e51c5&#45;3175&#45;47aa&#45;9ef3&#45;6f5cb708404d -->
<g id="node4" class="node">
<title>681e51c5&#45;3175&#45;47aa&#45;9ef3&#45;6f5cb708404d</title>
<ellipse fill="#ee0000" stroke="black" cx="554.5" cy="-99.87" rx="113.69" ry="26.74"/>
<text text-anchor="middle" x="554.5" y="-103.67" font-family="Helvetica,sans-Serif" font-size="14.00">✗ Modify</text>
<text text-anchor="middle" x="554.5" y="-88.67" font-family="Helvetica,sans-Serif" font-size="14.00">demucs/hdemucs.py</text>
</g>
<!-- f7ce1f60&#45;aa2e&#45;483e&#45;9c03&#45;4d2908e1760a&#45;&gt;681e51c5&#45;3175&#45;47aa&#45;9ef3&#45;6f5cb708404d -->
<g id="edge2" class="edge">
<title>f7ce1f60&#45;aa2e&#45;483e&#45;9c03&#45;4d2908e1760a&#45;&gt;681e51c5&#45;3175&#45;47aa&#45;9ef3&#45;6f5cb708404d</title>
<path fill="none" stroke="black" d="M351.68,-99.87C377.91,-99.87 404.14,-99.87 430.36,-99.87"/>
<polygon fill="black" stroke="black" points="430.41,-103.37 440.41,-99.87 430.41,-96.37 430.41,-103.37"/>
</g>
<!-- 72cb9701&#45;238d&#45;4d06&#45;9766&#45;014c5edc8c92 -->
<g id="node7" class="node">
<title>72cb9701&#45;238d&#45;4d06&#45;9766&#45;014c5edc8c92</title>
<polygon fill="#ee0000" stroke="black" points="359,-36 0,-36 0,0 359,0 359,-36"/>
<text text-anchor="middle" x="179.5" y="-14.3" font-family="Helvetica,sans-Serif" font-size="14.00">✗ Run GitHub Actions for `demucs/htdemucs.py`</text>
</g>
<!-- f7ce1f60&#45;aa2e&#45;483e&#45;9c03&#45;4d2908e1760a&#45;&gt;72cb9701&#45;238d&#45;4d06&#45;9766&#45;014c5edc8c92 -->
<g id="edge1" class="edge">
<title>f7ce1f60&#45;aa2e&#45;483e&#45;9c03&#45;4d2908e1760a&#45;&gt;72cb9701&#45;238d&#45;4d06&#45;9766&#45;014c5edc8c92</title>
<path fill="none" stroke="black" stroke-dasharray="5,2" d="M216.12,-73.16C209.95,-64.04 203.01,-53.77 196.84,-44.65"/>
<polygon fill="black" stroke="black" points="199.72,-42.66 191.22,-36.34 193.92,-46.58 199.72,-42.66"/>
</g>
<!-- 1503fe1b&#45;0d75&#45;416e&#45;9083&#45;15f7ec4b0e3d -->
<g id="node5" class="node">
<title>1503fe1b&#45;0d75&#45;416e&#45;9083&#45;15f7ec4b0e3d</title>
<ellipse fill="white" stroke="black" cx="929.5" cy="-99.87" rx="120.42" ry="26.74"/>
<text text-anchor="middle" x="929.5" y="-103.67" font-family="Helvetica,sans-Serif" font-size="14.00">▶ Modify</text>
<text text-anchor="middle" x="929.5" y="-88.67" font-family="Helvetica,sans-Serif" font-size="14.00">gui_data/constants.py</text>
</g>
<!-- 681e51c5&#45;3175&#45;47aa&#45;9ef3&#45;6f5cb708404d&#45;&gt;1503fe1b&#45;0d75&#45;416e&#45;9083&#45;15f7ec4b0e3d -->
<g id="edge4" class="edge">
<title>681e51c5&#45;3175&#45;47aa&#45;9ef3&#45;6f5cb708404d&#45;&gt;1503fe1b&#45;0d75&#45;416e&#45;9083&#45;15f7ec4b0e3d</title>
<path fill="none" stroke="black" d="M668.39,-99.87C711.92,-99.87 755.45,-99.87 798.97,-99.87"/>
<polygon fill="black" stroke="black" points="799.15,-103.37 809.15,-99.87 799.15,-96.37 799.15,-103.37"/>
</g>
<!-- 555e5adf&#45;1f7a&#45;4663&#45;9ed6&#45;ffae17706084 -->
<g id="node8" class="node">
<title>555e5adf&#45;1f7a&#45;4663&#45;9ed6&#45;ffae17706084</title>
<polygon fill="#ee0000" stroke="black" points="731.5,-36 377.5,-36 377.5,0 731.5,0 731.5,-36"/>
<text text-anchor="middle" x="554.5" y="-14.3" font-family="Helvetica,sans-Serif" font-size="14.00">✗ Run GitHub Actions for `demucs/hdemucs.py`</text>
</g>
<!-- 681e51c5&#45;3175&#45;47aa&#45;9ef3&#45;6f5cb708404d&#45;&gt;555e5adf&#45;1f7a&#45;4663&#45;9ed6&#45;ffae17706084 -->
<g id="edge3" class="edge">
<title>681e51c5&#45;3175&#45;47aa&#45;9ef3&#45;6f5cb708404d&#45;&gt;555e5adf&#45;1f7a&#45;4663&#45;9ed6&#45;ffae17706084</title>
<path fill="none" stroke="black" stroke-dasharray="5,2" d="M554.5,-72.72C554.5,-64.27 554.5,-54.89 554.5,-46.36"/>
<polygon fill="black" stroke="black" points="558,-46.15 554.5,-36.15 551,-46.15 558,-46.15"/>
</g>
<!-- cd488feb&#45;0318&#45;4a1f&#45;9509&#45;82514a97b2f0 -->
<g id="node6" class="node">
<title>cd488feb&#45;0318&#45;4a1f&#45;9509&#45;82514a97b2f0</title>
<ellipse fill="white" stroke="black" cx="1315.5" cy="-99.87" rx="188.18" ry="26.74"/>
<text text-anchor="middle" x="1315.5" y="-103.67" font-family="Helvetica,sans-Serif" font-size="14.00">▶ Modify</text>
<text text-anchor="middle" x="1315.5" y="-88.67" font-family="Helvetica,sans-Serif" font-size="14.00">gui_data/tkinterdnd2/TkinterDnD.py</text>
</g>
<!-- 1503fe1b&#45;0d75&#45;416e&#45;9083&#45;15f7ec4b0e3d&#45;&gt;cd488feb&#45;0318&#45;4a1f&#45;9509&#45;82514a97b2f0 -->
<g id="edge6" class="edge">
<title>1503fe1b&#45;0d75&#45;416e&#45;9083&#45;15f7ec4b0e3d&#45;&gt;cd488feb&#45;0318&#45;4a1f&#45;9509&#45;82514a97b2f0</title>
<path fill="none" stroke="black" d="M1049.75,-99.87C1072.28,-99.87 1094.81,-99.87 1117.34,-99.87"/>
<polygon fill="black" stroke="black" points="1117.35,-103.37 1127.35,-99.87 1117.35,-96.37 1117.35,-103.37"/>
</g>
<!-- b88848b3&#45;0f7d&#45;495c&#45;83dc&#45;9fb36af76563 -->
<g id="node9" class="node">
<title>b88848b3&#45;0f7d&#45;495c&#45;83dc&#45;9fb36af76563</title>
<polygon fill="white" stroke="black" points="1110,-36 749,-36 749,0 1110,0 1110,-36"/>
<text text-anchor="middle" x="929.5" y="-14.3" font-family="Helvetica,sans-Serif" font-size="14.00">▶ Run GitHub Actions for `gui_data/constants.py`</text>
</g>
<!-- 1503fe1b&#45;0d75&#45;416e&#45;9083&#45;15f7ec4b0e3d&#45;&gt;b88848b3&#45;0f7d&#45;495c&#45;83dc&#45;9fb36af76563 -->
<g id="edge5" class="edge">
<title>1503fe1b&#45;0d75&#45;416e&#45;9083&#45;15f7ec4b0e3d&#45;&gt;b88848b3&#45;0f7d&#45;495c&#45;83dc&#45;9fb36af76563</title>
<path fill="none" stroke="black" stroke-dasharray="5,2" d="M929.5,-72.72C929.5,-64.27 929.5,-54.89 929.5,-46.36"/>
<polygon fill="black" stroke="black" points="933,-46.15 929.5,-36.15 926,-46.15 933,-46.15"/>
</g>
<!-- cd488feb&#45;0318&#45;4a1f&#45;9509&#45;82514a97b2f0&#45;&gt;end -->
<g id="edge9" class="edge">
<title>cd488feb&#45;0318&#45;4a1f&#45;9509&#45;82514a97b2f0&#45;&gt;end</title>
<path fill="none" stroke="black" d="M1503.82,-99.87C1523.66,-99.87 1540.3,-99.87 1550.53,-99.87"/>
<polygon fill="black" stroke="black" points="1550.87,-103.37 1560.87,-99.87 1550.87,-96.37 1550.87,-103.37"/>
<text text-anchor="middle" x="1532.3" y="-106.67" font-family="Helvetica,sans-Serif" font-size="14.00">Finish</text>
</g>
<!-- 9e30d20f&#45;3b64&#45;4002&#45;ba91&#45;f27e8d959223 -->
<g id="node10" class="node">
<title>9e30d20f&#45;3b64&#45;4002&#45;ba91&#45;f27e8d959223</title>
<polygon fill="white" stroke="black" points="1586.5,-36 1128.5,-36 1128.5,0 1586.5,0 1586.5,-36"/>
<text text-anchor="middle" x="1357.5" y="-14.3" font-family="Helvetica,sans-Serif" font-size="14.00">▶ Run GitHub Actions for `gui_data/tkinterdnd2/TkinterDnD.py`</text>
</g>
<!-- cd488feb&#45;0318&#45;4a1f&#45;9509&#45;82514a97b2f0&#45;&gt;9e30d20f&#45;3b64&#45;4002&#45;ba91&#45;f27e8d959223 -->
<g id="edge7" class="edge">
<title>cd488feb&#45;0318&#45;4a1f&#45;9509&#45;82514a97b2f0&#45;&gt;9e30d20f&#45;3b64&#45;4002&#45;ba91&#45;f27e8d959223</title>
<path fill="none" stroke="black" stroke-dasharray="5,2" d="M1329.25,-72.72C1333.89,-63.9 1339.07,-54.05 1343.71,-45.23"/>
<polygon fill="black" stroke="black" points="1346.93,-46.63 1348.48,-36.15 1340.73,-43.37 1346.93,-46.63"/>
</g>
</g>
</svg>
