<?xml version="1.0" encoding="UTF-8" standalone="no"?>
<!DOCTYPE svg PUBLIC "-//W3C//DTD SVG 1.1//EN"
 "http://www.w3.org/Graphics/SVG/1.1/DTD/svg11.dtd">
<!-- Generated by graphviz version 2.43.0 (0)
 -->
<!-- Title: %3 Pages: 1 -->
<svg width="1657pt" height="238pt"
 viewBox="0.00 0.00 1657.00 237.74" xmlns="http://www.w3.org/2000/svg" xmlns:xlink="http://www.w3.org/1999/xlink">
<g id="graph0" class="graph" transform="scale(1 1) rotate(0) translate(36 201.74)">
<title>%3</title>
<polygon fill="dimgray" stroke="transparent" points="-36,36 -36,-201.74 1621,-201.74 1621,36 -36,36"/>
<text text-anchor="middle" x="792.5" y="-150.54" font-family="Helvetica,sans-Serif" font-size="14.00">Sweep&#39;s Plan &amp; Progress</text>
<!-- start -->
<g id="node1" class="node">
<title>start</title>
</g>
<!-- f7ce1f60&#45;aa2e&#45;483e&#45;9c03&#45;4d2908e1760a -->
<g id="node3" class="node">
<title>f7ce1f60&#45;aa2e&#45;483e&#45;9c03&#45;4d2908e1760a</title>
<ellipse fill="yellow" stroke="black" cx="232" cy="-99.87" rx="118.17" ry="26.74"/>
<text text-anchor="middle" x="232" y="-103.67" font-family="Helvetica,sans-Serif" font-size="14.00">⋯ Modify</text>
<text text-anchor="middle" x="232" y="-88.67" font-family="Helvetica,sans-Serif" font-size="14.00">demucs/htdemucs.py</text>
</g>
<!-- start&#45;&gt;f7ce1f60&#45;aa2e&#45;483e&#45;9c03&#45;4d2908e1760a -->
<g id="edge8" class="edge">
<title>start&#45;&gt;f7ce1f60&#45;aa2e&#45;483e&#45;9c03&#45;4d2908e1760a</title>
<path fill="none" stroke="black" d="M62.76,-99.87C66.36,-99.87 82.41,-99.87 103.3,-99.87"/>
<polygon fill="black" stroke="black" points="103.56,-103.37 113.56,-99.87 103.56,-96.37 103.56,-103.37"/>
<text text-anchor="middle" x="88.21" y="-106.67" font-family="Helvetica,sans-Serif" font-size="14.00">Start</text>
</g>
<!-- end -->
<g id="node2" class="node">
<title>end</title>
</g>
<!-- 681e51c5&#45;3175&#45;47aa&#45;9ef3&#45;6f5cb708404d -->
<g id="node4" class="node">
<title>681e51c5&#45;3175&#45;47aa&#45;9ef3&#45;6f5cb708404d</title>
<ellipse fill="white" stroke="black" cx="553" cy="-99.87" rx="113.69" ry="26.74"/>
<text text-anchor="middle" x="553" y="-103.67" font-family="Helvetica,sans-Serif" font-size="14.00">▶ Modify</text>
<text text-anchor="middle" x="553" y="-88.67" font-family="Helvetica,sans-Serif" font-size="14.00">demucs/hdemucs.py</text>
</g>
<!-- f7ce1f60&#45;aa2e&#45;483e&#45;9c03&#45;4d2908e1760a&#45;&gt;681e51c5&#45;3175&#45;47aa&#45;9ef3&#45;6f5cb708404d -->
<g id="edge2" class="edge">
<title>f7ce1f60&#45;aa2e&#45;483e&#45;9c03&#45;4d2908e1760a&#45;&gt;681e51c5&#45;3175&#45;47aa&#45;9ef3&#45;6f5cb708404d</title>
<path fill="none" stroke="black" d="M350.18,-99.87C376.41,-99.87 402.64,-99.87 428.86,-99.87"/>
<polygon fill="black" stroke="black" points="428.91,-103.37 438.91,-99.87 428.91,-96.37 428.91,-103.37"/>
</g>
<!-- 72cb9701&#45;238d&#45;4d06&#45;9766&#45;014c5edc8c92 -->
<g id="node7" class="node">
<title>72cb9701&#45;238d&#45;4d06&#45;9766&#45;014c5edc8c92</title>
<polygon fill="white" stroke="black" points="358,-36 0,-36 0,0 358,0 358,-36"/>
<text text-anchor="middle" x="179" y="-14.3" font-family="Helvetica,sans-Serif" font-size="14.00">▶ Run GitHub Actions for `demucs/htdemucs.py`</text>
</g>
<!-- f7ce1f60&#45;aa2e&#45;483e&#45;9c03&#45;4d2908e1760a&#45;&gt;72cb9701&#45;238d&#45;4d06&#45;9766&#45;014c5edc8c92 -->
<g id="edge1" class="edge">
<title>f7ce1f60&#45;aa2e&#45;483e&#45;9c03&#45;4d2908e1760a&#45;&gt;72cb9701&#45;238d&#45;4d06&#45;9766&#45;014c5edc8c92</title>
<path fill="none" stroke="black" stroke-dasharray="5,2" d="M214.94,-73.16C208.95,-64.13 202.21,-53.98 196.21,-44.94"/>
<polygon fill="black" stroke="black" points="198.95,-42.73 190.5,-36.34 193.12,-46.6 198.95,-42.73"/>
</g>
<!-- 1503fe1b&#45;0d75&#45;416e&#45;9083&#45;15f7ec4b0e3d -->
<g id="node5" class="node">
<title>1503fe1b&#45;0d75&#45;416e&#45;9083&#45;15f7ec4b0e3d</title>
<ellipse fill="white" stroke="black" cx="928" cy="-99.87" rx="120.42" ry="26.74"/>
<text text-anchor="middle" x="928" y="-103.67" font-family="Helvetica,sans-Serif" font-size="14.00">▶ Modify</text>
<text text-anchor="middle" x="928" y="-88.67" font-family="Helvetica,sans-Serif" font-size="14.00">gui_data/constants.py</text>
</g>
<!-- 681e51c5&#45;3175&#45;47aa&#45;9ef3&#45;6f5cb708404d&#45;&gt;1503fe1b&#45;0d75&#45;416e&#45;9083&#45;15f7ec4b0e3d -->
<g id="edge4" class="edge">
<title>681e51c5&#45;3175&#45;47aa&#45;9ef3&#45;6f5cb708404d&#45;&gt;1503fe1b&#45;0d75&#45;416e&#45;9083&#45;15f7ec4b0e3d</title>
<path fill="none" stroke="black" d="M666.89,-99.87C710.42,-99.87 753.95,-99.87 797.47,-99.87"/>
<polygon fill="black" stroke="black" points="797.65,-103.37 807.65,-99.87 797.65,-96.37 797.65,-103.37"/>
</g>
<!-- 555e5adf&#45;1f7a&#45;4663&#45;9ed6&#45;ffae17706084 -->
<g id="node8" class="node">
<title>555e5adf&#45;1f7a&#45;4663&#45;9ed6&#45;ffae17706084</title>
<polygon fill="white" stroke="black" points="729.5,-36 376.5,-36 376.5,0 729.5,0 729.5,-36"/>
<text text-anchor="middle" x="553" y="-14.3" font-family="Helvetica,sans-Serif" font-size="14.00">▶ Run GitHub Actions for `demucs/hdemucs.py`</text>
</g>
<!-- 681e51c5&#45;3175&#45;47aa&#45;9ef3&#45;6f5cb708404d&#45;&gt;555e5adf&#45;1f7a&#45;4663&#45;9ed6&#45;ffae17706084 -->
<g id="edge3" class="edge">
<title>681e51c5&#45;3175&#45;47aa&#45;9ef3&#45;6f5cb708404d&#45;&gt;555e5adf&#45;1f7a&#45;4663&#45;9ed6&#45;ffae17706084</title>
<path fill="none" stroke="black" stroke-dasharray="5,2" d="M553,-72.72C553,-64.27 553,-54.89 553,-46.36"/>
<polygon fill="black" stroke="black" points="556.5,-46.15 553,-36.15 549.5,-46.15 556.5,-46.15"/>
</g>
<!-- cd488feb&#45;0318&#45;4a1f&#45;9509&#45;82514a97b2f0 -->
<g id="node6" class="node">
<title>cd488feb&#45;0318&#45;4a1f&#45;9509&#45;82514a97b2f0</title>
<ellipse fill="white" stroke="black" cx="1314" cy="-99.87" rx="188.18" ry="26.74"/>
<text text-anchor="middle" x="1314" y="-103.67" font-family="Helvetica,sans-Serif" font-size="14.00">▶ Modify</text>
<text text-anchor="middle" x="1314" y="-88.67" font-family="Helvetica,sans-Serif" font-size="14.00">gui_data/tkinterdnd2/TkinterDnD.py</text>
</g>
<!-- 1503fe1b&#45;0d75&#45;416e&#45;9083&#45;15f7ec4b0e3d&#45;&gt;cd488feb&#45;0318&#45;4a1f&#45;9509&#45;82514a97b2f0 -->
<g id="edge6" class="edge">
<title>1503fe1b&#45;0d75&#45;416e&#45;9083&#45;15f7ec4b0e3d&#45;&gt;cd488feb&#45;0318&#45;4a1f&#45;9509&#45;82514a97b2f0</title>
<path fill="none" stroke="black" d="M1048.25,-99.87C1070.78,-99.87 1093.31,-99.87 1115.84,-99.87"/>
<polygon fill="black" stroke="black" points="1115.85,-103.37 1125.85,-99.87 1115.85,-96.37 1115.85,-103.37"/>
</g>
<!-- b88848b3&#45;0f7d&#45;495c&#45;83dc&#45;9fb36af76563 -->
<g id="node9" class="node">
<title>b88848b3&#45;0f7d&#45;495c&#45;83dc&#45;9fb36af76563</title>
<polygon fill="white" stroke="black" points="1108.5,-36 747.5,-36 747.5,0 1108.5,0 1108.5,-36"/>
<text text-anchor="middle" x="928" y="-14.3" font-family="Helvetica,sans-Serif" font-size="14.00">▶ Run GitHub Actions for `gui_data/constants.py`</text>
</g>
<!-- 1503fe1b&#45;0d75&#45;416e&#45;9083&#45;15f7ec4b0e3d&#45;&gt;b88848b3&#45;0f7d&#45;495c&#45;83dc&#45;9fb36af76563 -->
<g id="edge5" class="edge">
<title>1503fe1b&#45;0d75&#45;416e&#45;9083&#45;15f7ec4b0e3d&#45;&gt;b88848b3&#45;0f7d&#45;495c&#45;83dc&#45;9fb36af76563</title>
<path fill="none" stroke="black" stroke-dasharray="5,2" d="M928,-72.72C928,-64.27 928,-54.89 928,-46.36"/>
<polygon fill="black" stroke="black" points="931.5,-46.15 928,-36.15 924.5,-46.15 931.5,-46.15"/>
</g>
<!-- cd488feb&#45;0318&#45;4a1f&#45;9509&#45;82514a97b2f0&#45;&gt;end -->
<g id="edge9" class="edge">
<title>cd488feb&#45;0318&#45;4a1f&#45;9509&#45;82514a97b2f0&#45;&gt;end</title>
<path fill="none" stroke="black" d="M1502.32,-99.87C1522.16,-99.87 1538.8,-99.87 1549.03,-99.87"/>
<polygon fill="black" stroke="black" points="1549.37,-103.37 1559.37,-99.87 1549.37,-96.37 1549.37,-103.37"/>
<text text-anchor="middle" x="1530.8" y="-106.67" font-family="Helvetica,sans-Serif" font-size="14.00">Finish</text>
</g>
<!-- 9e30d20f&#45;3b64&#45;4002&#45;ba91&#45;f27e8d959223 -->
<g id="node10" class="node">
<title>9e30d20f&#45;3b64&#45;4002&#45;ba91&#45;f27e8d959223</title>
<polygon fill="white" stroke="black" points="1585,-36 1127,-36 1127,0 1585,0 1585,-36"/>
<text text-anchor="middle" x="1356" y="-14.3" font-family="Helvetica,sans-Serif" font-size="14.00">▶ Run GitHub Actions for `gui_data/tkinterdnd2/TkinterDnD.py`</text>
</g>
<!-- cd488feb&#45;0318&#45;4a1f&#45;9509&#45;82514a97b2f0&#45;&gt;9e30d20f&#45;3b64&#45;4002&#45;ba91&#45;f27e8d959223 -->
<g id="edge7" class="edge">
<title>cd488feb&#45;0318&#45;4a1f&#45;9509&#45;82514a97b2f0&#45;&gt;9e30d20f&#45;3b64&#45;4002&#45;ba91&#45;f27e8d959223</title>
<path fill="none" stroke="black" stroke-dasharray="5,2" d="M1327.75,-72.72C1332.39,-63.9 1337.57,-54.05 1342.21,-45.23"/>
<polygon fill="black" stroke="black" points="1345.43,-46.63 1346.98,-36.15 1339.23,-43.37 1345.43,-46.63"/>
</g>
</g>
</svg>
