<?xml version="1.0" encoding="UTF-8" standalone="no"?>
<!DOCTYPE svg PUBLIC "-//W3C//DTD SVG 1.1//EN"
 "http://www.w3.org/Graphics/SVG/1.1/DTD/svg11.dtd">
<!-- Generated by graphviz version 2.43.0 (0)
 -->
<!-- Title: %3 Pages: 1 -->
<svg width="1660pt" height="238pt"
 viewBox="0.00 0.00 1659.50 237.74" xmlns="http://www.w3.org/2000/svg" xmlns:xlink="http://www.w3.org/1999/xlink">
<g id="graph0" class="graph" transform="scale(1 1) rotate(0) translate(36 201.74)">
<title>%3</title>
<polygon fill="dimgray" stroke="transparent" points="-36,36 -36,-201.74 1623.5,-201.74 1623.5,36 -36,36"/>
<text text-anchor="middle" x="793.75" y="-150.54" font-family="Helvetica,sans-Serif" font-size="14.00">Sweep&#39;s Plan &amp; Progress</text>
<!-- start -->
<g id="node1" class="node">
<title>start</title>
</g>
<!-- 969f580c&#45;bd95&#45;4d58&#45;883a&#45;40d8b2c7208a -->
<g id="node3" class="node">
<title>969f580c&#45;bd95&#45;4d58&#45;883a&#45;40d8b2c7208a</title>
<ellipse fill="#ee0000" stroke="black" cx="233" cy="-99.87" rx="120.42" ry="26.74"/>
<text text-anchor="middle" x="233" y="-103.67" font-family="Helvetica,sans-Serif" font-size="14.00">✗ Modify</text>
<text text-anchor="middle" x="233" y="-88.67" font-family="Helvetica,sans-Serif" font-size="14.00">gui_data/constants.py</text>
</g>
<!-- start&#45;&gt;969f580c&#45;bd95&#45;4d58&#45;883a&#45;40d8b2c7208a -->
<g id="edge8" class="edge">
<title>start&#45;&gt;969f580c&#45;bd95&#45;4d58&#45;883a&#45;40d8b2c7208a</title>
<path fill="none" stroke="black" d="M61.77,-99.87C65.4,-99.87 81.61,-99.87 102.71,-99.87"/>
<polygon fill="black" stroke="black" points="102.72,-103.37 112.72,-99.87 102.72,-96.37 102.72,-103.37"/>
<text text-anchor="middle" x="87.15" y="-106.67" font-family="Helvetica,sans-Serif" font-size="14.00">Start</text>
</g>
<!-- end -->
<g id="node2" class="node">
<title>end</title>
</g>
<!-- ef2c72c8&#45;5e51&#45;4ecb&#45;b005&#45;18a81ce38813 -->
<g id="node4" class="node">
<title>ef2c72c8&#45;5e51&#45;4ecb&#45;b005&#45;18a81ce38813</title>
<ellipse fill="#ee0000" stroke="black" cx="560" cy="-99.87" rx="118.17" ry="26.74"/>
<text text-anchor="middle" x="560" y="-103.67" font-family="Helvetica,sans-Serif" font-size="14.00">✗ Modify</text>
<text text-anchor="middle" x="560" y="-88.67" font-family="Helvetica,sans-Serif" font-size="14.00">demucs/htdemucs.py</text>
</g>
<!-- 969f580c&#45;bd95&#45;4d58&#45;883a&#45;40d8b2c7208a&#45;&gt;ef2c72c8&#45;5e51&#45;4ecb&#45;b005&#45;18a81ce38813 -->
<g id="edge2" class="edge">
<title>969f580c&#45;bd95&#45;4d58&#45;883a&#45;40d8b2c7208a&#45;&gt;ef2c72c8&#45;5e51&#45;4ecb&#45;b005&#45;18a81ce38813</title>
<path fill="none" stroke="black" d="M353.39,-99.87C379.51,-99.87 405.63,-99.87 431.75,-99.87"/>
<polygon fill="black" stroke="black" points="431.76,-103.37 441.76,-99.87 431.76,-96.37 431.76,-103.37"/>
</g>
<!-- 645b7c84&#45;9dc7&#45;4f3b&#45;9d2e&#45;56a194fd1ce5 -->
<g id="node7" class="node">
<title>645b7c84&#45;9dc7&#45;4f3b&#45;9d2e&#45;56a194fd1ce5</title>
<polygon fill="#ee0000" stroke="black" points="362,-36 0,-36 0,0 362,0 362,-36"/>
<text text-anchor="middle" x="181" y="-14.3" font-family="Helvetica,sans-Serif" font-size="14.00">✗ Run GitHub Actions for `gui_data/constants.py`</text>
</g>
<!-- 969f580c&#45;bd95&#45;4d58&#45;883a&#45;40d8b2c7208a&#45;&gt;645b7c84&#45;9dc7&#45;4f3b&#45;9d2e&#45;56a194fd1ce5 -->
<g id="edge1" class="edge">
<title>969f580c&#45;bd95&#45;4d58&#45;883a&#45;40d8b2c7208a&#45;&gt;645b7c84&#45;9dc7&#45;4f3b&#45;9d2e&#45;56a194fd1ce5</title>
<path fill="none" stroke="black" stroke-dasharray="5,2" d="M216.26,-73.16C210.38,-64.13 203.78,-53.98 197.89,-44.94"/>
<polygon fill="black" stroke="black" points="200.68,-42.81 192.29,-36.34 194.81,-46.63 200.68,-42.81"/>
</g>
<!-- a29f7fae&#45;78fb&#45;40f2&#45;9a9d&#45;015a72ac05c4 -->
<g id="node5" class="node">
<title>a29f7fae&#45;78fb&#45;40f2&#45;9a9d&#45;015a72ac05c4</title>
<ellipse fill="white" stroke="black" cx="987" cy="-99.87" rx="188.18" ry="26.74"/>
<text text-anchor="middle" x="987" y="-103.67" font-family="Helvetica,sans-Serif" font-size="14.00">▶ Modify</text>
<text text-anchor="middle" x="987" y="-88.67" font-family="Helvetica,sans-Serif" font-size="14.00">gui_data/tkinterdnd2/TkinterDnD.py</text>
</g>
<!-- ef2c72c8&#45;5e51&#45;4ecb&#45;b005&#45;18a81ce38813&#45;&gt;a29f7fae&#45;78fb&#45;40f2&#45;9a9d&#45;015a72ac05c4 -->
<g id="edge4" class="edge">
<title>ef2c72c8&#45;5e51&#45;4ecb&#45;b005&#45;18a81ce38813&#45;&gt;a29f7fae&#45;78fb&#45;40f2&#45;9a9d&#45;015a72ac05c4</title>
<path fill="none" stroke="black" d="M678.43,-99.87C715.06,-99.87 751.69,-99.87 788.33,-99.87"/>
<polygon fill="black" stroke="black" points="788.66,-103.37 798.66,-99.87 788.66,-96.37 788.66,-103.37"/>
</g>
<!-- 5ff7009e&#45;c691&#45;4dcd&#45;9f03&#45;d1c2d8e0bc66 -->
<g id="node8" class="node">
<title>5ff7009e&#45;c691&#45;4dcd&#45;9f03&#45;d1c2d8e0bc66</title>
<polygon fill="#ee0000" stroke="black" points="739.5,-36 380.5,-36 380.5,0 739.5,0 739.5,-36"/>
<text text-anchor="middle" x="560" y="-14.3" font-family="Helvetica,sans-Serif" font-size="14.00">✗ Run GitHub Actions for `demucs/htdemucs.py`</text>
</g>
<!-- ef2c72c8&#45;5e51&#45;4ecb&#45;b005&#45;18a81ce38813&#45;&gt;5ff7009e&#45;c691&#45;4dcd&#45;9f03&#45;d1c2d8e0bc66 -->
<g id="edge3" class="edge">
<title>ef2c72c8&#45;5e51&#45;4ecb&#45;b005&#45;18a81ce38813&#45;&gt;5ff7009e&#45;c691&#45;4dcd&#45;9f03&#45;d1c2d8e0bc66</title>
<path fill="none" stroke="black" stroke-dasharray="5,2" d="M560,-72.72C560,-64.27 560,-54.89 560,-46.36"/>
<polygon fill="black" stroke="black" points="563.5,-46.15 560,-36.15 556.5,-46.15 563.5,-46.15"/>
</g>
<!-- 5cece4b6&#45;86f8&#45;4dfe&#45;8f52&#45;cc9ec18dfed9 -->
<g id="node6" class="node">
<title>5cece4b6&#45;86f8&#45;4dfe&#45;8f52&#45;cc9ec18dfed9</title>
<ellipse fill="white" stroke="black" cx="1368" cy="-99.87" rx="113.69" ry="26.74"/>
<text text-anchor="middle" x="1368" y="-103.67" font-family="Helvetica,sans-Serif" font-size="14.00">▶ Modify</text>
<text text-anchor="middle" x="1368" y="-88.67" font-family="Helvetica,sans-Serif" font-size="14.00">demucs/hdemucs.py</text>
</g>
<!-- a29f7fae&#45;78fb&#45;40f2&#45;9a9d&#45;015a72ac05c4&#45;&gt;5cece4b6&#45;86f8&#45;4dfe&#45;8f52&#45;cc9ec18dfed9 -->
<g id="edge6" class="edge">
<title>a29f7fae&#45;78fb&#45;40f2&#45;9a9d&#45;015a72ac05c4&#45;&gt;5cece4b6&#45;86f8&#45;4dfe&#45;8f52&#45;cc9ec18dfed9</title>
<path fill="none" stroke="black" d="M1175.27,-99.87C1198.11,-99.87 1220.96,-99.87 1243.8,-99.87"/>
<polygon fill="black" stroke="black" points="1243.94,-103.37 1253.94,-99.87 1243.94,-96.37 1243.94,-103.37"/>
</g>
<!-- 1ba165a5&#45;8d8d&#45;472f&#45;b9dc&#45;d18ce229f737 -->
<g id="node9" class="node">
<title>1ba165a5&#45;8d8d&#45;472f&#45;b9dc&#45;d18ce229f737</title>
<polygon fill="white" stroke="black" points="1216,-36 758,-36 758,0 1216,0 1216,-36"/>
<text text-anchor="middle" x="987" y="-14.3" font-family="Helvetica,sans-Serif" font-size="14.00">▶ Run GitHub Actions for `gui_data/tkinterdnd2/TkinterDnD.py`</text>
</g>
<!-- a29f7fae&#45;78fb&#45;40f2&#45;9a9d&#45;015a72ac05c4&#45;&gt;1ba165a5&#45;8d8d&#45;472f&#45;b9dc&#45;d18ce229f737 -->
<g id="edge5" class="edge">
<title>a29f7fae&#45;78fb&#45;40f2&#45;9a9d&#45;015a72ac05c4&#45;&gt;1ba165a5&#45;8d8d&#45;472f&#45;b9dc&#45;d18ce229f737</title>
<path fill="none" stroke="black" stroke-dasharray="5,2" d="M987,-72.72C987,-64.27 987,-54.89 987,-46.36"/>
<polygon fill="black" stroke="black" points="990.5,-46.15 987,-36.15 983.5,-46.15 990.5,-46.15"/>
</g>
<!-- 5cece4b6&#45;86f8&#45;4dfe&#45;8f52&#45;cc9ec18dfed9&#45;&gt;end -->
<g id="edge9" class="edge">
<title>5cece4b6&#45;86f8&#45;4dfe&#45;8f52&#45;cc9ec18dfed9&#45;&gt;end</title>
<path fill="none" stroke="black" d="M1482.25,-99.87C1501.59,-99.87 1518.79,-99.87 1529.28,-99.87"/>
<polygon fill="black" stroke="black" points="1529.33,-103.37 1539.33,-99.87 1529.33,-96.37 1529.33,-103.37"/>
<text text-anchor="middle" x="1510.67" y="-106.67" font-family="Helvetica,sans-Serif" font-size="14.00">Finish</text>
</g>
<!-- e105c8f9&#45;52fd&#45;483b&#45;9b3e&#45;2f69373433db -->
<g id="node10" class="node">
<title>e105c8f9&#45;52fd&#45;483b&#45;9b3e&#45;2f69373433db</title>
<polygon fill="white" stroke="black" points="1587.5,-36 1234.5,-36 1234.5,0 1587.5,0 1587.5,-36"/>
<text text-anchor="middle" x="1411" y="-14.3" font-family="Helvetica,sans-Serif" font-size="14.00">▶ Run GitHub Actions for `demucs/hdemucs.py`</text>
</g>
<!-- 5cece4b6&#45;86f8&#45;4dfe&#45;8f52&#45;cc9ec18dfed9&#45;&gt;e105c8f9&#45;52fd&#45;483b&#45;9b3e&#45;2f69373433db -->
<g id="edge7" class="edge">
<title>5cece4b6&#45;86f8&#45;4dfe&#45;8f52&#45;cc9ec18dfed9&#45;&gt;e105c8f9&#45;52fd&#45;483b&#45;9b3e&#45;2f69373433db</title>
<path fill="none" stroke="black" stroke-dasharray="5,2" d="M1381.84,-73.16C1386.65,-64.22 1392.05,-54.2 1396.88,-45.22"/>
<polygon fill="black" stroke="black" points="1400.01,-46.8 1401.67,-36.34 1393.84,-43.48 1400.01,-46.8"/>
</g>
</g>
</svg>
