<?xml version="1.0" encoding="UTF-8" standalone="no"?>
<!DOCTYPE svg PUBLIC "-//W3C//DTD SVG 1.1//EN"
 "http://www.w3.org/Graphics/SVG/1.1/DTD/svg11.dtd">
<!-- Generated by graphviz version 8.0.3 (0)
 -->
<!-- Pages: 1 -->
<svg width="2603pt" height="238pt"
 viewBox="0.00 0.00 2602.50 237.74" xmlns="http://www.w3.org/2000/svg" xmlns:xlink="http://www.w3.org/1999/xlink">
<g id="graph0" class="graph" transform="scale(1 1) rotate(0) translate(36 201.74)">
<polygon fill="dimgray" stroke="none" points="-36,36 -36,-201.74 2566.5,-201.74 2566.5,36 -36,36"/>
<text text-anchor="middle" x="1265.25" y="-150.54" font-family="Helvetica,sans-Serif" font-size="14.00">Sweep&#39;s Plan &amp; Progress</text>
<!-- start -->
<g id="node1" class="node">
<title>start</title>
</g>
<!-- 13580312&#45;0deb&#45;4537&#45;9715&#45;66b3490a0814 -->
<g id="node3" class="node">
<title>13580312&#45;0deb&#45;4537&#45;9715&#45;66b3490a0814</title>
<ellipse fill="#ee0000" stroke="black" cx="270.5" cy="-99.87" rx="188.18" ry="26.74"/>
<text text-anchor="middle" x="270.5" y="-103.67" font-family="Helvetica,sans-Serif" font-size="14.00">✗ Modify</text>
<text text-anchor="middle" x="270.5" y="-88.67" font-family="Helvetica,sans-Serif" font-size="14.00">gui_data/tkinterdnd2/TkinterDnD.py</text>
</g>
<!-- start&#45;&gt;13580312&#45;0deb&#45;4537&#45;9715&#45;66b3490a0814 -->
<g id="edge12" class="edge">
<title>start&#45;&gt;13580312&#45;0deb&#45;4537&#45;9715&#45;66b3490a0814</title>
<path fill="none" stroke="black" d="M30.89,-99.87C33.5,-99.87 49.07,-99.87 71.12,-99.87"/>
<polygon fill="black" stroke="black" points="71.05,-103.37 81.05,-99.87 71.05,-96.37 71.05,-103.37"/>
<text text-anchor="middle" x="56.7" y="-106.67" font-family="Helvetica,sans-Serif" font-size="14.00">Start</text>
</g>
<!-- end -->
<g id="node2" class="node">
<title>end</title>
</g>
<!-- b43ec915&#45;4346&#45;46c3&#45;963a&#45;d16fda9767e6 -->
<g id="node4" class="node">
<title>b43ec915&#45;4346&#45;46c3&#45;963a&#45;d16fda9767e6</title>
<ellipse fill="#0ee832" stroke="black" cx="664.5" cy="-99.87" rx="128.89" ry="26.74"/>
<text text-anchor="middle" x="664.5" y="-103.67" font-family="Helvetica,sans-Serif" font-size="14.00">✓ Modify</text>
<text text-anchor="middle" x="664.5" y="-88.67" font-family="Helvetica,sans-Serif" font-size="14.00">gui_data/change_log.txt</text>
</g>
<!-- 13580312&#45;0deb&#45;4537&#45;9715&#45;66b3490a0814&#45;&gt;b43ec915&#45;4346&#45;46c3&#45;963a&#45;d16fda9767e6 -->
<g id="edge2" class="edge">
<title>13580312&#45;0deb&#45;4537&#45;9715&#45;66b3490a0814&#45;&gt;b43ec915&#45;4346&#45;46c3&#45;963a&#45;d16fda9767e6</title>
<path fill="none" stroke="black" d="M459.04,-99.87C480.88,-99.87 502.72,-99.87 524.56,-99.87"/>
<polygon fill="black" stroke="black" points="524.28,-103.37 534.28,-99.87 524.28,-96.37 524.28,-103.37"/>
</g>
<!-- 833c5f93&#45;c72c&#45;45a6&#45;b5fd&#45;69e316e9bc50 -->
<g id="node9" class="node">
<title>833c5f93&#45;c72c&#45;45a6&#45;b5fd&#45;69e316e9bc50</title>
<polygon fill="#ee0000" stroke="black" points="459,-36 0,-36 0,0 459,0 459,-36"/>
<text text-anchor="middle" x="229.5" y="-14.3" font-family="Helvetica,sans-Serif" font-size="14.00">✗ Run GitHub Actions for `gui_data/tkinterdnd2/TkinterDnD.py`</text>
</g>
<!-- 13580312&#45;0deb&#45;4537&#45;9715&#45;66b3490a0814&#45;&gt;833c5f93&#45;c72c&#45;45a6&#45;b5fd&#45;69e316e9bc50 -->
<g id="edge1" class="edge">
<title>13580312&#45;0deb&#45;4537&#45;9715&#45;66b3490a0814&#45;&gt;833c5f93&#45;c72c&#45;45a6&#45;b5fd&#45;69e316e9bc50</title>
<path fill="none" stroke="black" stroke-dasharray="5,2" d="M257.08,-72.72C252.64,-64.08 247.71,-54.47 243.25,-45.79"/>
<polygon fill="black" stroke="black" points="245.98,-44.44 238.3,-37.15 239.75,-47.64 245.98,-44.44"/>
</g>
<!-- 3195eb2c&#45;566e&#45;4aa3&#45;a38e&#45;d11eb1a2d22c -->
<g id="node5" class="node">
<title>3195eb2c&#45;566e&#45;4aa3&#45;a38e&#45;d11eb1a2d22c</title>
<ellipse fill="#0ee832" stroke="black" cx="1070.5" cy="-99.87" rx="147.16" ry="26.74"/>
<text text-anchor="middle" x="1070.5" y="-103.67" font-family="Helvetica,sans-Serif" font-size="14.00">✓ Modify</text>
<text text-anchor="middle" x="1070.5" y="-88.67" font-family="Helvetica,sans-Serif" font-size="14.00">gui_data/old_data_check.py</text>
</g>
<!-- b43ec915&#45;4346&#45;46c3&#45;963a&#45;d16fda9767e6&#45;&gt;3195eb2c&#45;566e&#45;4aa3&#45;a38e&#45;d11eb1a2d22c -->
<g id="edge4" class="edge">
<title>b43ec915&#45;4346&#45;46c3&#45;963a&#45;d16fda9767e6&#45;&gt;3195eb2c&#45;566e&#45;4aa3&#45;a38e&#45;d11eb1a2d22c</title>
<path fill="none" stroke="black" d="M793.75,-99.87C833.2,-99.87 872.64,-99.87 912.09,-99.87"/>
<polygon fill="black" stroke="black" points="911.94,-103.37 921.94,-99.87 911.94,-96.37 911.94,-103.37"/>
</g>
<!-- 29c03b7b&#45;1c1f&#45;44a7&#45;ab78&#45;8d8f64d3ca79 -->
<g id="node10" class="node">
<title>29c03b7b&#45;1c1f&#45;44a7&#45;ab78&#45;8d8f64d3ca79</title>
<polygon fill="#0ee832" stroke="black" points="852,-36 477,-36 477,0 852,0 852,-36"/>
<text text-anchor="middle" x="664.5" y="-14.3" font-family="Helvetica,sans-Serif" font-size="14.00">✓ Run GitHub Actions for `gui_data/change_log.txt`</text>
</g>
<!-- b43ec915&#45;4346&#45;46c3&#45;963a&#45;d16fda9767e6&#45;&gt;29c03b7b&#45;1c1f&#45;44a7&#45;ab78&#45;8d8f64d3ca79 -->
<g id="edge3" class="edge">
<title>b43ec915&#45;4346&#45;46c3&#45;963a&#45;d16fda9767e6&#45;&gt;29c03b7b&#45;1c1f&#45;44a7&#45;ab78&#45;8d8f64d3ca79</title>
<path fill="none" stroke="black" stroke-dasharray="5,2" d="M664.5,-72.72C664.5,-64.46 664.5,-55.31 664.5,-46.93"/>
<polygon fill="black" stroke="black" points="668,-47.15 664.5,-37.15 661,-47.15 668,-47.15"/>
</g>
<!-- 14cf1b4c&#45;666d&#45;4431&#45;a33e&#45;f676ea97c3e0 -->
<g id="node6" class="node">
<title>14cf1b4c&#45;666d&#45;4431&#45;a33e&#45;f676ea97c3e0</title>
<ellipse fill="white" stroke="black" cx="1528.5" cy="-99.87" rx="203.79" ry="26.74"/>
<text text-anchor="middle" x="1528.5" y="-103.67" font-family="Helvetica,sans-Serif" font-size="14.00">▶ Modify</text>
<text text-anchor="middle" x="1528.5" y="-88.67" font-family="Helvetica,sans-Serif" font-size="14.00">gui_data/model_manual_download.json</text>
</g>
<!-- 3195eb2c&#45;566e&#45;4aa3&#45;a38e&#45;d11eb1a2d22c&#45;&gt;14cf1b4c&#45;666d&#45;4431&#45;a33e&#45;f676ea97c3e0 -->
<g id="edge6" class="edge">
<title>3195eb2c&#45;566e&#45;4aa3&#45;a38e&#45;d11eb1a2d22c&#45;&gt;14cf1b4c&#45;666d&#45;4431&#45;a33e&#45;f676ea97c3e0</title>
<path fill="none" stroke="black" d="M1218.1,-99.87C1249.96,-99.87 1281.83,-99.87 1313.69,-99.87"/>
<polygon fill="black" stroke="black" points="1313.5,-103.37 1323.5,-99.87 1313.5,-96.37 1313.5,-103.37"/>
</g>
<!-- 179abcbf&#45;237d&#45;46c6&#45;a610&#45;c090e8b67f55 -->
<g id="node11" class="node">
<title>179abcbf&#45;237d&#45;46c6&#45;a610&#45;c090e8b67f55</title>
<polygon fill="#0ee832" stroke="black" points="1271,-36 870,-36 870,0 1271,0 1271,-36"/>
<text text-anchor="middle" x="1070.5" y="-14.3" font-family="Helvetica,sans-Serif" font-size="14.00">✓ Run GitHub Actions for `gui_data/old_data_check.py`</text>
</g>
<!-- 3195eb2c&#45;566e&#45;4aa3&#45;a38e&#45;d11eb1a2d22c&#45;&gt;179abcbf&#45;237d&#45;46c6&#45;a610&#45;c090e8b67f55 -->
<g id="edge5" class="edge">
<title>3195eb2c&#45;566e&#45;4aa3&#45;a38e&#45;d11eb1a2d22c&#45;&gt;179abcbf&#45;237d&#45;46c6&#45;a610&#45;c090e8b67f55</title>
<path fill="none" stroke="black" stroke-dasharray="5,2" d="M1070.5,-72.72C1070.5,-64.46 1070.5,-55.31 1070.5,-46.93"/>
<polygon fill="black" stroke="black" points="1074,-47.15 1070.5,-37.15 1067,-47.15 1074,-47.15"/>
</g>
<!-- 4a26d084&#45;2c91&#45;46e7&#45;ac08&#45;bafea76bba7e -->
<g id="node7" class="node">
<title>4a26d084&#45;2c91&#45;46e7&#45;ac08&#45;bafea76bba7e</title>
<ellipse fill="white" stroke="black" cx="1965.5" cy="-99.87" rx="118.17" ry="26.74"/>
<text text-anchor="middle" x="1965.5" y="-103.67" font-family="Helvetica,sans-Serif" font-size="14.00">▶ Modify</text>
<text text-anchor="middle" x="1965.5" y="-88.67" font-family="Helvetica,sans-Serif" font-size="14.00">demucs/htdemucs.py</text>
</g>
<!-- 14cf1b4c&#45;666d&#45;4431&#45;a33e&#45;f676ea97c3e0&#45;&gt;4a26d084&#45;2c91&#45;46e7&#45;ac08&#45;bafea76bba7e -->
<g id="edge8" class="edge">
<title>14cf1b4c&#45;666d&#45;4431&#45;a33e&#45;f676ea97c3e0&#45;&gt;4a26d084&#45;2c91&#45;46e7&#45;ac08&#45;bafea76bba7e</title>
<path fill="none" stroke="black" d="M1732.49,-99.87C1767.13,-99.87 1801.78,-99.87 1836.42,-99.87"/>
<polygon fill="black" stroke="black" points="1836.17,-103.37 1846.17,-99.87 1836.17,-96.37 1836.17,-103.37"/>
</g>
<!-- 64801524&#45;c10a&#45;4205&#45;9db3&#45;1086ac49235d -->
<g id="node12" class="node">
<title>64801524&#45;c10a&#45;4205&#45;9db3&#45;1086ac49235d</title>
<polygon fill="white" stroke="black" points="1768,-36 1289,-36 1289,0 1768,0 1768,-36"/>
<text text-anchor="middle" x="1528.5" y="-14.3" font-family="Helvetica,sans-Serif" font-size="14.00">▶ Run GitHub Actions for `gui_data/model_manual_download.json`</text>
</g>
<!-- 14cf1b4c&#45;666d&#45;4431&#45;a33e&#45;f676ea97c3e0&#45;&gt;64801524&#45;c10a&#45;4205&#45;9db3&#45;1086ac49235d -->
<g id="edge7" class="edge">
<title>14cf1b4c&#45;666d&#45;4431&#45;a33e&#45;f676ea97c3e0&#45;&gt;64801524&#45;c10a&#45;4205&#45;9db3&#45;1086ac49235d</title>
<path fill="none" stroke="black" stroke-dasharray="5,2" d="M1528.5,-72.72C1528.5,-64.46 1528.5,-55.31 1528.5,-46.93"/>
<polygon fill="black" stroke="black" points="1532,-47.15 1528.5,-37.15 1525,-47.15 1532,-47.15"/>
</g>
<!-- 2fc94ee3&#45;e031&#45;43b0&#45;a5b5&#45;e18402628f01 -->
<g id="node8" class="node">
<title>2fc94ee3&#45;e031&#45;43b0&#45;a5b5&#45;e18402628f01</title>
<ellipse fill="white" stroke="black" cx="2295.5" cy="-99.87" rx="124.4" ry="26.74"/>
<text text-anchor="middle" x="2295.5" y="-103.67" font-family="Helvetica,sans-Serif" font-size="14.00">▶ Modify</text>
<text text-anchor="middle" x="2295.5" y="-88.67" font-family="Helvetica,sans-Serif" font-size="14.00">gui_data/own_font.json</text>
</g>
<!-- 4a26d084&#45;2c91&#45;46e7&#45;ac08&#45;bafea76bba7e&#45;&gt;2fc94ee3&#45;e031&#45;43b0&#45;a5b5&#45;e18402628f01 -->
<g id="edge10" class="edge">
<title>4a26d084&#45;2c91&#45;46e7&#45;ac08&#45;bafea76bba7e&#45;&gt;2fc94ee3&#45;e031&#45;43b0&#45;a5b5&#45;e18402628f01</title>
<path fill="none" stroke="black" d="M2084.09,-99.87C2109.38,-99.87 2134.67,-99.87 2159.96,-99.87"/>
<polygon fill="black" stroke="black" points="2159.8,-103.37 2169.8,-99.87 2159.8,-96.37 2159.8,-103.37"/>
</g>
<!-- 9115f9d1&#45;5414&#45;4598&#45;b322&#45;d074cb3909dd -->
<g id="node13" class="node">
<title>9115f9d1&#45;5414&#45;4598&#45;b322&#45;d074cb3909dd</title>
<polygon fill="white" stroke="black" points="2144.5,-36 1786.5,-36 1786.5,0 2144.5,0 2144.5,-36"/>
<text text-anchor="middle" x="1965.5" y="-14.3" font-family="Helvetica,sans-Serif" font-size="14.00">▶ Run GitHub Actions for `demucs/htdemucs.py`</text>
</g>
<!-- 4a26d084&#45;2c91&#45;46e7&#45;ac08&#45;bafea76bba7e&#45;&gt;9115f9d1&#45;5414&#45;4598&#45;b322&#45;d074cb3909dd -->
<g id="edge9" class="edge">
<title>4a26d084&#45;2c91&#45;46e7&#45;ac08&#45;bafea76bba7e&#45;&gt;9115f9d1&#45;5414&#45;4598&#45;b322&#45;d074cb3909dd</title>
<path fill="none" stroke="black" stroke-dasharray="5,2" d="M1965.5,-72.72C1965.5,-64.46 1965.5,-55.31 1965.5,-46.93"/>
<polygon fill="black" stroke="black" points="1969,-47.15 1965.5,-37.15 1962,-47.15 1969,-47.15"/>
</g>
<!-- 2fc94ee3&#45;e031&#45;43b0&#45;a5b5&#45;e18402628f01&#45;&gt;end -->
<g id="edge13" class="edge">
<title>2fc94ee3&#45;e031&#45;43b0&#45;a5b5&#45;e18402628f01&#45;&gt;end</title>
<path fill="none" stroke="black" d="M2419.91,-99.87C2439.13,-99.87 2456.03,-99.87 2466.47,-99.87"/>
<polygon fill="black" stroke="black" points="2466.2,-103.37 2476.2,-99.87 2466.2,-96.37 2466.2,-103.37"/>
<text text-anchor="middle" x="2448.48" y="-106.67" font-family="Helvetica,sans-Serif" font-size="14.00">Finish</text>
</g>
<!-- 0b95ee7a&#45;6314&#45;4295&#45;a791&#45;7de391b86e5b -->
<g id="node14" class="node">
<title>0b95ee7a&#45;6314&#45;4295&#45;a791&#45;7de391b86e5b</title>
<polygon fill="white" stroke="black" points="2530.5,-36 2162.5,-36 2162.5,0 2530.5,0 2530.5,-36"/>
<text text-anchor="middle" x="2346.5" y="-14.3" font-family="Helvetica,sans-Serif" font-size="14.00">▶ Run GitHub Actions for `gui_data/own_font.json`</text>
</g>
<!-- 2fc94ee3&#45;e031&#45;43b0&#45;a5b5&#45;e18402628f01&#45;&gt;0b95ee7a&#45;6314&#45;4295&#45;a791&#45;7de391b86e5b -->
<g id="edge11" class="edge">
<title>2fc94ee3&#45;e031&#45;43b0&#45;a5b5&#45;e18402628f01&#45;&gt;0b95ee7a&#45;6314&#45;4295&#45;a791&#45;7de391b86e5b</title>
<path fill="none" stroke="black" stroke-dasharray="5,2" d="M2311.92,-73.16C2317.56,-64.32 2323.89,-54.41 2329.58,-45.5"/>
<polygon fill="black" stroke="black" points="2333,-47.65 2335.43,-37.34 2327.1,-43.88 2333,-47.65"/>
</g>
</g>
</svg>
