<?xml version="1.0" encoding="UTF-8" standalone="no"?>
<!DOCTYPE svg PUBLIC "-//W3C//DTD SVG 1.1//EN"
 "http://www.w3.org/Graphics/SVG/1.1/DTD/svg11.dtd">
<!-- Generated by graphviz version 2.43.0 (0)
 -->
<!-- Title: %3 Pages: 1 -->
<svg width="1657pt" height="238pt"
 viewBox="0.00 0.00 1657.00 237.74" xmlns="http://www.w3.org/2000/svg" xmlns:xlink="http://www.w3.org/1999/xlink">
<g id="graph0" class="graph" transform="scale(1 1) rotate(0) translate(36 201.74)">
<title>%3</title>
<polygon fill="dimgray" stroke="transparent" points="-36,36 -36,-201.74 1621,-201.74 1621,36 -36,36"/>
<text text-anchor="middle" x="792.5" y="-150.54" font-family="Helvetica,sans-Serif" font-size="14.00">Sweep&#39;s Plan &amp; Progress</text>
<!-- start -->
<g id="node1" class="node">
<title>start</title>
</g>
<!-- 969f580c&#45;bd95&#45;4d58&#45;883a&#45;40d8b2c7208a -->
<g id="node3" class="node">
<title>969f580c&#45;bd95&#45;4d58&#45;883a&#45;40d8b2c7208a</title>
<ellipse fill="yellow" stroke="black" cx="232.5" cy="-99.87" rx="120.42" ry="26.74"/>
<text text-anchor="middle" x="232.5" y="-103.67" font-family="Helvetica,sans-Serif" font-size="14.00">⋯ Modify</text>
<text text-anchor="middle" x="232.5" y="-88.67" font-family="Helvetica,sans-Serif" font-size="14.00">gui_data/constants.py</text>
</g>
<!-- start&#45;&gt;969f580c&#45;bd95&#45;4d58&#45;883a&#45;40d8b2c7208a -->
<g id="edge8" class="edge">
<title>start&#45;&gt;969f580c&#45;bd95&#45;4d58&#45;883a&#45;40d8b2c7208a</title>
<path fill="none" stroke="black" d="M61.27,-99.87C64.9,-99.87 81.11,-99.87 102.21,-99.87"/>
<polygon fill="black" stroke="black" points="102.22,-103.37 112.22,-99.87 102.22,-96.37 102.22,-103.37"/>
<text text-anchor="middle" x="86.65" y="-106.67" font-family="Helvetica,sans-Serif" font-size="14.00">Start</text>
</g>
<!-- end -->
<g id="node2" class="node">
<title>end</title>
</g>
<!-- ef2c72c8&#45;5e51&#45;4ecb&#45;b005&#45;18a81ce38813 -->
<g id="node4" class="node">
<title>ef2c72c8&#45;5e51&#45;4ecb&#45;b005&#45;18a81ce38813</title>
<ellipse fill="white" stroke="black" cx="558.5" cy="-99.87" rx="118.17" ry="26.74"/>
<text text-anchor="middle" x="558.5" y="-103.67" font-family="Helvetica,sans-Serif" font-size="14.00">▶ Modify</text>
<text text-anchor="middle" x="558.5" y="-88.67" font-family="Helvetica,sans-Serif" font-size="14.00">demucs/htdemucs.py</text>
</g>
<!-- 969f580c&#45;bd95&#45;4d58&#45;883a&#45;40d8b2c7208a&#45;&gt;ef2c72c8&#45;5e51&#45;4ecb&#45;b005&#45;18a81ce38813 -->
<g id="edge2" class="edge">
<title>969f580c&#45;bd95&#45;4d58&#45;883a&#45;40d8b2c7208a&#45;&gt;ef2c72c8&#45;5e51&#45;4ecb&#45;b005&#45;18a81ce38813</title>
<path fill="none" stroke="black" d="M352.84,-99.87C378.61,-99.87 404.38,-99.87 430.14,-99.87"/>
<polygon fill="black" stroke="black" points="430.41,-103.37 440.41,-99.87 430.41,-96.37 430.41,-103.37"/>
</g>
<!-- 645b7c84&#45;9dc7&#45;4f3b&#45;9d2e&#45;56a194fd1ce5 -->
<g id="node7" class="node">
<title>645b7c84&#45;9dc7&#45;4f3b&#45;9d2e&#45;56a194fd1ce5</title>
<polygon fill="white" stroke="black" points="361,-36 0,-36 0,0 361,0 361,-36"/>
<text text-anchor="middle" x="180.5" y="-14.3" font-family="Helvetica,sans-Serif" font-size="14.00">▶ Run GitHub Actions for `gui_data/constants.py`</text>
</g>
<!-- 969f580c&#45;bd95&#45;4d58&#45;883a&#45;40d8b2c7208a&#45;&gt;645b7c84&#45;9dc7&#45;4f3b&#45;9d2e&#45;56a194fd1ce5 -->
<g id="edge1" class="edge">
<title>969f580c&#45;bd95&#45;4d58&#45;883a&#45;40d8b2c7208a&#45;&gt;645b7c84&#45;9dc7&#45;4f3b&#45;9d2e&#45;56a194fd1ce5</title>
<path fill="none" stroke="black" stroke-dasharray="5,2" d="M215.76,-73.16C209.88,-64.13 203.28,-53.98 197.39,-44.94"/>
<polygon fill="black" stroke="black" points="200.18,-42.81 191.79,-36.34 194.31,-46.63 200.18,-42.81"/>
</g>
<!-- a29f7fae&#45;78fb&#45;40f2&#45;9a9d&#45;015a72ac05c4 -->
<g id="node5" class="node">
<title>a29f7fae&#45;78fb&#45;40f2&#45;9a9d&#45;015a72ac05c4</title>
<ellipse fill="white" stroke="black" cx="984.5" cy="-99.87" rx="188.18" ry="26.74"/>
<text text-anchor="middle" x="984.5" y="-103.67" font-family="Helvetica,sans-Serif" font-size="14.00">▶ Modify</text>
<text text-anchor="middle" x="984.5" y="-88.67" font-family="Helvetica,sans-Serif" font-size="14.00">gui_data/tkinterdnd2/TkinterDnD.py</text>
</g>
<!-- ef2c72c8&#45;5e51&#45;4ecb&#45;b005&#45;18a81ce38813&#45;&gt;a29f7fae&#45;78fb&#45;40f2&#45;9a9d&#45;015a72ac05c4 -->
<g id="edge4" class="edge">
<title>ef2c72c8&#45;5e51&#45;4ecb&#45;b005&#45;18a81ce38813&#45;&gt;a29f7fae&#45;78fb&#45;40f2&#45;9a9d&#45;015a72ac05c4</title>
<path fill="none" stroke="black" d="M676.65,-99.87C713.11,-99.87 749.56,-99.87 786.02,-99.87"/>
<polygon fill="black" stroke="black" points="786.3,-103.37 796.3,-99.87 786.3,-96.37 786.3,-103.37"/>
</g>
<!-- 5ff7009e&#45;c691&#45;4dcd&#45;9f03&#45;d1c2d8e0bc66 -->
<g id="node8" class="node">
<title>5ff7009e&#45;c691&#45;4dcd&#45;9f03&#45;d1c2d8e0bc66</title>
<polygon fill="white" stroke="black" points="737.5,-36 379.5,-36 379.5,0 737.5,0 737.5,-36"/>
<text text-anchor="middle" x="558.5" y="-14.3" font-family="Helvetica,sans-Serif" font-size="14.00">▶ Run GitHub Actions for `demucs/htdemucs.py`</text>
</g>
<!-- ef2c72c8&#45;5e51&#45;4ecb&#45;b005&#45;18a81ce38813&#45;&gt;5ff7009e&#45;c691&#45;4dcd&#45;9f03&#45;d1c2d8e0bc66 -->
<g id="edge3" class="edge">
<title>ef2c72c8&#45;5e51&#45;4ecb&#45;b005&#45;18a81ce38813&#45;&gt;5ff7009e&#45;c691&#45;4dcd&#45;9f03&#45;d1c2d8e0bc66</title>
<path fill="none" stroke="black" stroke-dasharray="5,2" d="M558.5,-72.72C558.5,-64.27 558.5,-54.89 558.5,-46.36"/>
<polygon fill="black" stroke="black" points="562,-46.15 558.5,-36.15 555,-46.15 562,-46.15"/>
</g>
<!-- 5cece4b6&#45;86f8&#45;4dfe&#45;8f52&#45;cc9ec18dfed9 -->
<g id="node6" class="node">
<title>5cece4b6&#45;86f8&#45;4dfe&#45;8f52&#45;cc9ec18dfed9</title>
<ellipse fill="white" stroke="black" cx="1365.5" cy="-99.87" rx="113.69" ry="26.74"/>
<text text-anchor="middle" x="1365.5" y="-103.67" font-family="Helvetica,sans-Serif" font-size="14.00">▶ Modify</text>
<text text-anchor="middle" x="1365.5" y="-88.67" font-family="Helvetica,sans-Serif" font-size="14.00">demucs/hdemucs.py</text>
</g>
<!-- a29f7fae&#45;78fb&#45;40f2&#45;9a9d&#45;015a72ac05c4&#45;&gt;5cece4b6&#45;86f8&#45;4dfe&#45;8f52&#45;cc9ec18dfed9 -->
<g id="edge6" class="edge">
<title>a29f7fae&#45;78fb&#45;40f2&#45;9a9d&#45;015a72ac05c4&#45;&gt;5cece4b6&#45;86f8&#45;4dfe&#45;8f52&#45;cc9ec18dfed9</title>
<path fill="none" stroke="black" d="M1172.77,-99.87C1195.61,-99.87 1218.46,-99.87 1241.3,-99.87"/>
<polygon fill="black" stroke="black" points="1241.44,-103.37 1251.44,-99.87 1241.44,-96.37 1241.44,-103.37"/>
</g>
<!-- 1ba165a5&#45;8d8d&#45;472f&#45;b9dc&#45;d18ce229f737 -->
<g id="node9" class="node">
<title>1ba165a5&#45;8d8d&#45;472f&#45;b9dc&#45;d18ce229f737</title>
<polygon fill="white" stroke="black" points="1213.5,-36 755.5,-36 755.5,0 1213.5,0 1213.5,-36"/>
<text text-anchor="middle" x="984.5" y="-14.3" font-family="Helvetica,sans-Serif" font-size="14.00">▶ Run GitHub Actions for `gui_data/tkinterdnd2/TkinterDnD.py`</text>
</g>
<!-- a29f7fae&#45;78fb&#45;40f2&#45;9a9d&#45;015a72ac05c4&#45;&gt;1ba165a5&#45;8d8d&#45;472f&#45;b9dc&#45;d18ce229f737 -->
<g id="edge5" class="edge">
<title>a29f7fae&#45;78fb&#45;40f2&#45;9a9d&#45;015a72ac05c4&#45;&gt;1ba165a5&#45;8d8d&#45;472f&#45;b9dc&#45;d18ce229f737</title>
<path fill="none" stroke="black" stroke-dasharray="5,2" d="M984.5,-72.72C984.5,-64.27 984.5,-54.89 984.5,-46.36"/>
<polygon fill="black" stroke="black" points="988,-46.15 984.5,-36.15 981,-46.15 988,-46.15"/>
</g>
<!-- 5cece4b6&#45;86f8&#45;4dfe&#45;8f52&#45;cc9ec18dfed9&#45;&gt;end -->
<g id="edge9" class="edge">
<title>5cece4b6&#45;86f8&#45;4dfe&#45;8f52&#45;cc9ec18dfed9&#45;&gt;end</title>
<path fill="none" stroke="black" d="M1479.75,-99.87C1499.09,-99.87 1516.29,-99.87 1526.78,-99.87"/>
<polygon fill="black" stroke="black" points="1526.83,-103.37 1536.83,-99.87 1526.83,-96.37 1526.83,-103.37"/>
<text text-anchor="middle" x="1508.17" y="-106.67" font-family="Helvetica,sans-Serif" font-size="14.00">Finish</text>
</g>
<!-- e105c8f9&#45;52fd&#45;483b&#45;9b3e&#45;2f69373433db -->
<g id="node10" class="node">
<title>e105c8f9&#45;52fd&#45;483b&#45;9b3e&#45;2f69373433db</title>
<polygon fill="white" stroke="black" points="1585,-36 1232,-36 1232,0 1585,0 1585,-36"/>
<text text-anchor="middle" x="1408.5" y="-14.3" font-family="Helvetica,sans-Serif" font-size="14.00">▶ Run GitHub Actions for `demucs/hdemucs.py`</text>
</g>
<!-- 5cece4b6&#45;86f8&#45;4dfe&#45;8f52&#45;cc9ec18dfed9&#45;&gt;e105c8f9&#45;52fd&#45;483b&#45;9b3e&#45;2f69373433db -->
<g id="edge7" class="edge">
<title>5cece4b6&#45;86f8&#45;4dfe&#45;8f52&#45;cc9ec18dfed9&#45;&gt;e105c8f9&#45;52fd&#45;483b&#45;9b3e&#45;2f69373433db</title>
<path fill="none" stroke="black" stroke-dasharray="5,2" d="M1379.34,-73.16C1384.15,-64.22 1389.55,-54.2 1394.38,-45.22"/>
<polygon fill="black" stroke="black" points="1397.51,-46.8 1399.17,-36.34 1391.34,-43.48 1397.51,-46.8"/>
</g>
</g>
</svg>
