<?xml version="1.0" encoding="UTF-8" standalone="no"?>
<!DOCTYPE svg PUBLIC "-//W3C//DTD SVG 1.1//EN"
 "http://www.w3.org/Graphics/SVG/1.1/DTD/svg11.dtd">
<!-- Generated by graphviz version 8.0.3 (0)
 -->
<!-- Pages: 1 -->
<svg width="2599pt" height="238pt"
 viewBox="0.00 0.00 2599.00 237.74" xmlns="http://www.w3.org/2000/svg" xmlns:xlink="http://www.w3.org/1999/xlink">
<g id="graph0" class="graph" transform="scale(1 1) rotate(0) translate(36 201.74)">
<polygon fill="dimgray" stroke="none" points="-36,36 -36,-201.74 2563,-201.74 2563,36 -36,36"/>
<text text-anchor="middle" x="1263.5" y="-150.54" font-family="Helvetica,sans-Serif" font-size="14.00">Sweep&#39;s Plan &amp; Progress</text>
<!-- start -->
<g id="node1" class="node">
<title>start</title>
</g>
<!-- 13580312&#45;0deb&#45;4537&#45;9715&#45;66b3490a0814 -->
<g id="node3" class="node">
<title>13580312&#45;0deb&#45;4537&#45;9715&#45;66b3490a0814</title>
<ellipse fill="yellow" stroke="black" cx="270" cy="-99.87" rx="188.18" ry="26.74"/>
<text text-anchor="middle" x="270" y="-103.67" font-family="Helvetica,sans-Serif" font-size="14.00">⋯ Modify</text>
<text text-anchor="middle" x="270" y="-88.67" font-family="Helvetica,sans-Serif" font-size="14.00">gui_data/tkinterdnd2/TkinterDnD.py</text>
</g>
<!-- start&#45;&gt;13580312&#45;0deb&#45;4537&#45;9715&#45;66b3490a0814 -->
<g id="edge12" class="edge">
<title>start&#45;&gt;13580312&#45;0deb&#45;4537&#45;9715&#45;66b3490a0814</title>
<path fill="none" stroke="black" d="M30.39,-99.87C33,-99.87 48.57,-99.87 70.62,-99.87"/>
<polygon fill="black" stroke="black" points="70.55,-103.37 80.55,-99.87 70.55,-96.37 70.55,-103.37"/>
<text text-anchor="middle" x="56.2" y="-106.67" font-family="Helvetica,sans-Serif" font-size="14.00">Start</text>
</g>
<!-- end -->
<g id="node2" class="node">
<title>end</title>
</g>
<!-- b43ec915&#45;4346&#45;46c3&#45;963a&#45;d16fda9767e6 -->
<g id="node4" class="node">
<title>b43ec915&#45;4346&#45;46c3&#45;963a&#45;d16fda9767e6</title>
<ellipse fill="white" stroke="black" cx="663" cy="-99.87" rx="128.89" ry="26.74"/>
<text text-anchor="middle" x="663" y="-103.67" font-family="Helvetica,sans-Serif" font-size="14.00">▶ Modify</text>
<text text-anchor="middle" x="663" y="-88.67" font-family="Helvetica,sans-Serif" font-size="14.00">gui_data/change_log.txt</text>
</g>
<!-- 13580312&#45;0deb&#45;4537&#45;9715&#45;66b3490a0814&#45;&gt;b43ec915&#45;4346&#45;46c3&#45;963a&#45;d16fda9767e6 -->
<g id="edge2" class="edge">
<title>13580312&#45;0deb&#45;4537&#45;9715&#45;66b3490a0814&#45;&gt;b43ec915&#45;4346&#45;46c3&#45;963a&#45;d16fda9767e6</title>
<path fill="none" stroke="black" d="M458.44,-99.87C479.97,-99.87 501.51,-99.87 523.04,-99.87"/>
<polygon fill="black" stroke="black" points="522.95,-103.37 532.95,-99.87 522.95,-96.37 522.95,-103.37"/>
</g>
<!-- 833c5f93&#45;c72c&#45;45a6&#45;b5fd&#45;69e316e9bc50 -->
<g id="node9" class="node">
<title>833c5f93&#45;c72c&#45;45a6&#45;b5fd&#45;69e316e9bc50</title>
<polygon fill="white" stroke="black" points="458,-36 0,-36 0,0 458,0 458,-36"/>
<text text-anchor="middle" x="229" y="-14.3" font-family="Helvetica,sans-Serif" font-size="14.00">▶ Run GitHub Actions for `gui_data/tkinterdnd2/TkinterDnD.py`</text>
</g>
<!-- 13580312&#45;0deb&#45;4537&#45;9715&#45;66b3490a0814&#45;&gt;833c5f93&#45;c72c&#45;45a6&#45;b5fd&#45;69e316e9bc50 -->
<g id="edge1" class="edge">
<title>13580312&#45;0deb&#45;4537&#45;9715&#45;66b3490a0814&#45;&gt;833c5f93&#45;c72c&#45;45a6&#45;b5fd&#45;69e316e9bc50</title>
<path fill="none" stroke="black" stroke-dasharray="5,2" d="M256.58,-72.72C252.14,-64.08 247.21,-54.47 242.75,-45.79"/>
<polygon fill="black" stroke="black" points="245.48,-44.44 237.8,-37.15 239.25,-47.64 245.48,-44.44"/>
</g>
<!-- 3195eb2c&#45;566e&#45;4aa3&#45;a38e&#45;d11eb1a2d22c -->
<g id="node5" class="node">
<title>3195eb2c&#45;566e&#45;4aa3&#45;a38e&#45;d11eb1a2d22c</title>
<ellipse fill="white" stroke="black" cx="1068" cy="-99.87" rx="147.16" ry="26.74"/>
<text text-anchor="middle" x="1068" y="-103.67" font-family="Helvetica,sans-Serif" font-size="14.00">▶ Modify</text>
<text text-anchor="middle" x="1068" y="-88.67" font-family="Helvetica,sans-Serif" font-size="14.00">gui_data/old_data_check.py</text>
</g>
<!-- b43ec915&#45;4346&#45;46c3&#45;963a&#45;d16fda9767e6&#45;&gt;3195eb2c&#45;566e&#45;4aa3&#45;a38e&#45;d11eb1a2d22c -->
<g id="edge4" class="edge">
<title>b43ec915&#45;4346&#45;46c3&#45;963a&#45;d16fda9767e6&#45;&gt;3195eb2c&#45;566e&#45;4aa3&#45;a38e&#45;d11eb1a2d22c</title>
<path fill="none" stroke="black" d="M792.33,-99.87C831.46,-99.87 870.59,-99.87 909.71,-99.87"/>
<polygon fill="black" stroke="black" points="909.47,-103.37 919.47,-99.87 909.47,-96.37 909.47,-103.37"/>
</g>
<!-- 29c03b7b&#45;1c1f&#45;44a7&#45;ab78&#45;8d8f64d3ca79 -->
<g id="node10" class="node">
<title>29c03b7b&#45;1c1f&#45;44a7&#45;ab78&#45;8d8f64d3ca79</title>
<polygon fill="white" stroke="black" points="850,-36 476,-36 476,0 850,0 850,-36"/>
<text text-anchor="middle" x="663" y="-14.3" font-family="Helvetica,sans-Serif" font-size="14.00">▶ Run GitHub Actions for `gui_data/change_log.txt`</text>
</g>
<!-- b43ec915&#45;4346&#45;46c3&#45;963a&#45;d16fda9767e6&#45;&gt;29c03b7b&#45;1c1f&#45;44a7&#45;ab78&#45;8d8f64d3ca79 -->
<g id="edge3" class="edge">
<title>b43ec915&#45;4346&#45;46c3&#45;963a&#45;d16fda9767e6&#45;&gt;29c03b7b&#45;1c1f&#45;44a7&#45;ab78&#45;8d8f64d3ca79</title>
<path fill="none" stroke="black" stroke-dasharray="5,2" d="M663,-72.72C663,-64.46 663,-55.31 663,-46.93"/>
<polygon fill="black" stroke="black" points="666.5,-47.15 663,-37.15 659.5,-47.15 666.5,-47.15"/>
</g>
<!-- 14cf1b4c&#45;666d&#45;4431&#45;a33e&#45;f676ea97c3e0 -->
<g id="node6" class="node">
<title>14cf1b4c&#45;666d&#45;4431&#45;a33e&#45;f676ea97c3e0</title>
<ellipse fill="white" stroke="black" cx="1525" cy="-99.87" rx="203.79" ry="26.74"/>
<text text-anchor="middle" x="1525" y="-103.67" font-family="Helvetica,sans-Serif" font-size="14.00">▶ Modify</text>
<text text-anchor="middle" x="1525" y="-88.67" font-family="Helvetica,sans-Serif" font-size="14.00">gui_data/model_manual_download.json</text>
</g>
<!-- 3195eb2c&#45;566e&#45;4aa3&#45;a38e&#45;d11eb1a2d22c&#45;&gt;14cf1b4c&#45;666d&#45;4431&#45;a33e&#45;f676ea97c3e0 -->
<g id="edge6" class="edge">
<title>3195eb2c&#45;566e&#45;4aa3&#45;a38e&#45;d11eb1a2d22c&#45;&gt;14cf1b4c&#45;666d&#45;4431&#45;a33e&#45;f676ea97c3e0</title>
<path fill="none" stroke="black" d="M1215.28,-99.87C1246.89,-99.87 1278.5,-99.87 1310.11,-99.87"/>
<polygon fill="black" stroke="black" points="1309.84,-103.37 1319.84,-99.87 1309.84,-96.37 1309.84,-103.37"/>
</g>
<!-- 179abcbf&#45;237d&#45;46c6&#45;a610&#45;c090e8b67f55 -->
<g id="node11" class="node">
<title>179abcbf&#45;237d&#45;46c6&#45;a610&#45;c090e8b67f55</title>
<polygon fill="white" stroke="black" points="1267.5,-36 868.5,-36 868.5,0 1267.5,0 1267.5,-36"/>
<text text-anchor="middle" x="1068" y="-14.3" font-family="Helvetica,sans-Serif" font-size="14.00">▶ Run GitHub Actions for `gui_data/old_data_check.py`</text>
</g>
<!-- 3195eb2c&#45;566e&#45;4aa3&#45;a38e&#45;d11eb1a2d22c&#45;&gt;179abcbf&#45;237d&#45;46c6&#45;a610&#45;c090e8b67f55 -->
<g id="edge5" class="edge">
<title>3195eb2c&#45;566e&#45;4aa3&#45;a38e&#45;d11eb1a2d22c&#45;&gt;179abcbf&#45;237d&#45;46c6&#45;a610&#45;c090e8b67f55</title>
<path fill="none" stroke="black" stroke-dasharray="5,2" d="M1068,-72.72C1068,-64.46 1068,-55.31 1068,-46.93"/>
<polygon fill="black" stroke="black" points="1071.5,-47.15 1068,-37.15 1064.5,-47.15 1071.5,-47.15"/>
</g>
<!-- 4a26d084&#45;2c91&#45;46e7&#45;ac08&#45;bafea76bba7e -->
<g id="node7" class="node">
<title>4a26d084&#45;2c91&#45;46e7&#45;ac08&#45;bafea76bba7e</title>
<ellipse fill="white" stroke="black" cx="1962" cy="-99.87" rx="118.17" ry="26.74"/>
<text text-anchor="middle" x="1962" y="-103.67" font-family="Helvetica,sans-Serif" font-size="14.00">▶ Modify</text>
<text text-anchor="middle" x="1962" y="-88.67" font-family="Helvetica,sans-Serif" font-size="14.00">demucs/htdemucs.py</text>
</g>
<!-- 14cf1b4c&#45;666d&#45;4431&#45;a33e&#45;f676ea97c3e0&#45;&gt;4a26d084&#45;2c91&#45;46e7&#45;ac08&#45;bafea76bba7e -->
<g id="edge8" class="edge">
<title>14cf1b4c&#45;666d&#45;4431&#45;a33e&#45;f676ea97c3e0&#45;&gt;4a26d084&#45;2c91&#45;46e7&#45;ac08&#45;bafea76bba7e</title>
<path fill="none" stroke="black" d="M1728.99,-99.87C1763.63,-99.87 1798.28,-99.87 1832.92,-99.87"/>
<polygon fill="black" stroke="black" points="1832.67,-103.37 1842.67,-99.87 1832.67,-96.37 1832.67,-103.37"/>
</g>
<!-- 64801524&#45;c10a&#45;4205&#45;9db3&#45;1086ac49235d -->
<g id="node12" class="node">
<title>64801524&#45;c10a&#45;4205&#45;9db3&#45;1086ac49235d</title>
<polygon fill="white" stroke="black" points="1764.5,-36 1285.5,-36 1285.5,0 1764.5,0 1764.5,-36"/>
<text text-anchor="middle" x="1525" y="-14.3" font-family="Helvetica,sans-Serif" font-size="14.00">▶ Run GitHub Actions for `gui_data/model_manual_download.json`</text>
</g>
<!-- 14cf1b4c&#45;666d&#45;4431&#45;a33e&#45;f676ea97c3e0&#45;&gt;64801524&#45;c10a&#45;4205&#45;9db3&#45;1086ac49235d -->
<g id="edge7" class="edge">
<title>14cf1b4c&#45;666d&#45;4431&#45;a33e&#45;f676ea97c3e0&#45;&gt;64801524&#45;c10a&#45;4205&#45;9db3&#45;1086ac49235d</title>
<path fill="none" stroke="black" stroke-dasharray="5,2" d="M1525,-72.72C1525,-64.46 1525,-55.31 1525,-46.93"/>
<polygon fill="black" stroke="black" points="1528.5,-47.15 1525,-37.15 1521.5,-47.15 1528.5,-47.15"/>
</g>
<!-- 2fc94ee3&#45;e031&#45;43b0&#45;a5b5&#45;e18402628f01 -->
<g id="node8" class="node">
<title>2fc94ee3&#45;e031&#45;43b0&#45;a5b5&#45;e18402628f01</title>
<ellipse fill="white" stroke="black" cx="2292" cy="-99.87" rx="124.4" ry="26.74"/>
<text text-anchor="middle" x="2292" y="-103.67" font-family="Helvetica,sans-Serif" font-size="14.00">▶ Modify</text>
<text text-anchor="middle" x="2292" y="-88.67" font-family="Helvetica,sans-Serif" font-size="14.00">gui_data/own_font.json</text>
</g>
<!-- 4a26d084&#45;2c91&#45;46e7&#45;ac08&#45;bafea76bba7e&#45;&gt;2fc94ee3&#45;e031&#45;43b0&#45;a5b5&#45;e18402628f01 -->
<g id="edge10" class="edge">
<title>4a26d084&#45;2c91&#45;46e7&#45;ac08&#45;bafea76bba7e&#45;&gt;2fc94ee3&#45;e031&#45;43b0&#45;a5b5&#45;e18402628f01</title>
<path fill="none" stroke="black" d="M2080.59,-99.87C2105.88,-99.87 2131.17,-99.87 2156.46,-99.87"/>
<polygon fill="black" stroke="black" points="2156.3,-103.37 2166.3,-99.87 2156.3,-96.37 2156.3,-103.37"/>
</g>
<!-- 9115f9d1&#45;5414&#45;4598&#45;b322&#45;d074cb3909dd -->
<g id="node13" class="node">
<title>9115f9d1&#45;5414&#45;4598&#45;b322&#45;d074cb3909dd</title>
<polygon fill="white" stroke="black" points="2141,-36 1783,-36 1783,0 2141,0 2141,-36"/>
<text text-anchor="middle" x="1962" y="-14.3" font-family="Helvetica,sans-Serif" font-size="14.00">▶ Run GitHub Actions for `demucs/htdemucs.py`</text>
</g>
<!-- 4a26d084&#45;2c91&#45;46e7&#45;ac08&#45;bafea76bba7e&#45;&gt;9115f9d1&#45;5414&#45;4598&#45;b322&#45;d074cb3909dd -->
<g id="edge9" class="edge">
<title>4a26d084&#45;2c91&#45;46e7&#45;ac08&#45;bafea76bba7e&#45;&gt;9115f9d1&#45;5414&#45;4598&#45;b322&#45;d074cb3909dd</title>
<path fill="none" stroke="black" stroke-dasharray="5,2" d="M1962,-72.72C1962,-64.46 1962,-55.31 1962,-46.93"/>
<polygon fill="black" stroke="black" points="1965.5,-47.15 1962,-37.15 1958.5,-47.15 1965.5,-47.15"/>
</g>
<!-- 2fc94ee3&#45;e031&#45;43b0&#45;a5b5&#45;e18402628f01&#45;&gt;end -->
<g id="edge13" class="edge">
<title>2fc94ee3&#45;e031&#45;43b0&#45;a5b5&#45;e18402628f01&#45;&gt;end</title>
<path fill="none" stroke="black" d="M2416.41,-99.87C2435.63,-99.87 2452.53,-99.87 2462.97,-99.87"/>
<polygon fill="black" stroke="black" points="2462.7,-103.37 2472.7,-99.87 2462.7,-96.37 2462.7,-103.37"/>
<text text-anchor="middle" x="2444.98" y="-106.67" font-family="Helvetica,sans-Serif" font-size="14.00">Finish</text>
</g>
<!-- 0b95ee7a&#45;6314&#45;4295&#45;a791&#45;7de391b86e5b -->
<g id="node14" class="node">
<title>0b95ee7a&#45;6314&#45;4295&#45;a791&#45;7de391b86e5b</title>
<polygon fill="white" stroke="black" points="2527,-36 2159,-36 2159,0 2527,0 2527,-36"/>
<text text-anchor="middle" x="2343" y="-14.3" font-family="Helvetica,sans-Serif" font-size="14.00">▶ Run GitHub Actions for `gui_data/own_font.json`</text>
</g>
<!-- 2fc94ee3&#45;e031&#45;43b0&#45;a5b5&#45;e18402628f01&#45;&gt;0b95ee7a&#45;6314&#45;4295&#45;a791&#45;7de391b86e5b -->
<g id="edge11" class="edge">
<title>2fc94ee3&#45;e031&#45;43b0&#45;a5b5&#45;e18402628f01&#45;&gt;0b95ee7a&#45;6314&#45;4295&#45;a791&#45;7de391b86e5b</title>
<path fill="none" stroke="black" stroke-dasharray="5,2" d="M2308.42,-73.16C2314.06,-64.32 2320.39,-54.41 2326.08,-45.5"/>
<polygon fill="black" stroke="black" points="2329.5,-47.65 2331.93,-37.34 2323.6,-43.88 2329.5,-47.65"/>
</g>
</g>
</svg>
