<?xml version="1.0" encoding="UTF-8" standalone="no"?>
<!DOCTYPE svg PUBLIC "-//W3C//DTD SVG 1.1//EN"
 "http://www.w3.org/Graphics/SVG/1.1/DTD/svg11.dtd">
<!-- Generated by graphviz version 8.0.3 (0)
 -->
<!-- Pages: 1 -->
<svg width="2603pt" height="238pt"
 viewBox="0.00 0.00 2602.50 237.74" xmlns="http://www.w3.org/2000/svg" xmlns:xlink="http://www.w3.org/1999/xlink">
<g id="graph0" class="graph" transform="scale(1 1) rotate(0) translate(36 201.74)">
<polygon fill="dimgray" stroke="none" points="-36,36 -36,-201.74 2566.5,-201.74 2566.5,36 -36,36"/>
<text text-anchor="middle" x="1265.25" y="-150.54" font-family="Helvetica,sans-Serif" font-size="14.00">Sweep&#39;s Plan &amp; Progress</text>
<!-- start -->
<g id="node1" class="node">
<title>start</title>
</g>
<!-- 13580312&#45;0deb&#45;4537&#45;9715&#45;66b3490a0814 -->
<g id="node3" class="node">
<title>13580312&#45;0deb&#45;4537&#45;9715&#45;66b3490a0814</title>
<ellipse fill="#ee0000" stroke="black" cx="272.5" cy="-99.87" rx="188.18" ry="26.74"/>
<text text-anchor="middle" x="272.5" y="-103.67" font-family="Helvetica,sans-Serif" font-size="14.00">✗ Modify</text>
<text text-anchor="middle" x="272.5" y="-88.67" font-family="Helvetica,sans-Serif" font-size="14.00">gui_data/tkinterdnd2/TkinterDnD.py</text>
</g>
<!-- start&#45;&gt;13580312&#45;0deb&#45;4537&#45;9715&#45;66b3490a0814 -->
<g id="edge12" class="edge">
<title>start&#45;&gt;13580312&#45;0deb&#45;4537&#45;9715&#45;66b3490a0814</title>
<path fill="none" stroke="black" d="M32.89,-99.87C35.5,-99.87 51.07,-99.87 73.12,-99.87"/>
<polygon fill="black" stroke="black" points="73.05,-103.37 83.05,-99.87 73.05,-96.37 73.05,-103.37"/>
<text text-anchor="middle" x="58.7" y="-106.67" font-family="Helvetica,sans-Serif" font-size="14.00">Start</text>
</g>
<!-- end -->
<g id="node2" class="node">
<title>end</title>
</g>
<!-- b43ec915&#45;4346&#45;46c3&#45;963a&#45;d16fda9767e6 -->
<g id="node4" class="node">
<title>b43ec915&#45;4346&#45;46c3&#45;963a&#45;d16fda9767e6</title>
<ellipse fill="white" stroke="black" cx="666.5" cy="-99.87" rx="128.89" ry="26.74"/>
<text text-anchor="middle" x="666.5" y="-103.67" font-family="Helvetica,sans-Serif" font-size="14.00">▶ Modify</text>
<text text-anchor="middle" x="666.5" y="-88.67" font-family="Helvetica,sans-Serif" font-size="14.00">gui_data/change_log.txt</text>
</g>
<!-- 13580312&#45;0deb&#45;4537&#45;9715&#45;66b3490a0814&#45;&gt;b43ec915&#45;4346&#45;46c3&#45;963a&#45;d16fda9767e6 -->
<g id="edge2" class="edge">
<title>13580312&#45;0deb&#45;4537&#45;9715&#45;66b3490a0814&#45;&gt;b43ec915&#45;4346&#45;46c3&#45;963a&#45;d16fda9767e6</title>
<path fill="none" stroke="black" d="M461.04,-99.87C482.88,-99.87 504.72,-99.87 526.56,-99.87"/>
<polygon fill="black" stroke="black" points="526.28,-103.37 536.28,-99.87 526.28,-96.37 526.28,-103.37"/>
</g>
<!-- 833c5f93&#45;c72c&#45;45a6&#45;b5fd&#45;69e316e9bc50 -->
<g id="node9" class="node">
<title>833c5f93&#45;c72c&#45;45a6&#45;b5fd&#45;69e316e9bc50</title>
<polygon fill="yellow" stroke="black" points="461,-36 0,-36 0,0 461,0 461,-36"/>
<text text-anchor="middle" x="230.5" y="-14.3" font-family="Helvetica,sans-Serif" font-size="14.00">⋯ Run GitHub Actions for `gui_data/tkinterdnd2/TkinterDnD.py`</text>
</g>
<!-- 13580312&#45;0deb&#45;4537&#45;9715&#45;66b3490a0814&#45;&gt;833c5f93&#45;c72c&#45;45a6&#45;b5fd&#45;69e316e9bc50 -->
<g id="edge1" class="edge">
<title>13580312&#45;0deb&#45;4537&#45;9715&#45;66b3490a0814&#45;&gt;833c5f93&#45;c72c&#45;45a6&#45;b5fd&#45;69e316e9bc50</title>
<path fill="none" stroke="black" stroke-dasharray="5,2" d="M258.75,-72.72C254.21,-64.08 249.15,-54.47 244.59,-45.79"/>
<polygon fill="black" stroke="black" points="247.27,-44.37 239.52,-37.15 241.07,-47.63 247.27,-44.37"/>
</g>
<!-- 3195eb2c&#45;566e&#45;4aa3&#45;a38e&#45;d11eb1a2d22c -->
<g id="node5" class="node">
<title>3195eb2c&#45;566e&#45;4aa3&#45;a38e&#45;d11eb1a2d22c</title>
<ellipse fill="white" stroke="black" cx="1071.5" cy="-99.87" rx="147.16" ry="26.74"/>
<text text-anchor="middle" x="1071.5" y="-103.67" font-family="Helvetica,sans-Serif" font-size="14.00">▶ Modify</text>
<text text-anchor="middle" x="1071.5" y="-88.67" font-family="Helvetica,sans-Serif" font-size="14.00">gui_data/old_data_check.py</text>
</g>
<!-- b43ec915&#45;4346&#45;46c3&#45;963a&#45;d16fda9767e6&#45;&gt;3195eb2c&#45;566e&#45;4aa3&#45;a38e&#45;d11eb1a2d22c -->
<g id="edge4" class="edge">
<title>b43ec915&#45;4346&#45;46c3&#45;963a&#45;d16fda9767e6&#45;&gt;3195eb2c&#45;566e&#45;4aa3&#45;a38e&#45;d11eb1a2d22c</title>
<path fill="none" stroke="black" d="M795.83,-99.87C834.96,-99.87 874.09,-99.87 913.21,-99.87"/>
<polygon fill="black" stroke="black" points="912.97,-103.37 922.97,-99.87 912.97,-96.37 912.97,-103.37"/>
</g>
<!-- 29c03b7b&#45;1c1f&#45;44a7&#45;ab78&#45;8d8f64d3ca79 -->
<g id="node10" class="node">
<title>29c03b7b&#45;1c1f&#45;44a7&#45;ab78&#45;8d8f64d3ca79</title>
<polygon fill="white" stroke="black" points="853.5,-36 479.5,-36 479.5,0 853.5,0 853.5,-36"/>
<text text-anchor="middle" x="666.5" y="-14.3" font-family="Helvetica,sans-Serif" font-size="14.00">▶ Run GitHub Actions for `gui_data/change_log.txt`</text>
</g>
<!-- b43ec915&#45;4346&#45;46c3&#45;963a&#45;d16fda9767e6&#45;&gt;29c03b7b&#45;1c1f&#45;44a7&#45;ab78&#45;8d8f64d3ca79 -->
<g id="edge3" class="edge">
<title>b43ec915&#45;4346&#45;46c3&#45;963a&#45;d16fda9767e6&#45;&gt;29c03b7b&#45;1c1f&#45;44a7&#45;ab78&#45;8d8f64d3ca79</title>
<path fill="none" stroke="black" stroke-dasharray="5,2" d="M666.5,-72.72C666.5,-64.46 666.5,-55.31 666.5,-46.93"/>
<polygon fill="black" stroke="black" points="670,-47.15 666.5,-37.15 663,-47.15 670,-47.15"/>
</g>
<!-- 14cf1b4c&#45;666d&#45;4431&#45;a33e&#45;f676ea97c3e0 -->
<g id="node6" class="node">
<title>14cf1b4c&#45;666d&#45;4431&#45;a33e&#45;f676ea97c3e0</title>
<ellipse fill="white" stroke="black" cx="1528.5" cy="-99.87" rx="203.79" ry="26.74"/>
<text text-anchor="middle" x="1528.5" y="-103.67" font-family="Helvetica,sans-Serif" font-size="14.00">▶ Modify</text>
<text text-anchor="middle" x="1528.5" y="-88.67" font-family="Helvetica,sans-Serif" font-size="14.00">gui_data/model_manual_download.json</text>
</g>
<!-- 3195eb2c&#45;566e&#45;4aa3&#45;a38e&#45;d11eb1a2d22c&#45;&gt;14cf1b4c&#45;666d&#45;4431&#45;a33e&#45;f676ea97c3e0 -->
<g id="edge6" class="edge">
<title>3195eb2c&#45;566e&#45;4aa3&#45;a38e&#45;d11eb1a2d22c&#45;&gt;14cf1b4c&#45;666d&#45;4431&#45;a33e&#45;f676ea97c3e0</title>
<path fill="none" stroke="black" d="M1218.78,-99.87C1250.39,-99.87 1282,-99.87 1313.61,-99.87"/>
<polygon fill="black" stroke="black" points="1313.34,-103.37 1323.34,-99.87 1313.34,-96.37 1313.34,-103.37"/>
</g>
<!-- 179abcbf&#45;237d&#45;46c6&#45;a610&#45;c090e8b67f55 -->
<g id="node11" class="node">
<title>179abcbf&#45;237d&#45;46c6&#45;a610&#45;c090e8b67f55</title>
<polygon fill="white" stroke="black" points="1271,-36 872,-36 872,0 1271,0 1271,-36"/>
<text text-anchor="middle" x="1071.5" y="-14.3" font-family="Helvetica,sans-Serif" font-size="14.00">▶ Run GitHub Actions for `gui_data/old_data_check.py`</text>
</g>
<!-- 3195eb2c&#45;566e&#45;4aa3&#45;a38e&#45;d11eb1a2d22c&#45;&gt;179abcbf&#45;237d&#45;46c6&#45;a610&#45;c090e8b67f55 -->
<g id="edge5" class="edge">
<title>3195eb2c&#45;566e&#45;4aa3&#45;a38e&#45;d11eb1a2d22c&#45;&gt;179abcbf&#45;237d&#45;46c6&#45;a610&#45;c090e8b67f55</title>
<path fill="none" stroke="black" stroke-dasharray="5,2" d="M1071.5,-72.72C1071.5,-64.46 1071.5,-55.31 1071.5,-46.93"/>
<polygon fill="black" stroke="black" points="1075,-47.15 1071.5,-37.15 1068,-47.15 1075,-47.15"/>
</g>
<!-- 4a26d084&#45;2c91&#45;46e7&#45;ac08&#45;bafea76bba7e -->
<g id="node7" class="node">
<title>4a26d084&#45;2c91&#45;46e7&#45;ac08&#45;bafea76bba7e</title>
<ellipse fill="white" stroke="black" cx="1965.5" cy="-99.87" rx="118.17" ry="26.74"/>
<text text-anchor="middle" x="1965.5" y="-103.67" font-family="Helvetica,sans-Serif" font-size="14.00">▶ Modify</text>
<text text-anchor="middle" x="1965.5" y="-88.67" font-family="Helvetica,sans-Serif" font-size="14.00">demucs/htdemucs.py</text>
</g>
<!-- 14cf1b4c&#45;666d&#45;4431&#45;a33e&#45;f676ea97c3e0&#45;&gt;4a26d084&#45;2c91&#45;46e7&#45;ac08&#45;bafea76bba7e -->
<g id="edge8" class="edge">
<title>14cf1b4c&#45;666d&#45;4431&#45;a33e&#45;f676ea97c3e0&#45;&gt;4a26d084&#45;2c91&#45;46e7&#45;ac08&#45;bafea76bba7e</title>
<path fill="none" stroke="black" d="M1732.49,-99.87C1767.13,-99.87 1801.78,-99.87 1836.42,-99.87"/>
<polygon fill="black" stroke="black" points="1836.17,-103.37 1846.17,-99.87 1836.17,-96.37 1836.17,-103.37"/>
</g>
<!-- 64801524&#45;c10a&#45;4205&#45;9db3&#45;1086ac49235d -->
<g id="node12" class="node">
<title>64801524&#45;c10a&#45;4205&#45;9db3&#45;1086ac49235d</title>
<polygon fill="white" stroke="black" points="1768,-36 1289,-36 1289,0 1768,0 1768,-36"/>
<text text-anchor="middle" x="1528.5" y="-14.3" font-family="Helvetica,sans-Serif" font-size="14.00">▶ Run GitHub Actions for `gui_data/model_manual_download.json`</text>
</g>
<!-- 14cf1b4c&#45;666d&#45;4431&#45;a33e&#45;f676ea97c3e0&#45;&gt;64801524&#45;c10a&#45;4205&#45;9db3&#45;1086ac49235d -->
<g id="edge7" class="edge">
<title>14cf1b4c&#45;666d&#45;4431&#45;a33e&#45;f676ea97c3e0&#45;&gt;64801524&#45;c10a&#45;4205&#45;9db3&#45;1086ac49235d</title>
<path fill="none" stroke="black" stroke-dasharray="5,2" d="M1528.5,-72.72C1528.5,-64.46 1528.5,-55.31 1528.5,-46.93"/>
<polygon fill="black" stroke="black" points="1532,-47.15 1528.5,-37.15 1525,-47.15 1532,-47.15"/>
</g>
<!-- 2fc94ee3&#45;e031&#45;43b0&#45;a5b5&#45;e18402628f01 -->
<g id="node8" class="node">
<title>2fc94ee3&#45;e031&#45;43b0&#45;a5b5&#45;e18402628f01</title>
<ellipse fill="white" stroke="black" cx="2295.5" cy="-99.87" rx="124.4" ry="26.74"/>
<text text-anchor="middle" x="2295.5" y="-103.67" font-family="Helvetica,sans-Serif" font-size="14.00">▶ Modify</text>
<text text-anchor="middle" x="2295.5" y="-88.67" font-family="Helvetica,sans-Serif" font-size="14.00">gui_data/own_font.json</text>
</g>
<!-- 4a26d084&#45;2c91&#45;46e7&#45;ac08&#45;bafea76bba7e&#45;&gt;2fc94ee3&#45;e031&#45;43b0&#45;a5b5&#45;e18402628f01 -->
<g id="edge10" class="edge">
<title>4a26d084&#45;2c91&#45;46e7&#45;ac08&#45;bafea76bba7e&#45;&gt;2fc94ee3&#45;e031&#45;43b0&#45;a5b5&#45;e18402628f01</title>
<path fill="none" stroke="black" d="M2084.09,-99.87C2109.38,-99.87 2134.67,-99.87 2159.96,-99.87"/>
<polygon fill="black" stroke="black" points="2159.8,-103.37 2169.8,-99.87 2159.8,-96.37 2159.8,-103.37"/>
</g>
<!-- 9115f9d1&#45;5414&#45;4598&#45;b322&#45;d074cb3909dd -->
<g id="node13" class="node">
<title>9115f9d1&#45;5414&#45;4598&#45;b322&#45;d074cb3909dd</title>
<polygon fill="white" stroke="black" points="2144.5,-36 1786.5,-36 1786.5,0 2144.5,0 2144.5,-36"/>
<text text-anchor="middle" x="1965.5" y="-14.3" font-family="Helvetica,sans-Serif" font-size="14.00">▶ Run GitHub Actions for `demucs/htdemucs.py`</text>
</g>
<!-- 4a26d084&#45;2c91&#45;46e7&#45;ac08&#45;bafea76bba7e&#45;&gt;9115f9d1&#45;5414&#45;4598&#45;b322&#45;d074cb3909dd -->
<g id="edge9" class="edge">
<title>4a26d084&#45;2c91&#45;46e7&#45;ac08&#45;bafea76bba7e&#45;&gt;9115f9d1&#45;5414&#45;4598&#45;b322&#45;d074cb3909dd</title>
<path fill="none" stroke="black" stroke-dasharray="5,2" d="M1965.5,-72.72C1965.5,-64.46 1965.5,-55.31 1965.5,-46.93"/>
<polygon fill="black" stroke="black" points="1969,-47.15 1965.5,-37.15 1962,-47.15 1969,-47.15"/>
</g>
<!-- 2fc94ee3&#45;e031&#45;43b0&#45;a5b5&#45;e18402628f01&#45;&gt;end -->
<g id="edge13" class="edge">
<title>2fc94ee3&#45;e031&#45;43b0&#45;a5b5&#45;e18402628f01&#45;&gt;end</title>
<path fill="none" stroke="black" d="M2419.91,-99.87C2439.13,-99.87 2456.03,-99.87 2466.47,-99.87"/>
<polygon fill="black" stroke="black" points="2466.2,-103.37 2476.2,-99.87 2466.2,-96.37 2466.2,-103.37"/>
<text text-anchor="middle" x="2448.48" y="-106.67" font-family="Helvetica,sans-Serif" font-size="14.00">Finish</text>
</g>
<!-- 0b95ee7a&#45;6314&#45;4295&#45;a791&#45;7de391b86e5b -->
<g id="node14" class="node">
<title>0b95ee7a&#45;6314&#45;4295&#45;a791&#45;7de391b86e5b</title>
<polygon fill="white" stroke="black" points="2530.5,-36 2162.5,-36 2162.5,0 2530.5,0 2530.5,-36"/>
<text text-anchor="middle" x="2346.5" y="-14.3" font-family="Helvetica,sans-Serif" font-size="14.00">▶ Run GitHub Actions for `gui_data/own_font.json`</text>
</g>
<!-- 2fc94ee3&#45;e031&#45;43b0&#45;a5b5&#45;e18402628f01&#45;&gt;0b95ee7a&#45;6314&#45;4295&#45;a791&#45;7de391b86e5b -->
<g id="edge11" class="edge">
<title>2fc94ee3&#45;e031&#45;43b0&#45;a5b5&#45;e18402628f01&#45;&gt;0b95ee7a&#45;6314&#45;4295&#45;a791&#45;7de391b86e5b</title>
<path fill="none" stroke="black" stroke-dasharray="5,2" d="M2311.92,-73.16C2317.56,-64.32 2323.89,-54.41 2329.58,-45.5"/>
<polygon fill="black" stroke="black" points="2333,-47.65 2335.43,-37.34 2327.1,-43.88 2333,-47.65"/>
</g>
</g>
</svg>
